<svg width="52" height="52" viewBox="0 0 52 52" fill="none" xmlns="http://www.w3.org/2000/svg">
    <path d="M0 26C0 11.657 11.656 0 26 0s26 11.656 26 26c0 14.343-11.656 26-26 26S0 40.344 0 26zm2.666 0c0 12.902 10.431 23.333 23.334 23.333 12.902 0 23.333-10.43 23.333-23.333C49.333 13.098 38.902 2.667 26 2.667S2.666 13.097 2.666 26zm6 0c0-.308.186-.718.375-.917L19.708 13.75c.498-.515 1.315-.564 1.896-.041.519.467.522 1.367.041 1.875l-8.562 9.083h28.916a1.333 1.333 0 1 1 0 2.667H13.083l8.562 9.083c.48.508.456 1.406-.041 1.896-.526.517-1.405.46-1.896-.063L9.04 26.917c-.313-.307-.37-.604-.375-.917z" fill="#fff"/>
</svg>
