<svg width="800" height="800" viewBox="0 0 800 800" fill="none" xmlns="http://www.w3.org/2000/svg">
    <path d="M629.872 400.98c-1.479 4.44-16.266 26.638-17.744 31.078 0 1.48-1.479 4.44-1.479 5.92l-13.308 75.475 2.957 13.319-25.138 53.277-17.744 26.639-4.436 2.959c-1.479 2.96-1.479 5.92-2.957 8.88-5.915 19.239-10.351 35.518-19.223 48.837-11.83 20.719-13.308 44.397-19.223 59.196 0 0-13.308 0-23.659 1.48l4.436-16.279-10.351 16.279h-7.393c1.478-7.399 8.872-13.319 8.872-19.239 1.478-26.638 7.393-47.357 7.393-71.035 0-8.88 5.915-78.436 0-82.875-4.436-5.92-5.915 1.48-10.351-1.48h-48.796c1.478-2.96 5.914-17.759 5.914-20.719-1.478-5.92-19.222-38.478-19.222-38.478l8.872 28.119-5.915-4.44 10.351 16.279-5.915 17.759V559.33c-4.436 29.599-13.308 90.275-13.308 90.275l25.137 76.955c-2.957 2.96-16.265 4.44-26.616 4.44v-14.799L406.59 731h-5.915v-4.44c0-2.959 2.958-10.359 2.958-13.319l-42.882-91.754s-26.617-32.558-32.531-51.797c-2.958-5.92-5.915-13.319-10.351-17.759l-26.617-14.799-11.829-11.84-13.308-8.879 5.914 17.759s-45.839-48.837-54.711-59.197c-2.957-4.439-4.436-16.279-2.957-26.638-1.479-5.92-1.479-13.319-1.479-22.199 0-16.279 25.138-88.794 26.616-97.674 1.479-4.439 16.266-5.919 20.702-8.879 4.436-2.96 10.351-28.118 10.351-28.118s-11.83 17.758-14.787 19.238c-4.436 2.96-14.787 1.48-19.223 4.44-2.957 1.48-4.436 2.96-7.394 4.44 0 0 2.958 31.078-32.531 65.116 0 0 5.915-28.118 2.958-42.917-5.915 0-23.659-2.96-29.574-8.88 13.308-28.118 16.266-53.277 29.574-81.395 4.436-19.239 10.351-35.518 16.265-50.317 8.872 4.44 19.223 8.879 28.095 7.4l-19.223-5.92c2.958-7.4 5.915-11.839 8.873-17.759 7.393 4.44 14.786 8.879 22.18 8.879l-19.223-13.319c1.479-2.96 1.479-2.96 2.957-4.44 1.479-2.959 2.958-5.919 5.915-8.879 5.915 4.44 11.83 7.4 17.744 7.4l-14.787-13.32c4.437-5.919 5.915-8.879 10.351-14.799 4.436 2.96 8.872 5.92 13.308 7.4l-10.35-13.319c4.436-5.92 8.872-10.36 14.786-14.799 2.958 2.959 7.394 5.919 10.351 8.879l-5.914-11.839 13.308-13.32c1.478 2.96 4.436 5.92 7.393 7.4l-2.957-10.359c5.915-4.44 8.872-7.4 14.787-10.36 1.478 2.96 4.436 5.92 7.393 8.88l-2.957-10.36c2.957-1.48 4.436-2.96 7.393-4.44l8.872-4.44c1.479 2.96 2.958 5.92 4.436 7.4l-1.478-8.879c5.914-2.96 11.829-4.44 19.223-7.4 1.478 1.48 1.478 4.44 2.957 5.92v-5.92c5.915-1.48 11.829-4.44 17.744-4.44 0 1.48 1.479 2.96 1.479 4.44l1.479-5.92c7.393-1.48 13.308-1.48 20.701-2.959 0 2.96 1.479 4.44 1.479 7.4l1.479-7.4h22.18v5.92L428.77 68c10.351 1.48 19.223 2.96 28.095 5.92v7.4l1.479-5.92 22.18 8.879c1.479 1.48 4.436 2.96 5.915 2.96v4.44l1.479-2.96c44.36 25.158 76.892 68.076 90.2 115.433 14.787 50.317 8.872 105.073-14.787 149.471 19.223-47.357 20.701-99.154 1.479-145.031-17.745-45.878-53.233-82.876-96.115-100.634-42.882-17.76-91.679-8.88-130.125 14.799-35.488 20.718-60.626 53.276-72.455 90.274l7.393 7.4 4.436-1.48c4.436-2.96 10.351-2.96 16.266-4.44 0 0 1.478 5.92-2.958 17.759-2.957 8.88-10.35 11.839-10.35 11.839-1.479 0-4.437 1.48-5.915 1.48-2.958 0-4.436 0-5.915 2.96-1.479 1.48-1.479 4.44 0 5.92 1.479 2.96 2.957 2.96 4.436 4.44h1.479s-2.958-1.48-2.958-5.92v-1.48c1.479-1.48 1.479-1.48 4.436-1.48 1.479 0 5.915 0 8.873-1.48 8.872 4.44 14.786 10.359 26.616 22.199 17.744 20.718 20.702 51.797 26.616 75.475 2.958 8.88 17.745 19.239 26.617 29.598l66.541 28.119-14.787-11.84 140.475 16.279c17.744 0 28.095-4.439 36.967-10.359 11.83-7.4 19.223-20.719 32.531-38.478 1.479 10.36-1.478 26.639-5.914 44.398-1.479 4.439 10.35-8.88 8.872-2.96zM249.849 261.868s-11.829 0-16.265 5.92-4.437 13.319-2.958 14.799c1.479 2.96 1.479-4.44 4.436-4.44 2.958 0 13.308-4.439 14.787-7.399v-8.88zm31.053-34.038 1.478-4.439 1.479 4.439s4.436-7.399 8.872-8.879c0 0-7.393 0-16.266 4.44-7.393 4.439-11.829 14.799-11.829 14.799s8.872-10.36 16.266-10.36z" fill="#0125B5"/>
</svg>
