<svg width="17" height="18" viewBox="0 0 17 18" fill="none" xmlns="http://www.w3.org/2000/svg">
    <path d="M8.502 1.532c2.27 0 2.539.008 3.436.05.829.037 1.278.176 1.578.292.396.154.68.339.977.636.298.298.482.581.637.978.116.3.255.75.292 1.578.041.9.05 1.17.05 3.436 0 2.268-.009 2.542-.05 3.437-.037.829-.177 1.28-.292 1.58-.155.396-.339.68-.637.977a2.638 2.638 0 0 1-.977.636c-.3.117-.75.255-1.579.293-.9.041-1.169.05-3.436.05s-2.541-.009-3.436-.05c-.829-.038-1.28-.177-1.58-.293a2.637 2.637 0 0 1-.978-.636 2.638 2.638 0 0 1-.636-.978c-.116-.3-.255-.75-.292-1.58-.042-.896-.05-1.165-.05-3.436 0-2.27.008-2.538.05-3.436.037-.829.177-1.277.292-1.577.155-.396.339-.68.636-.977.298-.298.581-.482.978-.637.3-.116.751-.255 1.58-.292.896-.041 1.165-.05 3.436-.05v-.001zm0-1.532c-2.31 0-2.599.01-3.506.051-.905.041-1.523.184-2.064.395a4.195 4.195 0 0 0-1.509.98 4.138 4.138 0 0 0-.977 1.507c-.21.54-.354 1.158-.395 2.063C.01 5.903 0 6.194 0 8.502s.01 2.598.051 3.505c.041.905.184 1.524.395 2.064.214.568.549 1.083.98 1.51.426.431.94.765 1.506.979.539.211 1.157.354 2.062.397.907.04 1.197.05 3.507.05s2.597-.01 3.504-.05c.904-.043 1.523-.184 2.063-.397a4.14 4.14 0 0 0 1.506-.98 4.18 4.18 0 0 0 .98-1.506c.21-.54.355-1.158.395-2.063.041-.907.051-1.197.051-3.506 0-2.308-.01-2.598-.052-3.505-.04-.905-.184-1.523-.395-2.064a4.162 4.162 0 0 0-.981-1.506 4.17 4.17 0 0 0-1.506-.98c-.538-.21-1.158-.354-2.062-.395C11.1.01 10.81 0 8.503 0z" fill="#C01FC9"/>
    <path d="M8.502 4.136a4.366 4.366 0 0 0 0 8.731 4.367 4.367 0 0 0 0-8.731zm0 7.2a2.833 2.833 0 1 1 0-5.669 2.833 2.833 0 1 1 0 5.668zM13.04 4.984a1.02 1.02 0 1 0 0-2.04 1.02 1.02 0 0 0 0 2.04z" fill="#C01FC9"/>
</svg>
