<svg width="176" height="180" viewBox="0 0 176 180" fill="none" xmlns="http://www.w3.org/2000/svg">
    <path d="m58.333 120.924 4.13 3.407-23.024 30.147-8.982-7.433 27.876-26.121zM64.217 125.57c4.027 2.375 8.157 4.543 12.7 5.782-.517 1.755-.827 2.581-1.343 4.336-1.652-.413-2.478-.723-4.13-1.342a1884.407 1884.407 0 0 0-12.079 30.663c-3.614-1.342-7.02-2.787-10.324-4.542 5.368-9.705 10.737-19.307 16.312-28.909-1.549-.826-2.271-1.238-3.717-2.271a114.903 114.903 0 0 0 2.581-3.717zM74.542 169.035c-3.717-.619-7.434-1.548-11.047-2.684 5.988-8.466 11.15-17.242 15.383-26.637 1.032-2.374 2.065-4.852 2.994-7.33h.207c2.374.413 3.51.516 5.884.619h.207c.31 2.582.723 5.163 1.239 7.744 2.168 10.118 5.472 19.616 9.808 29.011-3.717.413-7.537.516-11.254.516-.516-1.652-.825-2.581-1.238-4.233-3.407-.103-6.815-.413-10.118-1.032-.93 1.652-1.24 2.478-2.065 4.026zm4.026-8.259c2.685.413 4.027.516 6.814.619-.929-4.026-1.652-7.949-2.271-11.976-1.342 3.923-2.89 7.64-4.543 11.357zM101.695 131.662c2.891 10.53 5.988 21.061 9.085 31.489 3.304-.826 6.401-1.859 9.602-3.097.723 1.651 1.136 2.477 1.858 4.129-3.304 1.342-6.711 2.375-10.118 3.304-3.613.929-7.227 1.652-10.943 2.065-1.962-12.286-3.717-24.572-5.37-36.858 2.376-.206 3.614-.413 5.886-1.032zM122.137 129.597c-.62-2.581-1.342-5.059-2.272-7.434 1.962-1.652 2.788-2.581 4.543-4.646 3.82 7.434 6.195 14.971 7.537 23.127.826.929 1.239 1.445 2.168 2.478 2.684 3.097 5.472 6.194 8.259 9.292-2.89 2.271-5.988 4.439-9.291 6.297-2.272-3.407-4.543-6.917-6.814-10.324-.723-1.136-1.033-1.652-1.756-2.788-7.64-3.923-14.144-8.569-20.029-14.66 2.375-.826 3.51-1.239 5.782-2.375a56.054 56.054 0 0 0 6.401 4.646c2.168 1.342 4.439 2.581 6.814 3.614-.31-2.375-.723-4.853-1.342-7.227zM28.495 114.213l-3.2-1.961 1.342 3.51-2.685 2.375 3.614-.413 1.342 3.407.826-3.51 3.717-.31-3.098-1.859.826-3.51-2.684 2.271zM149.29 114.213l-3.304-1.961 1.445 3.51-2.684 2.375 3.51-.413 1.446 3.407.826-3.51 3.613-.31-3.097-1.859.929-3.51-2.684 2.271zM52.757 87.267c.104-.516 0-.93-.206-1.342a2.438 2.438 0 0 0-.93-.826c-.412-.207-.825-.413-1.342-.62a5.97 5.97 0 0 1-1.445-.516 24.733 24.733 0 0 0-5.472-1.239c-1.858-.206-3.613-.103-5.369.723-.825.413-1.548.826-2.168 1.445-.722.62-1.342 1.24-2.064 1.859-.413.413-.826.929-1.24 1.342-.412.413-.825.93-1.238 1.342-1.24 1.24-2.375 2.272-3.51 2.994-1.136.723-2.375 1.342-3.51 1.652-1.24.31-2.479.516-3.718.516-1.239 0-2.684-.206-4.026-.31-1.136-.103-2.271-.619-3.2-1.548-1.033-.93-1.859-2.065-2.478-3.614-.723-1.445-1.136-3.2-1.343-5.058a22.61 22.61 0 0 1 .104-5.885c.31-2.065.929-3.924 1.755-5.576a12.783 12.783 0 0 1 2.89-3.82c1.136-.929 2.272-1.548 3.51-1.858 1.24-.31 2.375-.206 3.511.31.62.206.93.31 1.445.62-.929 2.684-1.651 5.575-2.27 8.362-.62-.207-.93-.207-1.55-.413-.722-.206-1.445 0-2.168.723-.722.722-1.135 1.652-1.342 2.89-.206 1.24-.103 2.375.413 3.408.413.929 1.033 1.548 1.755 1.651 1.033.104 1.962.31 2.891.517.826.206 1.652.206 2.478.206.826 0 1.652-.206 2.478-.62.826-.309 1.652-1.032 2.58-1.858.62-.516 1.137-1.032 1.756-1.548.62-.517 1.136-1.033 1.755-1.549.207-.103.31-.206.413-.31.723-.516 1.446-1.032 2.065-1.445.723-.413 1.446-.723 2.271-1.032a12.351 12.351 0 0 1 5.679-.62c1.652.207 3.51.723 5.472 1.445 1.135.413 2.271.826 3.407 1.343 1.135.516 2.065.929 2.89 1.445.93.516 1.652 1.136 2.375 1.755.723.62 1.342 1.342 1.755 1.962.517.722.826 1.342 1.033 2.065.206.722.31 1.342.206 2.064a4.11 4.11 0 0 1-.929 2.169c-.516.722-1.239 1.342-2.065 1.858-.826.516-1.755 1.032-2.89 1.342-1.033.413-2.169.516-3.408.516h-2.58c0-2.374.102-3.51.309-5.678 1.032.103 1.549.207 2.581.413.826.103 1.445 0 2.065-.413.206-.103.516-.62.62-1.239zM14.144 61.972c2.788-6.607 6.092-12.492 10.222-18.273 1.961 1.651 2.89 2.477 4.852 4.026-1.239 1.652-1.858 2.581-2.994 4.336 12.183 8.88 24.469 17.655 36.754 26.534-.722 1.135-1.032 1.755-1.651 2.994-13.112-7.434-26.121-14.764-39.233-22.197-.929 1.961-1.445 2.993-2.271 5.162l-5.679-2.582zM66.282 74.362c-.929.929-1.342 1.445-2.168 2.58-9.911-9.704-18.997-20.132-27.36-31.385-2.167-2.994-4.232-5.988-6.297-8.983l.206-.206a82.238 82.238 0 0 1 6.298-5.678c.103-.104.103-.104.207-.104 2.684 2.478 5.368 4.956 7.95 7.537a263.428 263.428 0 0 1 26.843 31.8c-1.136.722-1.652 1.031-2.685 1.858-1.548-1.756-2.374-2.685-3.923-4.44-1.136.93-1.755 1.445-2.788 2.478 1.446 1.858 2.169 2.684 3.717 4.543zm-7.64-9.602c.93-.826 1.342-1.239 2.271-2.065-3.82-3.923-7.743-7.846-11.872-11.46a231.309 231.309 0 0 0 9.601 13.525zM69.483 40.498a194.917 194.917 0 0 1-1.24-24.572v-.31a106.08 106.08 0 0 1 8.26-1.548c.103.413.103.62.103.929 2.375 16.932 4.853 33.76 7.228 50.692-1.136.104-1.652.207-2.685.517-.206 0-.206.103-.413.103-.413-1.549-.516-2.272-.929-3.82l-4.026-16.416c.103 5.575.413 10.944 1.135 16.416-2.684-4.956-5.781-9.602-9.188-14.041a1043.161 1043.161 0 0 1 6.71 15.9c.62 1.341.826 2.064 1.446 3.406-.103.103-.207.103-.31.103-1.032.413-1.549.723-2.478 1.24-8.26-14.971-16.519-30.044-24.778-45.015-.103-.31-.207-.413-.413-.723a104.257 104.257 0 0 1 7.64-3.716v.103c5.162 6.71 9.705 13.525 13.938 20.752zM81.562 13.448c2.788-.206 5.575-.31 8.363-.206h.103c.93 0 1.342 0 2.271.103 1.756.103 3.407.516 4.956 1.136 1.549.723 2.788 1.548 3.82 2.58 1.033 1.033 1.652 2.272 2.065 3.511.413 1.342.413 2.581.103 3.923-.722 3.407-1.342 6.711-2.065 10.118-.206 1.24-.722 2.375-1.342 3.407-.62 1.033-1.342 1.962-2.271 2.685l.103-.104c.62 1.033 1.032 2.169 1.136 3.407.103 1.24.103 2.478-.207 3.82-.62 2.891-1.239 5.679-1.755 8.57a19.622 19.622 0 0 1-1.239 3.716c-.516 1.136-1.135 2.065-1.755 2.891-.62.826-1.342 1.342-1.962 1.858-1.135 1.033-4.955.62-6.194.723-1.342-17.448-2.684-34.793-4.13-52.138zm8.363 5.988-.31 17.552c.62 0 .93 0 1.652.103.93 0 1.858-.206 2.581-.93.723-.619 1.239-1.444 1.342-2.477.31-3.407.723-6.814 1.033-10.221.103-1.032-.207-1.858-1.033-2.684-.826-.826-1.858-1.24-3.097-1.24-.93-.103-1.342-.103-2.168-.103zm1.962 23.85H89.409c-.104 5.265-.207 10.634-.31 15.9h1.239c.62 0 1.136-.31 1.652-.93a5.17 5.17 0 0 0 .929-2.478l.93-8.672c.102-.826 0-1.652-.414-2.375-.413-.723-.93-1.239-1.549-1.445zm.206-.104-.103.104c.103 0 .103 0 .103-.104zm.516 0h-.206.206zM117.904 18.404c2.478.93 5.059 1.962 7.433 3.2-1.135 2.272-1.652 3.408-2.787 5.782-2.685-1.342-4.027-1.858-6.814-2.994l-5.885 15.487c1.445.516 2.168.826 3.51 1.445-1.032 2.375-1.549 3.51-2.581 5.782-1.239-.517-1.858-.826-3.2-1.343l-5.885 15.487c1.342.516 2.065.826 3.407 1.445-1.136 2.272-1.652 3.408-2.788 5.782-1.136-.516-1.652-.826-2.787-1.239-1.24-.413-1.859-.62-2.995-.93 4.44-16.828 8.983-33.656 13.422-50.485 2.581.723 5.369 1.549 7.95 2.581zM110.573 65.586c0 .413.104.723.31.93.31.206.62.206 1.033.102.413-.103.826-.412 1.135-.929l2.065-2.58c1.342 1.135 1.962 1.651 3.201 2.993-.929.93-1.342 1.446-2.272 2.375a13.754 13.754 0 0 1-2.477 1.962c-.826.516-1.652.929-2.478 1.239a6.117 6.117 0 0 1-2.168.412c-.723 0-1.239-.206-1.652-.516-.413-.31-.723-.826-.929-1.445-.207-.62-.207-1.342-.207-2.272 0-.826.207-1.755.516-2.787.31-1.032.723-1.962 1.239-2.994 5.782-10.428 11.667-20.855 17.448-31.283.516-1.032 1.342-1.755 2.272-2.374.929-.62 2.064-.93 3.2-1.136 1.239-.103 2.478 0 3.82.31a12.23 12.23 0 0 1 3.82 1.961c1.136.93 2.168 1.962 2.891 3.2.723 1.24 1.239 2.479 1.445 3.718.207 1.238.207 2.374-.103 3.51-.31 1.135-.826 2.065-1.652 2.89-.826.827-1.239 1.24-1.961 2.066-2.065-2.169-3.201-3.098-5.369-4.956.723-.93 1.032-1.342 1.755-2.272.31-.413.413-.929.31-1.548-.103-.62-.413-1.136-1.033-1.549-.516-.413-1.135-.62-1.755-.516-.619 0-1.032.31-1.342.723l-20.442 29.424c-.413.413-.62.93-.62 1.342zM119.453 75.084c-.207.413-.207.723 0 1.033.206.31.516.516.929.516.413 0 .929-.103 1.342-.413 1.136-.723 1.652-1.032 2.788-1.755.929 1.652 1.342 2.478 1.961 4.336-1.136.516-1.755.826-2.891 1.342-1.032.516-1.961.723-2.994.93a8 8 0 0 1-2.684.103c-.826-.104-1.549-.207-2.168-.517a3.13 3.13 0 0 1-1.342-1.239c-.31-.516-.413-1.135-.413-1.858 0-.723.206-1.445.516-2.271a9.778 9.778 0 0 1 1.342-2.478c.62-.826 1.239-1.652 2.168-2.375 8.879-7.846 17.758-15.796 26.637-23.642.826-.723 1.755-1.24 2.891-1.446 1.135-.206 2.271-.206 3.407.207 1.135.31 2.271.929 3.407 1.858 1.135.93 2.065 2.065 2.891 3.51.826 1.343 1.342 2.788 1.652 4.337.309 1.548.309 2.994.103 4.233-.207 1.342-.62 2.477-1.239 3.51-.62 1.032-1.446 1.755-2.478 2.168-1.032.516-1.549.723-2.581 1.239-.929-2.478-2.168-4.956-3.407-7.33.929-.62 1.445-.93 2.375-1.446.412-.31.722-.723.825-1.342.104-.62-.103-1.239-.413-1.962-.413-.62-.825-1.032-1.445-1.239-.619-.206-1.032-.103-1.445.207-9.602 6.917-19.204 13.731-28.805 20.649-.516.31-.826.722-.929 1.135zM155.897 69.613a6.14 6.14 0 0 1 3.614-.207 8.656 8.656 0 0 1 3.51 1.755c1.136.93 2.065 2.065 2.891 3.614.826 1.445 1.445 3.2 1.755 5.162.31 1.962.31 3.82 0 5.678-.31 1.756-.826 3.407-1.549 4.75-.722 1.342-1.651 2.477-2.684 3.2-1.032.826-2.271 1.136-3.407 1.136h-32.522c-1.238 0-2.374-.207-3.407-.516-1.135-.31-2.064-.826-2.89-1.343-.826-.516-1.446-1.135-1.962-1.755-.516-.62-.826-1.239-.929-2.065-.103-.722 0-1.445.31-2.168a8.226 8.226 0 0 1 1.342-2.168c.619-.723 1.342-1.445 2.271-2.065.929-.62 1.962-1.239 3.097-1.652 10.118-3.82 20.339-7.536 30.56-11.356zm3.511 15.796c.826-.103 1.445-.62 1.858-1.446.413-.929.516-1.961.413-3.097-.207-1.135-.62-2.065-1.342-2.684-.723-.723-1.446-.93-2.168-.723-10.531 2.581-21.062 5.162-31.696 7.743-.723.207-1.342.517-1.858 1.136-.413.516-.62 1.033-.517 1.549.104.516.413.929 1.033 1.342.619.31 1.239.516 2.065.413 10.737-1.446 21.474-2.788 32.212-4.233z" fill="#fff"/>
    <path d="m109.438 6.118-.413 1.755c37.374 9.395 65.146 43.362 65.146 83.627 0 47.492-38.716 86.208-86.208 86.208S1.858 138.992 1.858 91.5c0-40.058 27.566-73.922 64.63-83.524l-.412-1.755C28.082 16.03 0 50.513 0 91.501c0 48.523 39.439 87.962 87.963 87.962 48.525 0 87.963-39.439 87.963-87.963.207-41.09-28.185-75.78-66.488-85.382z" fill="#fff"/>
    <path d="M69.276 2.608 73.2 5.91l2.58-4.44 1.136 7.021-1.032.207-.516-4.44-1.859 3.098-2.787-2.375.722 4.44-1.032.206-1.136-7.02zM78.568 4.776c-.103-2.065 1.342-3.614 3.304-3.82 1.962-.103 3.613 1.239 3.717 3.304.103 2.064-1.343 3.613-3.304 3.82-1.859.206-3.51-1.24-3.717-3.304zm5.885-.31c-.103-1.445-1.136-2.478-2.581-2.375-1.446.104-2.272 1.24-2.168 2.685.103 1.445 1.135 2.478 2.58 2.374 1.446-.103 2.272-1.239 2.169-2.684zM88.79 3.227l-.104 4.543h-1.032L87.86.75h.103l4.233 4.748L92.3.956h1.032l-.206 7.02h-.104L88.79 3.227zM97.359 2.298l-1.962-.207v-.929l5.059.516-.103.93-1.962-.207-.62 5.885-1.032-.103.62-5.885zM102.727 1.988l4.233.723-.206.929-3.201-.516-.309 1.961 2.89.517-.206.929-2.891-.516-.31 2.064 3.304.62-.206.929-4.44-.723 1.342-6.917zM103.14 100.689c-.103.309-1.136 1.858-1.239 2.168 0 .103-.103.31-.103.413l-.929 5.265.206.929-1.755 3.717-1.239 1.859-.31.206c-.103.206-.103.413-.206.619-.413 1.343-.723 2.478-1.342 3.407-.826 1.446-.93 3.098-1.342 4.13 0 0-.93 0-1.652.103l.31-1.135-.723 1.135h-.517c.104-.516.62-.929.62-1.342.103-1.858.516-3.303.516-4.955 0-.62.413-5.472 0-5.782-.31-.413-.413.103-.722-.103h-3.408c.104-.207.413-1.239.413-1.446-.103-.413-1.342-2.684-1.342-2.684l.62 1.962-.413-.31.722 1.136-.413 1.239v.516c-.31 2.065-.929 6.298-.929 6.298l1.755 5.368c-.206.207-1.135.31-1.858.31v-1.032l-.31 1.032h-.413v-.31c0-.206.207-.722.207-.929l-2.994-6.401s-1.859-2.271-2.272-3.614c-.206-.413-.413-.929-.722-1.238l-1.859-1.033-.826-.826-.929-.619.413 1.239s-3.2-3.407-3.82-4.13c-.206-.31-.31-1.136-.206-1.859-.104-.412-.104-.929-.104-1.548 0-1.136 1.756-6.195 1.859-6.814.103-.31 1.135-.413 1.445-.62.31-.206.723-1.961.723-1.961s-.826 1.239-1.033 1.342c-.31.206-1.032.103-1.342.31-.206.103-.31.206-.516.31 0 0 .207 2.167-2.271 4.542 0 0 .413-1.962.206-2.994-.413 0-1.652-.206-2.065-.62.93-1.961 1.136-3.716 2.065-5.678.31-1.342.723-2.478 1.136-3.51.62.31 1.342.62 1.962.516l-1.343-.413c.207-.516.413-.826.62-1.239.516.31 1.032.62 1.548.62l-1.342-.93c.104-.206.104-.206.207-.31.103-.206.206-.412.413-.619.413.31.826.516 1.239.516l-1.033-.929c.31-.413.413-.62.723-1.032.31.206.62.413.93.516l-.724-.93c.31-.412.62-.722 1.033-1.031.206.206.516.412.723.619l-.413-.826.929-.93c.103.207.31.414.516.517l-.207-.723c.413-.31.62-.516 1.033-.722.103.206.31.413.516.62l-.206-.724c.206-.103.31-.206.516-.31l.62-.31c.103.207.206.414.31.517l-.104-.62c.413-.206.826-.31 1.342-.516.103.104.103.31.206.413v-.413c.413-.103.827-.31 1.24-.31 0 .104.103.207.103.31l.103-.413c.516-.103.93-.103 1.445-.206 0 .206.104.31.104.516l.103-.516h1.549v.413l.206-.413c.723.103 1.342.206 1.962.413v.516l.103-.413 1.549.62c.103.103.31.206.412.206v.31l.104-.207c3.097 1.755 5.368 4.75 6.297 8.053 1.033 3.51.62 7.33-1.032 10.428 1.342-3.304 1.445-6.917.103-10.118-1.239-3.2-3.716-5.781-6.71-7.02-2.995-1.24-6.402-.62-9.086 1.032a11.254 11.254 0 0 0-5.059 6.298l.516.516.31-.103c.31-.207.723-.207 1.136-.31 0 0 .103.413-.207 1.239-.206.62-.722.826-.722.826-.104 0-.31.103-.413.103-.207 0-.31 0-.413.207a.314.314 0 0 0 0 .413c.103.206.206.206.31.31h.103s-.207-.104-.207-.414v-.103c.103-.103.103-.103.31-.103.103 0 .413 0 .62-.103.619.31 1.032.722 1.858 1.548 1.239 1.446 1.445 3.614 1.858 5.266.207.62 1.239 1.342 1.858 2.065l4.646 1.961-1.032-.826 9.808 1.136c1.239 0 1.962-.31 2.581-.723.826-.516 1.342-1.445 2.272-2.684.103.723-.104 1.858-.413 3.097-.104.31.722-.619.619-.206zm-26.534-9.705s-.825 0-1.135.413c-.31.413-.31.929-.207 1.032.104.207.104-.31.31-.31.207 0 .93-.31 1.032-.516v-.62zm2.169-2.375.103-.31.103.31s.31-.516.62-.62c0 0-.517 0-1.136.31-.516.31-.826 1.033-.826 1.033s.62-.723 1.136-.723zM166.222 95.63v-.723h.309v1.755h-.309v-.723h-1.962v-.31h1.962zM166.635 96.972l-1.342 1.136 1.342 1.135h-2.375v-.31h1.446l-.93-.825.93-.826h-1.446v-.31h2.375z" fill="#fff"/>
</svg>
