<svg width="343" height="171" viewBox="0 0 343 171" fill="none" xmlns="http://www.w3.org/2000/svg">
    <g clip-path="url(#nwvawvlb2a)" fill="#fff">
        <path d="M4.478 85.517c-7.826-10.441-4.791-24.6 4.434-31.573 5.277-3.99 11.402-5.052 17.638-4.17l-.256 8.8c-3.84-.786-8.036-.011-11.436 2.562-6.373 4.813-7.407 12.175-2.612 18.569 4.83 6.436 12.16 7.474 18.532 2.658 3.4-2.569 5.3-6.405 5.608-10.324l8.44 2.105c-.886 6.327-3.703 11.964-8.868 15.863-10.278 7.771-24.388 4.966-31.48-4.49zM42.188 57.153c-5.25-10.986-.851-24.606 10.53-30.091 11.472-5.53 24.723-.416 29.973 10.57 5.258 10.985.789 24.693-10.504 30.135-11.428 5.507-24.746.371-30-10.614zm32.607-15.714c-3.198-6.688-11.297-9.546-18-6.312-6.665 3.21-9.509 11.34-6.31 18.027 3.197 6.69 11.319 9.589 17.98 6.378 6.707-3.232 9.528-11.406 6.33-18.093zM87.397 11.463l21.967 16.952 11.188-25.411L131.79 47.38l-9.155 2.337-4.655-18.38-4.924 11.65-9.921-7.86 4.656 18.38-9.156 2.335-11.238-44.379zM137.848 2.163 163.783 0l.68 8.173-16.48 1.375 1.026 12.382 15.019-1.254.222 8.604-14.53 1.213.575 6.951 16.481-1.375.656 7.978-25.935 2.163-3.649-44.047zM192.026.205l10.749 1.603 6.082 24.099 13.278-21.212 10.263 1.53-26.918 42.474L192.026.205zM242.936 9.593l9.078 2.62-12.167 42.49-9.077-2.618 12.166-42.492zM249.026 48.828c.089.035 3.314.327 6.905-.773 4.749-1.463 7.399-4.505 9.33-9.126 2.627-6.299 7.524-10.525 14.235-12.494 5.016-1.462 9.163-1.1 9.718-1.027l-.447 8.814c-.104.01-3.31-.326-6.901.774-4.881 1.518-7.519 4.666-9.451 9.29-2.611 6.252-7.488 10.434-14.117 12.33-5.06 1.442-9.183 1.147-9.715 1.026l.443-8.814zM302.481 33.419l8.234 4.65-21.594 38.544-8.234-4.648 21.594-38.547zM322.739 56.127l-6.603-4.752 5.106-7.149L343 59.891l-5.506 6.86-6.879-4.952-20.572 28.788-7.873-5.67 20.569-28.79zM53.751 159.933c1.509 1.514 3.714 2.563 5.86 2.563 3.076 0 5.396-1.981 5.396-4.194 0-6.407-12.244-8.738-12.244-19.107 0-7.107 4.702-12.349 11.896-12.349 2.205 0 4.99.582 7.37 1.748v8.796c-1.74-1.107-4.12-2.039-5.803-2.039-2.147 0-3.945.815-3.945 3.67 0 5.243 12.475 7.339 12.475 19.281 0 8.33-5.57 12.698-13.578 12.698-2.785 0-5.107-.525-7.427-2.039v-9.028zM91.405 135.467v34.951h-9.051v-34.951h-5.919v-8.039h20.888v8.039h-5.918zM113.808 127.428l10.561 42.99h-8.647l-1.798-7.922h-9.052l-1.742 7.922h-8.644l10.27-42.99h9.052zm-1.394 28.427-3.132-13.98h-.116l-2.843 13.98h6.091z"/>
        <path d="m137.884 127.428 4.816 25.399h.117l4.814-25.399h9.749l5.165 42.99h-8.936l-2.611-25.979h-.117l-4.99 25.979h-6.267l-4.99-25.979h-.115l-2.611 25.979h-8.936l5.163-42.99h9.749zM165.382 127.428h11.141c8.647 0 12.592 4.37 12.592 10.661 0 5.243-2.322 9.028-7.196 10.078v.115c5.107.699 7.834 4.545 7.834 10.02 0 4.717-2.96 12.116-11.721 12.116h-12.65v-42.99zm8.704 17.243c3.482 0 5.977-1.282 5.977-5.01 0-3.495-2.495-4.777-5.977-4.777v9.787zm0 17.708c3.888 0 6.151-1.164 6.151-5.359 0-4.193-2.263-5.36-6.151-5.36v10.719zM193.287 127.428h18.336v8.039h-9.284v9.087h7.95v8.038h-7.95v9.787h9.69v8.039h-18.742v-42.99zM235.643 170.185c-1.856.582-2.959.815-5.049.815-9.225 0-16.015-8.853-16.015-22.076s6.79-22.078 16.015-22.078c2.09 0 3.193.234 5.049.816v9.669c-1.219-1.398-2.67-1.98-4.236-1.98-5.164 0-7.312 6.232-7.312 13.573 0 7.339 2.148 13.572 7.312 13.572 1.566 0 3.017-.583 4.236-1.981v9.67zM259.256 170.185c-1.857.582-2.96.815-5.05.815-9.224 0-16.014-8.853-16.014-22.076s6.79-22.078 16.014-22.078c2.09 0 3.193.234 5.05.816v9.669c-1.219-1.398-2.67-1.98-4.236-1.98-5.165 0-7.312 6.232-7.312 13.573 0 7.339 2.147 13.572 7.312 13.572 1.566 0 3.017-.583 4.236-1.981v9.67zM275.905 171c-8.473 0-14.332-7.223-14.332-22.076 0-14.855 5.859-22.078 14.332-22.078 8.472 0 14.331 7.223 14.331 22.078 0 14.853-5.859 22.076-14.331 22.076zm0-35.649c-2.611 0-4.817 2.796-4.817 13.573 0 10.775 2.206 13.572 4.817 13.572s4.816-2.797 4.816-13.572c0-10.777-2.205-13.573-4.816-13.573zM97.903 86.74c.041-.29.206-.248.372-.042l13.424 15.132 13.22-15.132c.164-.206.33-.247.371.041l1.647 28.403h-7.372l-.659-11.989-7.001 8.144c-.123.123-.247.123-.37 0l-7.289-8.186-.659 12.031h-7.33l1.646-28.403zM131.763 101.086c0-8.476 6.959-14.388 15.03-14.388 8.073 0 15.032 5.912 15.032 14.388 0 8.475-6.959 14.428-15.032 14.428-8.071 0-15.03-5.953-15.03-14.428zm22.403 0c0-4.424-2.677-7.856-7.373-7.856-4.695 0-7.371 3.431-7.371 7.856 0 4.422 2.676 7.896 7.371 7.896 4.696 0 7.373-3.474 7.373-7.896zM174.433 101.127v14.015h-7.041V86.657c0-.248.123-.455.577-.083l17.583 14.553V87.03h7.043v28.526c0 .33-.123.453-.577.082l-17.585-14.511zM205.451 93.354h-7.414V87.03h22.321v6.324h-7.412v21.788h-7.495V93.354zM225.801 87.03h19.644v6.324h-12.15v4.63h10.13v5.995h-10.13v4.836h12.725v6.327h-20.219V87.03zM264.932 96.412 258.1 92.27l2.964 7.44-5.71 4.925 7.586-.675 2.954 7.169 1.758-7.566 7.754-.54-6.568-4.091 1.894-7.405-5.8 4.886zM77.171 96.412 70.34 92.27l2.964 7.44-5.71 4.925 7.586-.675 2.954 7.169 1.758-7.566 7.754-.54-6.568-4.091 1.894-7.405-5.8 4.886z"/>
    </g>
    <defs>
        <clipPath id="nwvawvlb2a">
            <path fill="#fff" d="M0 0h343v171H0z"/>
        </clipPath>
    </defs>
</svg>
