<svg width="15" height="13" viewBox="0 0 15 13" fill="none" xmlns="http://www.w3.org/2000/svg">
    <path d="M15.001 1.443a6.143 6.143 0 0 1-1.768.485A3.083 3.083 0 0 0 14.586.225a6.172 6.172 0 0 1-1.954.747 3.078 3.078 0 0 0-5.244 2.806A8.737 8.737 0 0 1 1.044.563 3.07 3.07 0 0 0 .628 2.11c0 1.068.543 2.01 1.369 2.561a3.071 3.071 0 0 1-1.394-.384v.038a3.078 3.078 0 0 0 2.469 3.018 3.079 3.079 0 0 1-1.39.053 3.081 3.081 0 0 0 2.875 2.137A6.173 6.173 0 0 1 0 10.808a8.713 8.713 0 0 0 4.718 1.382c5.66 0 8.755-4.69 8.755-8.756 0-.133-.003-.266-.008-.398A6.263 6.263 0 0 0 15 1.443z" fill="#C01FC9"/>
</svg>
