<?xml version="1.0" standalone="no"?>
<!DOCTYPE svg PUBLIC "-//W3C//DTD SVG 1.1//EN" "http://www.w3.org/Graphics/SVG/1.1/DTD/svg11.dtd" >
<svg xmlns="http://www.w3.org/2000/svg" xmlns:xlink="http://www.w3.org/1999/xlink" version="1.1">
<metadata>
Created by FontForge 20190801 at Tue Apr 26 15:26:42 2011
 By www-data
Copyright (C) 2011 Markanna Studios Inc.www.SweetFonts.com
</metadata>
<defs>
<font id="SweetSansProBold" horiz-adv-x="496" >
  <font-face 
    font-family="SweetSansProBold"
    font-weight="700"
    font-stretch="normal"
    units-per-em="1000"
    panose-1="2 0 0 0 0 0 0 0 0 0"
    ascent="770"
    descent="-230"
    x-height="488"
    cap-height="653"
    bbox="-134 -307 1558 1097"
    underline-thickness="56"
    underline-position="-240"
    unicode-range="U+000D-FB04"
  />
<missing-glyph horiz-adv-x="579" 
d="M0 0v653h579v-653h-579zM289 252l-142 -160h284zM147 561l142 -160l142 160h-284zM355 326l122 -136v273zM223 326l-121 137v-273z" />
    <glyph glyph-name="f_f" unicode="ff" horiz-adv-x="714" 
d="M586 565v-77h120v-99h-120v-389h-133v389h-203v-389h-133v389h-84v99h84v77q0 76 46.5 111t111.5 35q69 0 103 -17l-14 -102q-33 11 -68 11q-21 0 -33.5 -10t-12.5 -28v-77h203v77q0 76 46.5 111t111.5 35q69 0 103 -17l-14 -102q-33 11 -68 11q-21 0 -33.5 -10
t-12.5 -28z" />
    <glyph glyph-name="f_i" unicode="fi" horiz-adv-x="666" 
d="M33 488h84v77q0 76 46.5 111t111.5 35q69 0 103 -17l-14 -102q-33 11 -68 11q-21 0 -33.5 -10t-12.5 -28v-77h120v-99h-120v-389h-133v389h-84v99zM590 0h-134v488h134v-488zM443 636q0 30 23 51.5t56 21.5t57 -21.5t24 -51.5q0 -29 -23.5 -50t-57.5 -21q-33 0 -56 20.5
t-23 50.5z" />
    <glyph glyph-name="f_l" unicode="fl" horiz-adv-x="672" 
d="M33 488h84v77q0 76 46.5 111t111.5 35q69 0 103 -17l-14 -102q-33 11 -68 11q-21 0 -33.5 -10t-12.5 -28v-77h120v-99h-120v-389h-133v389h-84v99zM592 0h-133v700h133v-700z" />
    <glyph glyph-name="f_f_i" unicode="ffi" horiz-adv-x="1002" 
d="M453 0v389h-203v-389h-133v389h-84v99h84v77q0 76 46.5 111t111.5 35q69 0 103 -17l-14 -102q-33 11 -68 11q-21 0 -33.5 -10t-12.5 -28v-77h203v77q0 76 46.5 111t111.5 35q69 0 103 -17l-14 -102q-33 11 -68 11q-21 0 -33.5 -10t-12.5 -28v-77h120v-99h-120v-389h-133z
M792 0v488h134v-488h-134zM858 565q-33 0 -56 20.5t-23 50.5t23 51.5t56 21.5t57 -21.5t24 -51.5q0 -29 -23.5 -50t-57.5 -21z" />
    <glyph glyph-name="f_f_l" unicode="ffl" horiz-adv-x="1008" 
d="M453 0v389h-203v-389h-133v389h-84v99h84v77q0 76 46.5 111t111.5 35q69 0 103 -17l-14 -102q-33 11 -68 11q-21 0 -33.5 -10t-12.5 -28v-77h203v77q0 76 46.5 111t111.5 35q69 0 103 -17l-14 -102q-33 11 -68 11q-21 0 -33.5 -10t-12.5 -28v-77h120v-99h-120v-389h-133z
M795 0v700h133v-700h-133z" />
    <glyph glyph-name="f_j" unicode="fj" horiz-adv-x="666" 
d="M33 488h84v77q0 76 46.5 111t111.5 35q69 0 103 -17l-14 -102q-33 11 -68 11q-21 0 -33.5 -10t-12.5 -28v-77h120v-99h-120v-389h-133v389h-84v99zM401 -228l-37 99q21 5 33.5 9.5t28 13.5t23 24.5t7.5 37.5v532h134v-532q0 -64 -31 -107.5t-72 -60t-86 -16.5zM443 636
q0 30 23 51.5t56 21.5t57 -21.5t24 -51.5q0 -29 -23.5 -50t-57.5 -21q-33 0 -56 20.5t-23 50.5z" />
    <glyph glyph-name="f_f_j" unicode="ffj" horiz-adv-x="1002" 
d="M453 0v389h-203v-389h-133v389h-84v99h84v77q0 76 46.5 111t111.5 35q69 0 103 -17l-14 -102q-33 11 -68 11q-21 0 -33.5 -10t-12.5 -28v-77h203v77q0 76 46.5 111t111.5 35q69 0 103 -17l-14 -102q-33 11 -68 11q-21 0 -33.5 -10t-12.5 -28v-77h120v-99h-120v-389h-133z
M737 -228l-37 99q21 5 33.5 9.5t28 13.5t23 24.5t7.5 37.5v532h134v-532q0 -64 -31 -107.5t-72 -60t-86 -16.5zM859 565q-34 0 -57 20.5t-23 50.5t23 51.5t57 21.5q33 0 56.5 -21.5t23.5 -51.5q0 -29 -23 -50t-57 -21z" />
    <glyph glyph-name="f_t" unicode="ft" horiz-adv-x="744" 
d="M250 565v-77h207v138h134v-138h120v-99h-120v-253q0 -43 52 -43q21 0 63 7l10 -100q-25 -19 -106 -19q-63 0 -108 35t-45 110v263h-207v-389h-133v389h-84v99h84v77q0 76 46.5 111t111.5 35q69 0 103 -17l-14 -102q-33 11 -68 11q-21 0 -33.5 -10t-12.5 -28z" />
    <glyph glyph-name="f_f_t" unicode="fft" horiz-adv-x="1080" 
d="M33 389v99h84v77q0 76 46.5 111t111.5 35q69 0 103 -17l-14 -102q-33 11 -68 11q-21 0 -33.5 -10t-12.5 -28v-77h203v77q0 76 46.5 111t111.5 35q69 0 103 -17l-14 -102q-33 11 -68 11q-21 0 -33.5 -10t-12.5 -28v-77h207v138h134v-138h120v-99h-120v-253q0 -43 52 -43
q21 0 63 7l10 -100q-25 -19 -106 -19q-63 0 -108 35t-45 110v263h-207v-389h-133v389h-203v-389h-133v389h-84z" />
    <glyph glyph-name="t_t" unicode="tt" horiz-adv-x="773" 
d="M22 389v99h85v138h133v-138h237v138h133v-138h120v-99h-120v-253q0 -43 53 -43q22 0 62 7l10 -100q-24 -19 -106 -19q-62 0 -107 35t-45 110v263h-237v-253q0 -43 53 -43q22 0 62 7l10 -100q-24 -19 -106 -19q-62 0 -107 35t-45 110v263h-85z" />
    <glyph glyph-name=".notdef" horiz-adv-x="579" 
d="M0 0v653h579v-653h-579zM289 252l-142 -160h284zM147 561l142 -160l142 160h-284zM355 326l122 -136v273zM223 326l-121 137v-273z" />
    <glyph glyph-name=".null" horiz-adv-x="239" 
 />
    <glyph glyph-name=".null" horiz-adv-x="239" 
 />
    <glyph glyph-name="nonmarkingreturn" horiz-adv-x="333" 
 />
    <glyph glyph-name="CR" unicode="&#xd;" horiz-adv-x="239" 
 />
    <glyph glyph-name="space" unicode=" " horiz-adv-x="225" 
 />
    <glyph glyph-name="exclam" unicode="!" horiz-adv-x="323" 
d="M68 69q0 35 27 60t66 25t66.5 -25t27.5 -60t-27.5 -59.5t-66.5 -24.5q-40 0 -66.5 24.5t-26.5 59.5zM207 218h-92l-30 262v173h152v-173z" />
    <glyph glyph-name="quotedbl" unicode="&#x22;" horiz-adv-x="523" 
d="M174 357h-91l-25 175v121h142v-121zM439 357h-91l-25 175v121h142v-121z" />
    <glyph glyph-name="numbersign" unicode="#" horiz-adv-x="884" 
d="M584 617h90l-30 -163h192v-100h-211l-29 -159h182v-102h-200l-35 -190h-90l35 190h-162l-35 -190h-90l35 190h-189v102h207l29 159h-179v100h198l30 163h90l-30 -163h162zM373 354l-29 -159h162l29 159h-162z" />
    <glyph glyph-name="dollar" unicode="$" horiz-adv-x="716" 
d="M267 -129l13 119q-129 22 -237 103l77 90q94 -67 179 -86l16 143q-41 4 -71 9t-64 17t-55.5 29t-35.5 45t-14 65q0 50 22.5 87t61 56.5t82 29t92.5 9.5h16l9 82h94l-12 -92q113 -19 199 -69l-77 -92q-55 37 -139 53l-13 -117q39 -3 69.5 -8t66 -17.5t58.5 -30.5t38.5 -49
t15.5 -71q0 -99 -76.5 -147t-199.5 -48h-9l-12 -110h-94zM523 163q0 33 -30 48.5t-96 21.5l-16 -145h4q63 0 100.5 19.5t37.5 55.5zM211 414q0 -46 117 -56l13 121h-11q-56 0 -87.5 -17t-31.5 -48z" />
    <glyph glyph-name="percent" unicode="%" horiz-adv-x="1044" 
d="M47 444q0 72 59 124t143 52q83 0 143.5 -52t60.5 -124q0 -73 -60.5 -125.5t-143.5 -52.5q-84 0 -143 52t-59 126zM760 605l-360 -605h-114l361 605h113zM166 444q0 -33 24.5 -56.5t58.5 -23.5q35 0 60 23.5t25 56.5q0 32 -25 55t-60 23q-34 0 -58.5 -23t-24.5 -55z
M593 162q0 72 59 124.5t142 52.5t144 -52.5t61 -124.5q0 -73 -60.5 -125t-144.5 -52t-142.5 51.5t-58.5 125.5zM712 162q0 -32 24 -55.5t58 -23.5q35 0 60.5 23.5t25.5 55.5t-25.5 55.5t-60.5 23.5q-34 0 -58 -23.5t-24 -55.5z" />
    <glyph glyph-name="ampersand" unicode="&#x26;" horiz-adv-x="785" 
d="M587 584l-60 -107q-67 37 -127 37q-31 0 -48 -14t-17 -33q0 -10 5.5 -22.5t12 -23t18 -24t18.5 -20.5t18.5 -18t12.5 -12l122 -127q57 61 109 143l106 -52q-63 -98 -136 -172l134 -139h-177l-55 56q-103 -71 -220 -71q-58 0 -109.5 19.5t-88.5 66t-37 113.5
q0 133 154 192q-29 43 -29 89q0 76 61 122t147 46t186 -49zM442 139l-156 161q-77 -38 -77 -106q0 -48 34.5 -70.5t78.5 -22.5q56 0 120 38z" />
    <glyph glyph-name="quotesingle" unicode="'" horiz-adv-x="259" 
d="M175 357h-91l-26 175v121h142v-121z" />
    <glyph glyph-name="parenleft" unicode="(" horiz-adv-x="402" 
d="M314 696l67 -82q-92 -52 -147 -146.5t-55 -204.5t55 -202.5t147 -145.5l-67 -82q-131 68 -204 180.5t-73 249.5t73 251t204 182z" />
    <glyph glyph-name="parenright" unicode=")" horiz-adv-x="402" 
d="M21 614l67 82q131 -68 204 -182t73 -251t-73 -249.5t-204 -180.5l-67 82q92 53 147 145.5t55 202.5t-55 204.5t-147 146.5z" />
    <glyph glyph-name="asterisk" unicode="*" horiz-adv-x="582" 
d="M187 241l-74 55l94 138l-159 59l28 85l160 -47l7 169h97l8 -168l159 46l28 -84l-159 -60l93 -138l-73 -55l-105 129z" />
    <glyph glyph-name="plus" unicode="+" horiz-adv-x="753" 
d="M75 208v114h226v188h131v-188h224v-114h-224v-188h-131v188h-226z" />
    <glyph glyph-name="comma" unicode="," horiz-adv-x="316" 
d="M75 -192l-36 76q43 12 83.5 44t40.5 70v8q-20 -5 -29 -5q-32 0 -55 21t-23 52q0 34 27 57t66 23q47 0 81 -36.5t34 -93.5q0 -45 -17.5 -83t-47.5 -63.5t-60 -42t-64 -27.5z" />
    <glyph glyph-name="hyphen" unicode="-" horiz-adv-x="404" 
d="M62 198v124h279v-124h-279z" />
    <glyph glyph-name="period" unicode="." horiz-adv-x="298" 
d="M56 69q0 35 26.5 60t65.5 25t66.5 -25t27.5 -60t-27 -59.5t-67 -24.5q-39 0 -65.5 24.5t-26.5 59.5z" />
    <glyph glyph-name="slash" unicode="/" horiz-adv-x="557" 
d="M516 653l-343 -772h-135l344 772h134z" />
    <glyph glyph-name="zero" unicode="0" horiz-adv-x="721" 
d="M46 284q0 126 92 214.5t222 88.5q129 0 222 -88.5t93 -214.5q0 -125 -93 -214t-222 -89t-221.5 88.5t-92.5 214.5zM182 284q0 -76 52 -131t126 -55q73 0 126 55.5t53 130.5q0 76 -53 130.5t-126 54.5q-74 0 -126 -54t-52 -131z" />
    <glyph glyph-name="one" unicode="1" horiz-adv-x="408" 
d="M46 382l-29 110l174 76h123v-568h-137v439z" />
    <glyph glyph-name="two" unicode="2" horiz-adv-x="605" 
d="M55 0v91q0 97 68.5 154.5t186.5 89.5q106 29 106 82q0 30 -28 43.5t-67 13.5q-56 0 -99.5 -22t-94.5 -65l-75 90q47 36 76.5 55.5t80.5 37t108 17.5q97 0 166 -42.5t69 -126.5q0 -27 -8 -50.5t-19 -40t-32.5 -32.5t-36.5 -25t-44 -20.5t-42.5 -16t-43.5 -13.5
q-68 -22 -100.5 -46t-32.5 -60v-6h348v-108h-486z" />
    <glyph glyph-name="three" unicode="3" horiz-adv-x="669" 
d="M278 245v104h91q32 0 52.5 16t20.5 41q0 34 -30.5 51t-69.5 17q-94 0 -194 -89l-77 84q136 118 273 118q55 0 105.5 -15t90 -54t39.5 -95q0 -33 -19.5 -61.5t-45.5 -43.5q107 -38 107 -137q0 -93 -84.5 -147t-212.5 -54q-174 0 -300 120l76 90q102 -97 224 -97
q69 0 114.5 25.5t45.5 69.5q0 32 -28.5 44.5t-63.5 12.5h-114z" />
    <glyph glyph-name="four" unicode="4" horiz-adv-x="704" 
d="M667 221v-103h-104v-118h-137v118h-399v82l413 368h123v-347h104zM220 225v-4h206v183h-9q-15 -13 -87.5 -79.5t-109.5 -99.5z" />
    <glyph glyph-name="five" unicode="5" horiz-adv-x="658" 
d="M324 -20q-149 0 -293 86l61 95q110 -68 232 -68q63 0 107.5 25.5t44.5 72.5q0 39 -33.5 59.5t-82.5 20.5q-89 0 -190 -55l-80 57v295h463v-113h-340v-133q41 28 79 42.5t89 14.5q96 0 166 -48.5t70 -138.5q0 -55 -25.5 -97t-68 -66.5t-93 -36.5t-106.5 -12z" />
    <glyph glyph-name="six" unicode="6" horiz-adv-x="671" 
d="M599 536l-61 -95q-71 34 -157 34q-82 0 -140.5 -49t-63.5 -134q104 81 218 81q109 0 171 -54.5t62 -127.5q0 -89 -74.5 -149.5t-189.5 -60.5q-130 0 -223 78t-93 215q0 142 97.5 227.5t233.5 85.5q104 0 220 -51zM376 269q-88 0 -188 -58q19 -56 66.5 -87t108.5 -31
q55 0 92 29.5t37 68.5q0 31 -29 54.5t-87 23.5z" />
    <glyph glyph-name="seven" unicode="7" horiz-adv-x="609" 
d="M41 450v118h528v-108l-304 -460h-172l312 450h-364z" />
    <glyph glyph-name="eight" unicode="8" horiz-adv-x="679" 
d="M340 -21q-118 0 -204.5 51.5t-86.5 136.5q0 55 34 93t88 54q-91 31 -91 114q0 74 81.5 117t179.5 43q60 0 117 -16.5t99 -55t42 -91.5q0 -85 -91 -111q54 -16 88 -54t34 -93q0 -85 -86.5 -136.5t-203.5 -51.5zM340 91q58 0 101.5 23t43.5 62q0 38 -45 59.5t-100 21.5
t-100.5 -21.5t-45.5 -59.5t44 -61.5t102 -23.5zM340 356q113 0 113 60q0 33 -35 51t-78 18t-78.5 -18t-35.5 -51q0 -60 114 -60z" />
    <glyph glyph-name="nine" unicode="9" horiz-adv-x="669" 
d="M70 32l60 94q73 -33 157 -33q82 0 140 48.5t63 132.5q-103 -80 -217 -80q-109 0 -171 55t-62 128q0 89 75 149.5t190 60.5q129 0 222 -78t93 -215q0 -142 -97 -227.5t-233 -85.5q-104 0 -220 51zM293 298q87 0 187 58q-19 56 -67 87t-108 31q-55 0 -92 -29.5t-37 -67.5
q0 -31 29 -55t88 -24z" />
    <glyph glyph-name="colon" unicode=":" horiz-adv-x="333" 
d="M74 69q0 35 26.5 59.5t65.5 24.5t66.5 -24.5t27.5 -59.5t-27 -59.5t-67 -24.5q-39 0 -65.5 24.5t-26.5 59.5zM74 410q0 35 26.5 60t65.5 25t66.5 -25t27.5 -60t-27 -59.5t-67 -24.5q-39 0 -65.5 24.5t-26.5 59.5z" />
    <glyph glyph-name="semicolon" unicode=";" horiz-adv-x="336" 
d="M91 -192l-36 76q43 12 83.5 44t40.5 70v8q-20 -5 -29 -5q-33 0 -55.5 21t-22.5 52q0 34 26.5 57t65.5 23q47 0 81.5 -36.5t34.5 -93.5q0 -45 -17.5 -83t-47.5 -63.5t-60 -42t-64 -27.5zM74 410q0 35 26.5 60t65.5 25t66.5 -25t27.5 -60t-27 -59.5t-67 -24.5
q-39 0 -65.5 24.5t-26.5 59.5z" />
    <glyph glyph-name="less" unicode="&#x3c;" horiz-adv-x="753" 
d="M656 509v-129l-388 -109v-12l388 -109v-128l-581 187v113z" />
    <glyph glyph-name="equal" unicode="=" horiz-adv-x="753" 
d="M75 328v115h581v-115h-581zM75 87v115h581v-115h-581z" />
    <glyph glyph-name="greater" unicode="&#x3e;" horiz-adv-x="753" 
d="M75 380v129l581 -187v-113l-581 -187v128l389 109v12z" />
    <glyph glyph-name="question" unicode="?" horiz-adv-x="574" 
d="M126 474l-85 77q58 59 116.5 90t150.5 31q93 0 153.5 -39t60.5 -123q0 -50 -23.5 -84.5t-65.5 -63.5q-10 -8 -52 -35t-59.5 -50t-19.5 -59h-130q-1 37 8.5 67t31 53t39.5 38t49 35.5t44 30.5q47 34 47 64q0 28 -25 43.5t-65 15.5q-53 0 -93 -23t-82 -68zM162 69
q0 35 27 60t66 25t66.5 -25t27.5 -60t-27.5 -59.5t-66.5 -24.5t-66 24.5t-27 59.5z" />
    <glyph glyph-name="at" unicode="@" horiz-adv-x="1035" 
d="M651 487h124l-84 -256q-9 -27 -9 -40q0 -39 41 -39q55 0 103.5 59.5t48.5 146.5q0 111 -85 182.5t-222 71.5q-166 0 -285 -101.5t-119 -262.5q0 -79 31.5 -142.5t83.5 -102t113.5 -58.5t126.5 -20q66 0 140 19t124 44l32 -83q-51 -29 -135.5 -52t-165.5 -23
q-65 0 -130 16t-126 50t-108 82t-75 117.5t-28 151.5q0 135 73.5 241.5t191.5 162.5t256 56q184 0 299 -98t115 -245q0 -90 -45.5 -163.5t-111.5 -111t-133 -37.5q-47 0 -81 21t-39 66q-70 -86 -152 -86q-59 0 -101 44t-42 128q0 113 75.5 195.5t158.5 82.5q39 0 69.5 -24
t47.5 -63zM462 168q51 0 102 55l30 90q-8 32 -28.5 53.5t-45.5 21.5q-37 0 -74 -41.5t-37 -105.5q0 -73 53 -73z" />
    <glyph glyph-name="A" unicode="A" horiz-adv-x="753" 
d="M12 0l303 653h123l303 -653h-157l-60 138h-302l-59 -138h-151zM370 482l-99 -231h204l-99 231h-6z" />
    <glyph glyph-name="B" unicode="B" horiz-adv-x="806" 
d="M506 0h-403v653h391q115 0 175 -63q41 -43 41 -98q0 -41 -22.5 -76.5t-59.5 -54.5q56 -19 86.5 -61.5t30.5 -100.5q0 -80 -61 -140q-62 -59 -178 -59zM501 283h-254v-165h254q45 0 72 25q23 25 23 57q0 30 -23 55q-28 28 -72 28zM477 534h-230v-143h230q42 0 63 21
q22 22 22 53q0 27 -20 47q-21 22 -65 22z" />
    <glyph glyph-name="C" unicode="C" horiz-adv-x="766" 
d="M649 207l91 -93q-144 -134 -332 -134q-160 0 -260 100t-100 247q0 144 100 245t255 101q88 0 172 -31t144 -83l-90 -94q-45 39 -103 61.5t-111 22.5q-97 0 -157 -64.5t-60 -158.5q0 -95 61.5 -159t160.5 -64q125 0 229 104z" />
    <glyph glyph-name="D" unicode="D" horiz-adv-x="806" 
d="M410 0h-307v653h307q165 0 256 -93q88 -91 88 -233q0 -149 -94 -241q-91 -86 -250 -86zM246 123h159q53 0 82.5 11t57.5 36q60 60 60 156q0 94 -55 151q-27 27 -59 39.5t-86 12.5h-159v-406z" />
    <glyph glyph-name="E" unicode="E" horiz-adv-x="711" 
d="M487 402v-123h-241v-156h424v-123h-567v653h544v-124h-401v-127h241z" />
    <glyph glyph-name="F" unicode="F" horiz-adv-x="663" 
d="M246 0h-143v653h539v-124h-396v-132h241v-123h-241v-274z" />
    <glyph glyph-name="G" unicode="G" horiz-adv-x="801" 
d="M717 556l-95 -89q-41 38 -101 60t-113 22q-92 0 -152 -65t-60 -158q0 -91 59 -156.5t163 -65.5q102 0 166 44v110h-197v118h331v-293q-63 -47 -146 -74.5t-160 -27.5q-156 0 -260.5 100.5t-104.5 245.5q0 144 104.5 245t255.5 101q165 0 310 -117z" />
    <glyph glyph-name="H" unicode="H" horiz-adv-x="802" 
d="M247 0h-144v653h144v-242h308v242h144v-653h-144v290h-308v-290z" />
    <glyph glyph-name="I" unicode="I" horiz-adv-x="349" 
d="M246 0h-143v653h143v-653z" />
    <glyph glyph-name="J" unicode="J" horiz-adv-x="650" 
d="M415 653h144v-417q0 -120 -77.5 -187.5t-202.5 -67.5q-188 0 -273 179l121 63q52 -119 151 -119q62 0 99.5 34.5t37.5 97.5v417z" />
    <glyph glyph-name="K" unicode="K" horiz-adv-x="772" 
d="M247 653v-284l299 284h180l-272 -255l321 -398h-181l-242 304l-105 -99v-205h-144v653h144z" />
    <glyph glyph-name="L" unicode="L" horiz-adv-x="649" 
d="M103 653h143v-530h384v-123h-527v653z" />
    <glyph glyph-name="M" unicode="M" horiz-adv-x="905" 
d="M802 0h-144v379h-5l-183 -305h-40l-183 305h-5v-379h-139v653h137l214 -358h2l213 358h133v-653z" />
    <glyph glyph-name="N" unicode="N" horiz-adv-x="807" 
d="M560 653h144v-653h-124l-332 404h-1v-404h-144v653h123l333 -405h1v405z" />
    <glyph glyph-name="O" unicode="O" horiz-adv-x="835" 
d="M47 328q0 143 107 244t262 101t264 -101t109 -244q0 -145 -109 -246.5t-264 -101.5t-262 101t-107 247zM197 328q0 -93 63.5 -159t155.5 -66q93 0 158 66t65 159q0 91 -65 156t-158 65q-92 0 -155.5 -65t-63.5 -156z" />
    <glyph glyph-name="P" unicode="P" horiz-adv-x="744" 
d="M246 0h-143v653h362q130 0 197 -72q53 -59 53 -134q0 -84 -62 -144q-66 -63 -188 -63h-219v-240zM470 532h-224v-171h224q49 0 75 25q26 26 26 60q0 33 -24 59q-26 27 -77 27z" />
    <glyph glyph-name="Q" unicode="Q" horiz-adv-x="835" 
d="M47 328q0 143 107 244t262 101t264 -101t109 -244q0 -86 -41 -160t-112 -122l81 -122l-132 -42l-73 110q-46 -12 -96 -12q-155 0 -262 101t-107 247zM363 217l131 43l68 -103q77 69 77 171q0 91 -65 156t-158 65q-92 0 -155.5 -65t-63.5 -156q0 -93 63.5 -159t155.5 -66
q14 0 22 1z" />
    <glyph glyph-name="R" unicode="R" horiz-adv-x="780" 
d="M246 0h-143v653h362q128 0 196 -71q54 -57 54 -135q0 -62 -35.5 -109.5t-96.5 -74.5l153 -263h-164l-132 240h-194v-240zM470 532h-224v-171h234q38 0 64.5 24.5t26.5 61.5q0 34 -23 57q-26 28 -78 28z" />
    <glyph glyph-name="S" unicode="S" horiz-adv-x="730" 
d="M647 585l-82 -100q-94 70 -229 70q-53 0 -88 -20t-35 -60q0 -13 5.5 -23.5t18.5 -17.5t24 -11.5t34.5 -7.5t36 -4.5t40.5 -3.5q8 -1 12 -1q34 -2 55 -4t57 -8t59 -14t51 -23.5t44 -35t27.5 -50t11.5 -67.5q0 -114 -82 -169t-212 -55q-201 0 -359 129l81 98
q138 -110 280 -110q65 0 107 24.5t42 68.5t-40.5 61t-124.5 24q-38 2 -63 4.5t-60.5 8.5t-59.5 14t-50.5 22t-41.5 33t-25.5 46.5t-10.5 62.5q0 57 24.5 99t65 64.5t85.5 33t95 10.5q93 0 174.5 -27t132.5 -61z" />
    <glyph glyph-name="T" unicode="T" horiz-adv-x="668" 
d="M26 529v124h616v-124h-236v-529h-143v529h-237z" />
    <glyph glyph-name="U" unicode="U" horiz-adv-x="778" 
d="M543 653h144v-418q0 -120 -83 -187.5t-216 -67.5q-130 0 -213.5 68t-83.5 187v418h144v-418q0 -62 43.5 -97t109.5 -35q69 0 112 34.5t43 97.5v418z" />
    <glyph glyph-name="V" unicode="V" horiz-adv-x="748" 
d="M583 653h156l-303 -653h-124l-303 653h162l203 -474h6z" />
    <glyph glyph-name="W" unicode="W" horiz-adv-x="999" 
d="M29 653h156l125 -429h6l134 429h105l133 -429h6l126 429h150l-209 -653h-136l-123 388h-6l-122 -388h-136z" />
    <glyph glyph-name="X" unicode="X" horiz-adv-x="751" 
d="M549 653h173l-258 -313l270 -340h-180l-181 237l-189 -237h-174l277 335l-250 318h180l162 -215z" />
    <glyph glyph-name="Y" unicode="Y" horiz-adv-x="670" 
d="M498 653h168l-259 -355v-298h-144v298l-260 355h178l159 -227z" />
    <glyph glyph-name="Z" unicode="Z" horiz-adv-x="682" 
d="M625 123v-123h-578v84l370 445h-351v124h559v-85l-370 -445h370z" />
    <glyph glyph-name="bracketleft" unicode="[" horiz-adv-x="382" 
d="M343 -52v-102h-262v843h262v-102h-130v-639h130z" />
    <glyph glyph-name="backslash" unicode="\" horiz-adv-x="560" 
d="M395 -119l-344 772h135l343 -772h-134z" />
    <glyph glyph-name="bracketright" unicode="]" horiz-adv-x="382" 
d="M39 689h262v-843h-262v102h130v639h-130v102z" />
    <glyph glyph-name="asciicircum" unicode="^" horiz-adv-x="753" 
d="M229 208h-148l223 405h128l219 -405h-147l-132 255h-8z" />
    <glyph glyph-name="underscore" unicode="_" horiz-adv-x="603" 
d="M-6 -207v95h615v-95h-615z" />
    <glyph glyph-name="grave" unicode="`" 
d="M103 698h134l90 -146h-116z" />
    <glyph glyph-name="a" unicode="a" horiz-adv-x="598" 
d="M113 353l-41 99q104 52 228 52q95 0 160 -36t65 -112v-261q0 -52 14 -95h-132q-5 16 -12 56q-33 -32 -69.5 -50t-94.5 -18q-87 0 -140 47t-53 119q0 70 57.5 116t156.5 46q89 0 140 -40v49q0 37 -28 55.5t-75 18.5q-43 0 -93.5 -14.5t-82.5 -31.5zM260 86q74 0 132 54v47
q-41 35 -113 35q-56 0 -82 -19t-26 -49q0 -31 23.5 -49.5t65.5 -18.5z" />
    <glyph glyph-name="b" unicode="b" horiz-adv-x="632" 
d="M193 0h-126q11 57 11 139v561h134v-261q65 65 138 65q99 0 168 -72t69 -186q0 -115 -68.5 -187.5t-168.5 -72.5q-87 0 -151 72q-2 -36 -6 -58zM330 391q-61 0 -118 -55v-184q51 -54 118 -54q48 0 80.5 41t32.5 107t-32 105.5t-81 39.5z" />
    <glyph glyph-name="c" unicode="c" horiz-adv-x="558" 
d="M524 421l-83 -88q-59 58 -125 58q-55 0 -92.5 -40t-37.5 -105t39.5 -107t95.5 -42q63 0 131 66l82 -82q-26 -31 -86.5 -63.5t-141.5 -32.5q-109 0 -185.5 73t-76.5 188t75.5 186.5t186.5 71.5q125 0 218 -83z" />
    <glyph glyph-name="d" unicode="d" horiz-adv-x="632" 
d="M565 0h-126q-4 22 -6 58q-64 -72 -151 -72q-100 0 -168.5 72.5t-68.5 187.5q0 114 69 186t168 72q73 0 138 -60v256h134v-561q0 -82 11 -139zM302 391q-49 0 -81 -39.5t-32 -105.5t32.5 -107t80.5 -41q67 0 118 54v184q-57 55 -118 55z" />
    <glyph glyph-name="e" unicode="e" horiz-adv-x="590" 
d="M466 142l63 -85q-42 -32 -104 -52t-126 -20q-119 0 -187 73.5t-68 181.5q0 112 73.5 188t185.5 76q100 0 172.5 -63.5t72.5 -188.5q0 -18 -2 -41h-371q9 -54 45 -86.5t96 -32.5q83 0 150 50zM302 402q-96 0 -124 -102h235q-1 48 -34.5 75t-76.5 27z" />
    <glyph glyph-name="f" unicode="f" horiz-adv-x="378" 
d="M33 488h84v77q0 76 46.5 111t111.5 35q69 0 103 -17l-14 -102q-33 11 -68 11q-21 0 -33.5 -10t-12.5 -28v-77h120v-99h-120v-389h-133v389h-84v99z" />
    <glyph glyph-name="g" unicode="g" horiz-adv-x="632" 
d="M420 -28v83q-62 -64 -138 -64q-100 0 -168.5 70.5t-68.5 181.5q0 117 68 189t169 72q44 0 84.5 -23.5t66.5 -53.5q0 31 7 63h124q-11 -58 -11 -140v-373q0 -88 -66 -146t-186 -58q-144 0 -232 79l70 77q69 -51 162 -51q56 0 87.5 26.5t31.5 67.5zM301 103q60 0 119 54
v179q-55 55 -119 55q-48 0 -80.5 -40.5t-32.5 -107.5q0 -62 32.5 -101t80.5 -39z" />
    <glyph glyph-name="h" unicode="h" horiz-adv-x="608" 
d="M210 0h-133v700h133v-263q67 67 141 67q83 0 134.5 -49.5t51.5 -126.5v-328h-134v323q0 28 -23.5 48t-58.5 20q-63 0 -111 -63v-328z" />
    <glyph glyph-name="i" unicode="i" horiz-adv-x="287" 
d="M210 0h-133v488h133v-488zM64 636q0 30 23 51.5t56 21.5t56.5 -21.5t23.5 -51.5q0 -29 -23 -50t-57 -21q-33 0 -56 20.5t-23 50.5z" />
    <glyph glyph-name="j" unicode="j" horiz-adv-x="287" 
d="M21 -228l-36 99q21 5 33.5 9t28 13.5t23 25t7.5 37.5v532h133v-532q0 -93 -58 -138.5t-131 -45.5zM63 636q0 30 23 51.5t57 21.5q33 0 56.5 -21.5t23.5 -51.5q0 -29 -23 -50t-57 -21t-57 20.5t-23 50.5z" />
    <glyph glyph-name="k" unicode="k" horiz-adv-x="584" 
d="M388 488h175l-191 -178l211 -310h-165l-141 221l-66 -61v-160h-134v700h134v-389z" />
    <glyph glyph-name="l" unicode="l" horiz-adv-x="292" 
d="M213 0h-134v700h134v-700z" />
    <glyph glyph-name="m" unicode="m" horiz-adv-x="899" 
d="M520 328v-328h-135v323q0 28 -21.5 48t-54.5 20q-51 0 -98 -63v-328h-133v350q0 69 -14 138h123q6 -27 9 -64q72 80 153 80q47 0 84.5 -23t58.5 -63q64 86 164 86q73 0 122.5 -50t49.5 -126v-328h-134v323q0 28 -22.5 48t-54.5 20q-54 0 -97 -63z" />
    <glyph glyph-name="n" unicode="n" horiz-adv-x="610" 
d="M196 424q67 80 164 80q75 0 126.5 -50t51.5 -126v-328h-134v323q0 28 -23 48t-58 20q-55 0 -112 -63v-328h-133v349q0 70 -14 139h122q8 -36 10 -64z" />
    <glyph glyph-name="o" unicode="o" horiz-adv-x="620" 
d="M44 246q0 110 74 184t191 74q118 0 192.5 -74t74.5 -184q0 -111 -75 -186t-192 -75t-191 75t-74 186zM181 246q0 -63 34.5 -107t93.5 -44q60 0 95.5 44t35.5 107q0 62 -35.5 104.5t-95.5 42.5q-59 0 -93.5 -42.5t-34.5 -104.5z" />
    <glyph glyph-name="p" unicode="p" horiz-adv-x="632" 
d="M67 488h126q3 -18 5 -61q64 77 152 77q100 0 168.5 -72t68.5 -188q0 -113 -69 -185.5t-168 -72.5q-79 0 -139 63v-256h-133v557q0 80 -11 138zM330 98q48 0 80.5 41t32.5 105q0 66 -32.5 106.5t-80.5 40.5q-66 0 -118 -55v-185q58 -53 118 -53z" />
    <glyph glyph-name="q" unicode="q" horiz-adv-x="632" 
d="M439 488h126q-11 -58 -11 -138v-557h-133v256q-60 -63 -139 -63q-99 0 -168 72.5t-69 185.5q0 116 68.5 188t168.5 72q88 0 152 -77q2 43 5 61zM302 98q60 0 118 53v185q-52 55 -118 55q-48 0 -80.5 -40.5t-32.5 -106.5q0 -64 32.5 -105t80.5 -41z" />
    <glyph glyph-name="r" unicode="r" horiz-adv-x="409" 
d="M296 376q-24 0 -41.5 -15t-42.5 -47v-314h-134v350q0 62 -14 138h122q7 -38 10 -73q26 43 55 66t73 23q49 0 75 -20l-37 -122q-35 14 -66 14z" />
    <glyph glyph-name="s" unicode="s" horiz-adv-x="557" 
d="M491 454l-47 -95q-95 44 -176 44t-81 -47q0 -12 6.5 -20.5t14.5 -13t23.5 -7.5t25 -3.5t26.5 -1.5q36 -2 59.5 -4t60 -11.5t59 -25t39.5 -45t17 -69.5q0 -84 -64.5 -128t-167.5 -44q-130 0 -248 74l47 95q107 -66 203 -66q46 0 71.5 15.5t25.5 41.5q0 16 -9 27t-27 16.5
t-31.5 7t-35.5 3.5q-36 2 -54.5 4t-50.5 7t-49.5 14.5t-36.5 24.5t-27.5 39t-8.5 56q0 85 61 124.5t147 39.5q60 0 125 -17t103 -35z" />
    <glyph glyph-name="t" unicode="t" horiz-adv-x="403" 
d="M22 389v99h85v138h133v-138h120v-99h-120v-253q0 -43 53 -43q22 0 62 7l10 -100q-24 -19 -106 -19q-62 0 -107 35t-45 110v263h-85z" />
    <glyph glyph-name="u" unicode="u" horiz-adv-x="609" 
d="M413 63q-70 -79 -164 -79q-75 0 -126.5 50t-51.5 126v328h134v-323q0 -29 22.5 -48.5t58.5 -19.5q57 0 112 63v328h133v-350q0 -73 12 -138h-124q-4 22 -6 63z" />
    <glyph glyph-name="v" unicode="v" horiz-adv-x="558" 
d="M405 488h138l-211 -488h-107l-210 488h148l115 -308h6z" />
    <glyph glyph-name="w" unicode="w" horiz-adv-x="792" 
d="M338 488h121l88 -312h6l76 312h137l-155 -488h-127l-85 299h-6l-86 -299h-126l-155 488h140l78 -312h6z" />
    <glyph glyph-name="x" unicode="x" horiz-adv-x="595" 
d="M403 488h166l-191 -238l202 -250h-165l-118 158l-116 -158h-166l202 250l-192 238h168l104 -147z" />
    <glyph glyph-name="y" unicode="y" horiz-adv-x="557" 
d="M281 197h6l129 291h137l-329 -695h-139l127 252l-198 443h149z" />
    <glyph glyph-name="z" unicode="z" horiz-adv-x="533" 
d="M482 103v-103h-440v74l255 310h-236v104h421v-75l-255 -310h255z" />
    <glyph glyph-name="braceleft" unicode="{" horiz-adv-x="403" 
d="M364 -154q-142 0 -189.5 32t-47.5 135v134q0 78 -102 78v100q42 0 72.5 23t30.5 61v111q1 104 48.5 137t187.5 33v-102q-62 0 -82.5 -12t-21.5 -51v-116q0 -49 -30 -83.5t-74 -45.5v-5q103 -16 103 -128v-139q0 -37 21 -48.5t84 -11.5v-102z" />
    <glyph glyph-name="bar" unicode="|" horiz-adv-x="346" 
d="M107 -307v1212h126v-1212h-126z" />
    <glyph glyph-name="braceright" unicode="}" horiz-adv-x="403" 
d="M38 -154v102q61 0 83 11.5t22 48.5v139q0 112 103 128v5q-44 11 -74 45.5t-30 83.5v116q-1 39 -22 51t-82 12v102q140 0 188 -33t49 -137v-111q0 -38 30.5 -61t72.5 -23v-100q-103 0 -103 -78v-134q0 -103 -47.5 -135t-189.5 -32z" />
    <glyph glyph-name="asciitilde" unicode="~" horiz-adv-x="753" 
d="M131 180l-99 64q61 68 110 101t102 33q36 0 70.5 -13.5t49 -24t37.5 -29.5q49 -41 79 -41q43 0 119 80l102 -63q-122 -139 -224 -139q-12 0 -24 1.5t-22 3.5t-20.5 6t-18 7t-17 9t-14.5 9t-13 9.5t-11 9t-10.5 8.5t-8.5 7q-48 38 -78 38q-36 0 -109 -76z" />
    <glyph glyph-name="nbspace" unicode="&#xa0;" horiz-adv-x="225" 
 />
    <glyph glyph-name="exclamdown" unicode="&#xa1;" horiz-adv-x="317" 
d="M236 411q0 -35 -27 -60t-66 -25t-66.5 25t-27.5 60t27.5 59.5t66.5 24.5q40 0 66.5 -24.5t26.5 -59.5zM97 262h92l30 -262v-173h-152v173z" />
    <glyph glyph-name="cent" unicode="&#xa2;" horiz-adv-x="611" 
d="M204 -129l28 127q-82 23 -134 85t-52 146q0 107 77.5 174t192.5 67q14 0 21 -1l16 72h94l-19 -87q67 -18 124 -62l-81 -85q-35 25 -73 39l-56 -251q69 6 135 60l81 -79q-27 -29 -89.5 -59.5t-146.5 -31.5l-25 -114h-93zM187 229q0 -81 75 -119l55 249q-57 -3 -93.5 -38
t-36.5 -92z" />
    <glyph glyph-name="sterling" unicode="&#xa3;" horiz-adv-x="710" 
d="M55 262v82h129v72q0 83 68.5 127t162.5 44q48 0 114.5 -18t123.5 -47l-60 -96q-99 48 -173 48q-38 0 -67 -19.5t-29 -55.5v-55h216v-82h-216v-50q0 -49 -19.5 -72.5t-66.5 -31.5h415v-108h-598v108h39q52 0 71 20.5t19 83.5v50h-129z" />
    <glyph glyph-name="currency" unicode="&#xa4;" horiz-adv-x="767" 
d="M93 263q0 79 42 144l-82 77l90 89l82 -77q71 46 157 46t159 -46l84 77l89 -89l-83 -77q43 -67 43 -144t-43 -144l83 -76l-89 -90l-84 77q-73 -46 -159 -46t-157 46l-82 -77l-90 90l82 76q-42 65 -42 144zM235 263q0 -65 43 -111.5t104 -46.5q62 0 106 46.5t44 111.5
t-44 111.5t-106 46.5q-61 0 -104 -46.5t-43 -111.5z" />
    <glyph glyph-name="yen" unicode="&#xa5;" horiz-adv-x="777" 
d="M59 316v73h156l-141 179h173l146 -191l144 191h164l-141 -179h159v-73h-216l-45 -58v-3h261v-72h-261v-183h-140v183h-259v72h259v3l-46 58h-213z" />
    <glyph glyph-name="brokenbar" unicode="&#xa6;" horiz-adv-x="346" 
d="M107 385v412h126v-412h-126zM107 -228v420h126v-420h-126z" />
    <glyph glyph-name="section" unicode="&#xa7;" horiz-adv-x="707" 
d="M607 99q-21 -19 -48 -33q9 -12 12 -21q10 -23 10 -50q0 -79 -69 -118.5t-158 -39.5q-115 0 -214 51l56 89q85 -38 160 -38q86 0 86 45q0 13 -8 21q-17 16 -119 27q-154 19 -219 80q-44 41 -44 98q0 63 51 114q18 18 50 35l-10 17q-11 25 -11 54q0 79 68.5 118.5
t159.5 39.5q119 0 217 -50l-55 -90q-87 38 -164 38q-87 0 -87 -44q0 -14 9 -20q4 -3 9 -6t13 -5l14 -3.5t18 -3.5t19 -2.5t22 -2.5t23 -3q157 -19 222 -84q41 -41 41 -96q0 -68 -54 -117zM379 281q-7 1 -32.5 3.5t-39 4.5t-35 6t-37.5 10q-6 -4 -22 -20q-26 -28 -26 -58
q0 -25 18 -43q31 -29 129 -38q99 -9 144 -25q12 8 20 17q28 28 28 61q0 24 -18 42q-32 31 -129 40z" />
    <glyph glyph-name="dieresis" unicode="&#xa8;" 
d="M62 625q0 27 21 47t51 20q31 0 52.5 -20t21.5 -47q0 -28 -21.5 -47t-52.5 -19t-51.5 19t-20.5 47zM286 625q0 27 21 47t52 20t52.5 -20t21.5 -47q0 -28 -21.5 -47t-52.5 -19t-52 19t-21 47z" />
    <glyph glyph-name="copyright" unicode="&#xa9;" horiz-adv-x="1030" 
d="M727 433l-51 -89q-68 52 -142 52q-58 0 -94.5 -36.5t-36.5 -90.5q0 -50 39 -81.5t95 -31.5q67 0 146 44l48 -86q-46 -32 -91.5 -48t-113.5 -16q-108 0 -181.5 61t-73.5 158q0 99 69.5 165.5t182.5 66.5q106 0 204 -68zM517 706q193 0 329.5 -128t136.5 -310t-136.5 -310
t-329.5 -128q-194 0 -332 128t-138 310t138 310t332 128zM517 617q-151 0 -260.5 -103.5t-109.5 -245.5q0 -144 109.5 -246t260.5 -102q153 0 259.5 101.5t106.5 246.5q0 143 -107 246t-259 103z" />
    <glyph glyph-name="ordfeminine" unicode="&#xaa;" horiz-adv-x="466" 
d="M90 473l-33 77q78 37 176 37q74 0 124 -25.5t50 -81.5v-191q0 -39 10 -69h-107q-4 12 -8 38q-18 -16 -30.5 -24.5t-36.5 -16.5t-54 -8q-67 0 -108 35t-41 88q0 51 44.5 84.5t120.5 33.5q62 0 102 -26v31q0 50 -75 50q-65 0 -134 -32zM204 288q58 0 95 37v29
q-34 22 -80 22q-79 0 -79 -44q0 -20 17 -32t47 -12z" />
    <glyph glyph-name="guillemotleft" unicode="&#xab;" horiz-adv-x="628" 
d="M147 406h150l-126 -151v-8l126 -149h-150l-101 125v57zM295 247v8l121 151h150l-126 -151v-8l126 -149h-150z" />
    <glyph glyph-name="logicalnot" unicode="&#xac;" horiz-adv-x="753" 
d="M656 113h-132v193h-449v114h581v-307z" />
    <glyph glyph-name="registered" unicode="&#xae;" horiz-adv-x="628" 
d="M312 196q-110 0 -185 69.5t-75 170.5q0 99 75.5 170.5t184.5 71.5q110 0 187 -71.5t77 -170.5q0 -100 -77 -170t-187 -70zM312 243q90 0 151.5 56.5t61.5 137.5q0 80 -62 138t-151 58q-88 0 -149 -58t-61 -138q0 -81 61 -137.5t149 -56.5zM263 324h-62v240h152
q41 0 67.5 -22t26.5 -56q0 -47 -52 -67l59 -95h-72l-50 85h-69v-85zM351 516h-88v-57h87q14 0 24 9t10 19q0 12 -9.5 20.5t-23.5 8.5z" />
    <glyph glyph-name="macron" unicode="&#xaf;" 
d="M113 665h269v-93h-269v93z" />
    <glyph glyph-name="degree" unicode="&#xb0;" 
d="M248 635q90 0 147.5 -52.5t57.5 -128.5q0 -75 -57.5 -127.5t-147.5 -52.5q-91 0 -147.5 52t-56.5 128t56.5 128.5t147.5 52.5zM248 372q39 0 63 23.5t24 58.5t-24 59t-63 24t-62.5 -24t-23.5 -59t23.5 -58.5t62.5 -23.5z" />
    <glyph glyph-name="plusminus" unicode="&#xb1;" horiz-adv-x="753" 
d="M75 323v115h226v155h131v-155h224v-115h-224v-155h-131v155h-226zM75 0v114h581v-114h-581z" />
    <glyph glyph-name="two.superior" unicode="&#xb2;" horiz-adv-x="484" 
d="M102 507l-64 75q38 28 62.5 43.5t66.5 29t88 13.5q79 0 135 -33t56 -98q0 -28 -12.5 -51.5t-28 -37.5t-45 -28t-46.5 -20t-50 -16q-54 -17 -79 -32.5t-25 -38.5v-2h276v-91h-394v73q0 134 207 187q79 22 79 57q0 37 -70 37q-44 0 -79.5 -17t-76.5 -50z" />
    <glyph glyph-name="three.superior" unicode="&#xb3;" horiz-adv-x="534" 
d="M221 403v86h81q22 0 35 11t13 27q0 24 -22.5 35.5t-51.5 11.5q-77 0 -155 -67l-67 71q113 90 223 90q44 0 85.5 -11.5t74 -41.5t32.5 -73q0 -49 -47 -78q79 -30 79 -105q0 -72 -68 -113t-172 -41q-143 0 -244 92l65 74q82 -72 178 -72q54 0 88.5 17t34.5 48q0 39 -66 39
h-96z" />
    <glyph glyph-name="acute" unicode="&#xb4;" 
d="M258 698h135l-108 -146h-117z" />
    <glyph glyph-name="mu" unicode="&#xb5;" horiz-adv-x="618" 
d="M206 -219h-134v702h134v-323q0 -27 23 -46.5t58 -19.5q57 0 112 63v326h133v-345q0 -74 13 -138h-125q-4 27 -6 61q-66 -79 -163 -79q-28 0 -45 12v-213z" />
    <glyph glyph-name="mu" unicode="&#x3bc;" horiz-adv-x="618" 
d="M206 -219h-134v702h134v-323q0 -27 23 -46.5t58 -19.5q57 0 112 63v326h133v-345q0 -74 13 -138h-125q-4 27 -6 61q-66 -79 -163 -79q-28 0 -45 12v-213z" />
    <glyph glyph-name="paragraph" unicode="&#xb6;" horiz-adv-x="892" 
d="M571 -207h-122v459h-174q-93 0 -162.5 51t-69.5 153q0 197 229 197h526v-860h-123v748h-104v-748zM175 456q0 -46 30.5 -69t69.5 -23h174v177h-177q-97 0 -97 -85z" />
    <glyph glyph-name="periodcentered" unicode="&#xb7;" horiz-adv-x="753" 
d="M264 265q0 37 29 63.5t73 26.5q42 0 72 -26.5t30 -63.5t-29.5 -63t-72.5 -26q-44 0 -73 25.5t-29 63.5z" />
    <glyph glyph-name="cedilla" unicode="&#xb8;" 
d="M232 24h90l-27 -56q43 -7 75.5 -28.5t32.5 -61.5q0 -46 -48 -75.5t-124 -29.5q-50 0 -138 21l19 71q89 -14 108 -14q66 0 66 33q0 18 -19.5 25.5t-39.5 7.5q-14 0 -23 -3l-13 29z" />
    <glyph glyph-name="one.superior" unicode="&#xb9;" horiz-adv-x="332" 
d="M31 503l-25 92l140 58h106v-433h-119v324z" />
    <glyph glyph-name="ordmasculine" unicode="&#xba;" horiz-adv-x="477" 
d="M34 399q0 80 58.5 134t145.5 54t145.5 -54t58.5 -134t-58.5 -135t-145.5 -55t-145.5 55t-58.5 135zM145 399q0 -44 25 -73.5t68 -29.5t68.5 29.5t25.5 73.5q0 43 -25 71.5t-69 28.5t-68.5 -28t-24.5 -72z" />
    <glyph glyph-name="guillemotright" unicode="&#xbb;" horiz-adv-x="628" 
d="M331 406h149l102 -126v-57l-102 -125h-149l125 149v8zM333 255v-8l-122 -149h-149l125 149v8l-125 151h149z" />
    <glyph glyph-name="onequarter" unicode="&#xbc;" horiz-adv-x="1074" 
d="M29 503l-25 92l140 58h106v-433h-119v324zM566 653h114l-371 -653h-115zM1047 174v-87h-82v-87h-118v87h-318v67l331 279h105v-259h82zM694 176v-2h153v122h-8q-9 -7 -63 -51.5t-82 -68.5z" />
    <glyph glyph-name="onehalf" unicode="&#xbd;" horiz-adv-x="1026" 
d="M29 503l-25 92l140 58h106v-433h-119v324zM566 653h114l-371 -653h-115zM645 287l-65 75q39 29 63 43.5t66 28.5t88 14q79 0 135 -33t56 -98q0 -28 -12.5 -51.5t-28 -37.5t-44.5 -28t-46.5 -20t-50.5 -16q-54 -17 -78.5 -32.5t-24.5 -38.5v-2h276v-91h-394v73
q0 75 55.5 119t151.5 68q78 22 78 57q0 37 -69 37q-75 0 -156 -67z" />
    <glyph glyph-name="threequarters" unicode="&#xbe;" horiz-adv-x="1280" 
d="M220 403v86h81q23 0 36 11t13 27q0 24 -23 35.5t-52 11.5q-75 0 -155 -67l-66 71q110 90 223 90q44 0 85 -11.5t73.5 -41.5t32.5 -73q0 -49 -47 -78q80 -29 80 -105q0 -72 -68.5 -113t-172.5 -41q-142 0 -243 92l65 74q82 -72 178 -72q53 0 88 17.5t35 47.5q0 39 -66 39
h-97zM772 653h114l-371 -653h-115zM1253 174v-87h-82v-87h-118v87h-318v67l331 279h105v-259h82zM900 176v-2h153v122h-8q-9 -7 -63 -51.5t-82 -68.5z" />
    <glyph glyph-name="questiondown" unicode="&#xbf;" horiz-adv-x="566" 
d="M431 6l85 -77q-58 -59 -116.5 -90t-150.5 -31q-93 0 -153.5 39t-60.5 123q0 50 23.5 84.5t65.5 63.5q10 8 52 35t59.5 50t19.5 59h130q1 -37 -8.5 -67t-31 -53t-39.5 -38t-49 -35.5t-44 -30.5q-47 -34 -47 -64q0 -28 25 -43.5t65 -15.5q53 0 93 23t82 68zM395 411
q0 -35 -27 -60t-66 -25t-66.5 25t-27.5 60t27.5 59.5t66.5 24.5t66 -24.5t27 -59.5z" />
    <glyph glyph-name="Agrave" unicode="&#xc0;" horiz-adv-x="753" 
d="M12 0l303 653h123l303 -653h-157l-60 138h-302l-59 -138h-151zM370 482l-99 -231h204l-99 231h-6zM363 864l100 -138h-120l-123 138h143z" />
    <glyph glyph-name="Aacute" unicode="&#xc1;" horiz-adv-x="753" 
d="M12 0l303 653h123l303 -653h-157l-60 138h-302l-59 -138h-151zM370 482l-99 -231h204l-99 231h-6zM289 726l100 138h143l-124 -138h-119z" />
    <glyph glyph-name="Acircumflex" unicode="&#xc2;" horiz-adv-x="753" 
d="M12 0l303 653h123l303 -653h-157l-60 138h-302l-59 -138h-151zM370 482l-99 -231h204l-99 231h-6zM204 726l106 139h132l105 -139h-105l-66 74l-67 -74h-105z" />
    <glyph glyph-name="Atilde" unicode="&#xc3;" horiz-adv-x="753" 
d="M12 0l303 653h123l303 -653h-157l-60 138h-302l-59 -138h-151zM370 482l-99 -231h204l-99 231h-6zM263 721l-80 43q30 53 60 75.5t67 22.5q36 0 72 -25q40 -25 52 -25t23.5 8.5t17 15.5t16.5 22l74 -40q-55 -100 -127 -100q-34 0 -69 23q-3 2 -9.5 6.5t-9.5 6.5t-8 5.5
t-8.5 5t-8.5 2.5t-9 1q-6 0 -11.5 -2.5t-9.5 -5t-9 -8.5t-7.5 -9.5t-8 -11t-7.5 -10.5z" />
    <glyph glyph-name="Adieresis" unicode="&#xc4;" horiz-adv-x="753" 
d="M12 0l303 653h123l303 -653h-157l-60 138h-302l-59 -138h-151zM370 482l-99 -231h204l-99 231h-6zM190 798q0 27 21 47t51 20q31 0 52.5 -20t21.5 -47q0 -28 -21.5 -47t-52.5 -19t-51.5 19t-20.5 47zM414 798q0 27 21 47t52 20t52.5 -20t21.5 -47q0 -28 -21.5 -47
t-52.5 -19t-52 19t-21 47z" />
    <glyph glyph-name="Aring" unicode="&#xc5;" horiz-adv-x="753" 
d="M12 0l303 653h123l303 -653h-157l-60 138h-302l-59 -138h-151zM370 482l-99 -231h204l-99 231h-6zM315 801q0 -22 16.5 -35.5t41.5 -13.5t41.5 13.5t16.5 35.5q0 23 -16.5 39t-41.5 16t-41.5 -16t-16.5 -39zM373 693q-65 0 -100.5 31t-35.5 77q0 47 36 79.5t100 32.5
q63 0 99.5 -33t36.5 -79t-36.5 -77t-99.5 -31z" />
    <glyph glyph-name="AE" unicode="&#xc6;" horiz-adv-x="1071" 
d="M463 0v138h-237l-94 -138h-155l448 653h581v-124h-400v-127h240v-123h-240v-156h423v-123h-566zM458 482l-157 -231h162v231h-5z" />
    <glyph glyph-name="Ccedilla" unicode="&#xc7;" horiz-adv-x="766" 
d="M649 207l91 -93q-135 -125 -308 -133l-6 -13q43 -7 75.5 -28.5t32.5 -61.5q0 -46 -48 -75.5t-124 -29.5q-50 0 -138 21l19 71q89 -14 108 -14q66 0 66 33q0 18 -19.5 25.5t-39.5 7.5q-14 0 -23 -3l-13 29l21 42q-133 20 -214 115.5t-81 226.5q0 144 100 245t255 101
q88 0 172 -31t144 -83l-90 -94q-45 39 -103 61.5t-111 22.5q-97 0 -157 -64.5t-60 -158.5q0 -95 61.5 -159t160.5 -64q125 0 229 104z" />
    <glyph glyph-name="Egrave" unicode="&#xc8;" horiz-adv-x="711" 
d="M487 402v-123h-241v-156h424v-123h-567v653h544v-124h-401v-127h241zM362 864l100 -138h-120l-123 138h143z" />
    <glyph glyph-name="Eacute" unicode="&#xc9;" horiz-adv-x="711" 
d="M487 402v-123h-241v-156h424v-123h-567v653h544v-124h-401v-127h241zM288 726l100 138h143l-124 -138h-119z" />
    <glyph glyph-name="Ecircumflex" unicode="&#xca;" horiz-adv-x="711" 
d="M487 402v-123h-241v-156h424v-123h-567v653h544v-124h-401v-127h241zM203 726l106 139h132l105 -139h-105l-66 74l-67 -74h-105z" />
    <glyph glyph-name="Edieresis" unicode="&#xcb;" horiz-adv-x="711" 
d="M487 402v-123h-241v-156h424v-123h-567v653h544v-124h-401v-127h241zM189 798q0 27 21 47t51 20q31 0 52.5 -20t21.5 -47q0 -28 -21.5 -47t-52.5 -19t-51.5 19t-20.5 47zM413 798q0 27 21 47t52 20t52.5 -20t21.5 -47q0 -28 -21.5 -47t-52.5 -19t-52 19t-21 47z" />
    <glyph glyph-name="Igrave" unicode="&#xcc;" horiz-adv-x="349" 
d="M246 0h-143v653h143v-653zM162 864l100 -138h-120l-123 138h143z" />
    <glyph glyph-name="Iacute" unicode="&#xcd;" horiz-adv-x="349" 
d="M246 0h-143v653h143v-653zM88 726l100 138h143l-124 -138h-119z" />
    <glyph glyph-name="Icircumflex" unicode="&#xce;" horiz-adv-x="349" 
d="M246 0h-143v653h143v-653zM3 726l106 139h132l105 -139h-105l-66 74l-67 -74h-105z" />
    <glyph glyph-name="Idieresis" unicode="&#xcf;" horiz-adv-x="349" 
d="M246 0h-143v653h143v-653zM-11 798q0 27 21 47t51 20q31 0 52.5 -20t21.5 -47q0 -28 -21.5 -47t-52.5 -19t-51.5 19t-20.5 47zM213 798q0 27 21 47t52 20t52.5 -20t21.5 -47q0 -28 -21.5 -47t-52.5 -19t-52 19t-21 47z" />
    <glyph glyph-name="Eth" unicode="&#xd0;" horiz-adv-x="836" 
d="M37 281v104h96v268h307q165 0 256 -93q88 -91 88 -233q0 -149 -94 -241q-91 -86 -250 -86h-307v281h-96zM276 123h159q53 0 82.5 11t57.5 36q60 60 60 156q0 94 -55 151q-27 27 -59 39.5t-86 12.5h-159v-144h175v-104h-175v-158z" />
    <glyph glyph-name="Ntilde" unicode="&#xd1;" horiz-adv-x="807" 
d="M560 653h144v-653h-124l-332 404h-1v-404h-144v653h123l333 -405h1v405zM290 721l-80 43q30 53 60 75.5t67 22.5q36 0 72 -25q40 -25 52 -25t23.5 8.5t17 15.5t16.5 22l74 -40q-55 -100 -127 -100q-35 0 -69 23q-3 2 -9.5 6.5t-9.5 6.5t-8 5.5t-8.5 5t-8.5 2.5t-9 1
q-6 0 -11.5 -2.5t-9.5 -5t-9 -8.5t-7.5 -9.5t-8 -11t-7.5 -10.5z" />
    <glyph glyph-name="Ograve" unicode="&#xd2;" horiz-adv-x="835" 
d="M47 328q0 143 107 244t262 101t264 -101t109 -244q0 -145 -109 -246.5t-264 -101.5t-262 101t-107 247zM197 328q0 -93 63.5 -159t155.5 -66q93 0 158 66t65 159q0 91 -65 156t-158 65q-92 0 -155.5 -65t-63.5 -156zM404 864l100 -138h-120l-123 138h143z" />
    <glyph glyph-name="Oacute" unicode="&#xd3;" horiz-adv-x="835" 
d="M47 328q0 143 107 244t262 101t264 -101t109 -244q0 -145 -109 -246.5t-264 -101.5t-262 101t-107 247zM197 328q0 -93 63.5 -159t155.5 -66q93 0 158 66t65 159q0 91 -65 156t-158 65q-92 0 -155.5 -65t-63.5 -156zM330 726l100 138h143l-124 -138h-119z" />
    <glyph glyph-name="Ocircumflex" unicode="&#xd4;" horiz-adv-x="835" 
d="M47 328q0 143 107 244t262 101t264 -101t109 -244q0 -145 -109 -246.5t-264 -101.5t-262 101t-107 247zM197 328q0 -93 63.5 -159t155.5 -66q93 0 158 66t65 159q0 91 -65 156t-158 65q-92 0 -155.5 -65t-63.5 -156zM245 726l106 139h132l105 -139h-105l-66 74l-67 -74
h-105z" />
    <glyph glyph-name="Otilde" unicode="&#xd5;" horiz-adv-x="835" 
d="M47 328q0 143 107 244t262 101t264 -101t109 -244q0 -145 -109 -246.5t-264 -101.5t-262 101t-107 247zM197 328q0 -93 63.5 -159t155.5 -66q93 0 158 66t65 159q0 91 -65 156t-158 65q-92 0 -155.5 -65t-63.5 -156zM304 721l-80 43q30 53 60 75.5t67 22.5q36 0 72 -25
q40 -25 52 -25t23.5 8.5t17 15.5t16.5 22l74 -40q-55 -100 -127 -100q-35 0 -69 23q-3 2 -9.5 6.5t-9.5 6.5t-8 5.5t-8.5 5t-8.5 2.5t-9 1q-6 0 -11.5 -2.5t-9.5 -5t-9 -8.5t-7.5 -9.5t-8 -11t-7.5 -10.5z" />
    <glyph glyph-name="Odieresis" unicode="&#xd6;" horiz-adv-x="835" 
d="M47 328q0 143 107 244t262 101t264 -101t109 -244q0 -145 -109 -246.5t-264 -101.5t-262 101t-107 247zM197 328q0 -93 63.5 -159t155.5 -66q93 0 158 66t65 159q0 91 -65 156t-158 65q-92 0 -155.5 -65t-63.5 -156zM231 798q0 27 21 47t51 20q31 0 52.5 -20t21.5 -47
q0 -28 -21.5 -47t-52.5 -19t-51.5 19t-20.5 47zM455 798q0 27 21 47t52 20t52.5 -20t21.5 -47q0 -28 -21.5 -47t-52.5 -19t-52 19t-21 47z" />
    <glyph glyph-name="multiply" unicode="&#xd7;" horiz-adv-x="753" 
d="M77 431l89 85l201 -172l200 172l87 -84l-195 -167l196 -167l-89 -84l-201 171l-201 -171l-86 83l195 167z" />
    <glyph glyph-name="Oslash" unicode="&#xd8;" horiz-adv-x="835" 
d="M47 328q0 143 107 244t262 101q80 0 157 -32l56 80l86 -58l-53 -76q60 -48 93.5 -115.5t33.5 -143.5q0 -145 -109 -246.5t-264 -101.5q-79 0 -156 31l-55 -79l-86 58l52 75q-124 103 -124 263zM639 328q0 84 -56 146l-248 -356q37 -15 81 -15q93 0 158 66t65 159z
M197 328q0 -85 54 -149l247 354q-42 16 -82 16q-92 0 -155.5 -65t-63.5 -156z" />
    <glyph glyph-name="Ugrave" unicode="&#xd9;" horiz-adv-x="778" 
d="M543 653h144v-418q0 -120 -83 -187.5t-216 -67.5q-130 0 -213.5 68t-83.5 187v418h144v-418q0 -62 43.5 -97t109.5 -35q69 0 112 34.5t43 97.5v418zM375 864l100 -138h-120l-123 138h143z" />
    <glyph glyph-name="Uacute" unicode="&#xda;" horiz-adv-x="778" 
d="M543 653h144v-418q0 -120 -83 -187.5t-216 -67.5q-130 0 -213.5 68t-83.5 187v418h144v-418q0 -62 43.5 -97t109.5 -35q69 0 112 34.5t43 97.5v418zM301 726l100 138h143l-124 -138h-119z" />
    <glyph glyph-name="Ucircumflex" unicode="&#xdb;" horiz-adv-x="778" 
d="M543 653h144v-418q0 -120 -83 -187.5t-216 -67.5q-130 0 -213.5 68t-83.5 187v418h144v-418q0 -62 43.5 -97t109.5 -35q69 0 112 34.5t43 97.5v418zM216 726l106 139h132l105 -139h-105l-66 74l-67 -74h-105z" />
    <glyph glyph-name="Udieresis" unicode="&#xdc;" horiz-adv-x="778" 
d="M543 653h144v-418q0 -120 -83 -187.5t-216 -67.5q-130 0 -213.5 68t-83.5 187v418h144v-418q0 -62 43.5 -97t109.5 -35q69 0 112 34.5t43 97.5v418zM202 798q0 27 21 47t51 20q31 0 52.5 -20t21.5 -47q0 -28 -21.5 -47t-52.5 -19t-51.5 19t-20.5 47zM426 798q0 27 21 47
t52 20t52.5 -20t21.5 -47q0 -28 -21.5 -47t-52.5 -19t-52 19t-21 47z" />
    <glyph glyph-name="Yacute" unicode="&#xdd;" horiz-adv-x="670" 
d="M498 653h168l-259 -355v-298h-144v298l-260 355h178l159 -227zM248 726l100 138h143l-124 -138h-119z" />
    <glyph glyph-name="Thorn" unicode="&#xde;" horiz-adv-x="764" 
d="M246 653v-120h239q130 0 197 -72q53 -59 53 -134q0 -84 -62 -144q-66 -63 -188 -63h-239v-120h-143v653h143zM490 412h-244v-171h244q49 0 75 25q26 26 26 60q0 33 -24 59q-26 27 -77 27z" />
    <glyph glyph-name="germandbls" unicode="&#xdf;" horiz-adv-x="613" 
d="M310 -10l-10 100q66 0 102 27.5t36 72.5q0 31 -17.5 57.5t-43.5 43t-50.5 26.5t-44.5 13l10 99q41 8 63.5 36.5t22.5 63.5q0 37 -23.5 58t-57.5 21q-36 0 -62 -28.5t-26 -83.5v-496h-132v497q0 109 64 162t155 53q97 0 156.5 -47.5t59.5 -121.5q0 -54 -35.5 -92.5
t-74.5 -51.5q58 -16 114 -74.5t56 -141.5q0 -86 -68.5 -139.5t-193.5 -53.5z" />
    <glyph glyph-name="agrave" unicode="&#xe0;" horiz-adv-x="598" 
d="M113 353l-41 99q104 52 228 52q95 0 160 -36t65 -112v-261q0 -52 14 -95h-132q-5 16 -12 56q-33 -32 -69.5 -50t-94.5 -18q-87 0 -140 47t-53 119q0 70 57.5 116t156.5 46q89 0 140 -40v49q0 37 -28 55.5t-75 18.5q-43 0 -93.5 -14.5t-82.5 -31.5zM260 86q74 0 132 54v47
q-41 35 -113 35q-56 0 -82 -19t-26 -49q0 -31 23.5 -49.5t65.5 -18.5zM154 698h134l90 -146h-116z" />
    <glyph glyph-name="aacute" unicode="&#xe1;" horiz-adv-x="598" 
d="M113 353l-41 99q104 52 228 52q95 0 160 -36t65 -112v-261q0 -52 14 -95h-132q-5 16 -12 56q-33 -32 -69.5 -50t-94.5 -18q-87 0 -140 47t-53 119q0 70 57.5 116t156.5 46q89 0 140 -40v49q0 37 -28 55.5t-75 18.5q-43 0 -93.5 -14.5t-82.5 -31.5zM260 86q74 0 132 54v47
q-41 35 -113 35q-56 0 -82 -19t-26 -49q0 -31 23.5 -49.5t65.5 -18.5zM309 698h135l-108 -146h-117z" />
    <glyph glyph-name="acircumflex" unicode="&#xe2;" horiz-adv-x="598" 
d="M113 353l-41 99q104 52 228 52q95 0 160 -36t65 -112v-261q0 -52 14 -95h-132q-5 16 -12 56q-33 -32 -69.5 -50t-94.5 -18q-87 0 -140 47t-53 119q0 70 57.5 116t156.5 46q89 0 140 -40v49q0 37 -28 55.5t-75 18.5q-43 0 -93.5 -14.5t-82.5 -31.5zM260 86q74 0 132 54v47
q-41 35 -113 35q-56 0 -82 -19t-26 -49q0 -31 23.5 -49.5t65.5 -18.5zM127 553l106 141h132l105 -141h-105l-66 76l-67 -76h-105z" />
    <glyph glyph-name="atilde" unicode="&#xe3;" horiz-adv-x="598" 
d="M113 353l-41 99q104 52 228 52q95 0 160 -36t65 -112v-261q0 -52 14 -95h-132q-5 16 -12 56q-33 -32 -69.5 -50t-94.5 -18q-87 0 -140 47t-53 119q0 70 57.5 116t156.5 46q89 0 140 -40v49q0 37 -28 55.5t-75 18.5q-43 0 -93.5 -14.5t-82.5 -31.5zM260 86q74 0 132 54v47
q-41 35 -113 35q-56 0 -82 -19t-26 -49q0 -31 23.5 -49.5t65.5 -18.5zM186 547l-80 43q30 54 60 76.5t67 22.5q36 0 72 -25q37 -25 52 -25q26 0 57 46l74 -40q-55 -100 -127 -100q-35 0 -69 23q-3 2 -9.5 6.5t-9.5 6.5t-8 5.5t-8.5 5t-8.5 2.5t-9 1q-7 0 -13 -2.5t-12 -9
t-9 -10t-10 -14t-9 -12.5z" />
    <glyph glyph-name="adieresis" unicode="&#xe4;" horiz-adv-x="598" 
d="M113 353l-41 99q104 52 228 52q95 0 160 -36t65 -112v-261q0 -52 14 -95h-132q-5 16 -12 56q-33 -32 -69.5 -50t-94.5 -18q-87 0 -140 47t-53 119q0 70 57.5 116t156.5 46q89 0 140 -40v49q0 37 -28 55.5t-75 18.5q-43 0 -93.5 -14.5t-82.5 -31.5zM260 86q74 0 132 54v47
q-41 35 -113 35q-56 0 -82 -19t-26 -49q0 -31 23.5 -49.5t65.5 -18.5zM113 625q0 27 21 47t51 20q31 0 52.5 -20t21.5 -47q0 -28 -21.5 -47t-52.5 -19t-51.5 19t-20.5 47zM337 625q0 27 21 47t52 20t52.5 -20t21.5 -47q0 -28 -21.5 -47t-52.5 -19t-52 19t-21 47z" />
    <glyph glyph-name="aring" unicode="&#xe5;" horiz-adv-x="598" 
d="M113 353l-41 99q104 52 228 52q95 0 160 -36t65 -112v-261q0 -52 14 -95h-132q-5 16 -12 56q-33 -32 -69.5 -50t-94.5 -18q-87 0 -140 47t-53 119q0 70 57.5 116t156.5 46q89 0 140 -40v49q0 37 -28 55.5t-75 18.5q-43 0 -93.5 -14.5t-82.5 -31.5zM260 86q74 0 132 54v47
q-41 35 -113 35q-56 0 -82 -19t-26 -49q0 -31 23.5 -49.5t65.5 -18.5zM238 650q0 -22 16.5 -35.5t41.5 -13.5t41.5 13.5t16.5 35.5q0 24 -16.5 40t-41.5 16t-41.5 -16t-16.5 -40zM160 650q0 47 36 79.5t100 32.5q63 0 99.5 -32.5t36.5 -79.5q0 -45 -36.5 -76t-99.5 -31
q-65 0 -100.5 31t-35.5 76z" />
    <glyph glyph-name="ae" unicode="&#xe6;" horiz-adv-x="937" 
d="M814 142l63 -85q-95 -72 -228 -72q-128 0 -201 89q-91 -88 -217 -88q-87 0 -140 47.5t-53 120.5q0 70 57.5 116t156.5 46q92 0 142 -40v49q0 37 -29 55.5t-76 18.5q-43 0 -93.5 -14.5t-82.5 -31.5l-41 99q104 52 228 52q132 0 175 -69l4 -5q30 34 75.5 54t93.5 20
q65 0 119 -24t91 -82.5t37 -144.5q0 -18 -2 -42h-371q9 -52 46 -85.5t92 -33.5q84 0 154 50zM260 86q86 0 144 67q-6 18 -9 33q-48 36 -116 36q-56 0 -82 -19t-26 -49q0 -31 23.5 -49.5t65.5 -18.5zM650 402q-99 0 -126 -102h236q0 48 -33.5 75t-76.5 27z" />
    <glyph glyph-name="ccedilla" unicode="&#xe7;" horiz-adv-x="558" 
d="M524 421l-83 -88q-59 58 -125 58q-55 0 -92.5 -40t-37.5 -105t39.5 -107t95.5 -42q63 0 131 66l82 -82q-14 -16 -36.5 -33.5t-68.5 -37.5t-96 -24l-8 -18q43 -7 75.5 -28.5t32.5 -61.5q0 -46 -48 -75.5t-124 -29.5q-50 0 -138 21l19 71q89 -14 108 -14q66 0 66 33
q0 18 -19.5 25.5t-39.5 7.5q-14 0 -23 -3l-13 29l24 49q-87 19 -144 87.5t-57 166.5q0 115 75.5 186.5t186.5 71.5q125 0 218 -83z" />
    <glyph glyph-name="egrave" unicode="&#xe8;" horiz-adv-x="590" 
d="M466 142l63 -85q-42 -32 -104 -52t-126 -20q-119 0 -187 73.5t-68 181.5q0 112 73.5 188t185.5 76q100 0 172.5 -63.5t72.5 -188.5q0 -18 -2 -41h-371q9 -54 45 -86.5t96 -32.5q83 0 150 50zM302 402q-96 0 -124 -102h235q-1 48 -34.5 75t-76.5 27zM159 698h134l90 -146
h-116z" />
    <glyph glyph-name="eacute" unicode="&#xe9;" horiz-adv-x="590" 
d="M466 142l63 -85q-42 -32 -104 -52t-126 -20q-119 0 -187 73.5t-68 181.5q0 112 73.5 188t185.5 76q100 0 172.5 -63.5t72.5 -188.5q0 -18 -2 -41h-371q9 -54 45 -86.5t96 -32.5q83 0 150 50zM302 402q-96 0 -124 -102h235q-1 48 -34.5 75t-76.5 27zM314 698h135
l-108 -146h-117z" />
    <glyph glyph-name="ecircumflex" unicode="&#xea;" horiz-adv-x="590" 
d="M466 142l63 -85q-42 -32 -104 -52t-126 -20q-119 0 -187 73.5t-68 181.5q0 112 73.5 188t185.5 76q100 0 172.5 -63.5t72.5 -188.5q0 -18 -2 -41h-371q9 -54 45 -86.5t96 -32.5q83 0 150 50zM302 402q-96 0 -124 -102h235q-1 48 -34.5 75t-76.5 27zM132 553l106 141h132
l105 -141h-105l-66 76l-67 -76h-105z" />
    <glyph glyph-name="edieresis" unicode="&#xeb;" horiz-adv-x="590" 
d="M466 142l63 -85q-42 -32 -104 -52t-126 -20q-119 0 -187 73.5t-68 181.5q0 112 73.5 188t185.5 76q100 0 172.5 -63.5t72.5 -188.5q0 -18 -2 -41h-371q9 -54 45 -86.5t96 -32.5q83 0 150 50zM302 402q-96 0 -124 -102h235q-1 48 -34.5 75t-76.5 27zM118 625q0 27 21 47
t51 20q31 0 52.5 -20t21.5 -47q0 -28 -21.5 -47t-52.5 -19t-51.5 19t-20.5 47zM342 625q0 27 21 47t52 20t52.5 -20t21.5 -47q0 -28 -21.5 -47t-52.5 -19t-52 19t-21 47z" />
    <glyph glyph-name="igrave" unicode="&#xec;" horiz-adv-x="287" 
d="M210 0h-133v488h133v-488zM-1 698h134l90 -146h-116z" />
    <glyph glyph-name="iacute" unicode="&#xed;" horiz-adv-x="287" 
d="M210 0h-133v488h133v-488zM154 698h135l-108 -146h-117z" />
    <glyph glyph-name="icircumflex" unicode="&#xee;" horiz-adv-x="287" 
d="M210 0h-133v488h133v-488zM-28 553l106 141h132l105 -141h-105l-66 76l-67 -76h-105z" />
    <glyph glyph-name="idieresis" unicode="&#xef;" horiz-adv-x="287" 
d="M210 0h-133v488h133v-488zM-42 625q0 27 21 47t51 20q31 0 52.5 -20t21.5 -47q0 -28 -21.5 -47t-52.5 -19t-51.5 19t-20.5 47zM182 625q0 27 21 47t52 20t52.5 -20t21.5 -47q0 -28 -21.5 -47t-52.5 -19t-52 19t-21 47z" />
    <glyph glyph-name="eth" unicode="&#xf0;" horiz-adv-x="631" 
d="M154 517l-24 69l115 34q-35 26 -89 60l136 35q68 -46 81 -56l128 38l24 -69l-86 -26q134 -132 134 -331q0 -132 -75.5 -209t-190.5 -77q-112 0 -187 74.5t-75 180.5q0 104 67 174t168 70q76 0 135 -50q-33 66 -102 130zM182 241q0 -60 34.5 -102t89.5 -42q58 0 94.5 42
t36.5 102t-36 100t-95 40q-56 0 -90 -40t-34 -100z" />
    <glyph glyph-name="ntilde" unicode="&#xf1;" horiz-adv-x="610" 
d="M196 424q67 80 164 80q75 0 126.5 -50t51.5 -126v-328h-134v323q0 28 -23 48t-58 20q-55 0 -112 -63v-328h-133v349q0 70 -14 139h122q8 -36 10 -64zM191 547l-80 43q30 54 60 76.5t67 22.5q36 0 72 -25q37 -25 52 -25q26 0 57 46l74 -40q-55 -100 -127 -100
q-34 0 -69 23q-3 2 -9.5 6.5t-9.5 6.5t-8 5.5t-8.5 5t-8.5 2.5t-9 1q-7 0 -13 -2.5t-12 -9t-9 -10t-10 -14t-9 -12.5z" />
    <glyph glyph-name="ograve" unicode="&#xf2;" horiz-adv-x="620" 
d="M44 246q0 110 74 184t191 74q118 0 192.5 -74t74.5 -184q0 -111 -75 -186t-192 -75t-191 75t-74 186zM181 246q0 -63 34.5 -107t93.5 -44q60 0 95.5 44t35.5 107q0 62 -35.5 104.5t-95.5 42.5q-59 0 -93.5 -42.5t-34.5 -104.5zM165 698h134l90 -146h-116z" />
    <glyph glyph-name="oacute" unicode="&#xf3;" horiz-adv-x="620" 
d="M44 246q0 110 74 184t191 74q118 0 192.5 -74t74.5 -184q0 -111 -75 -186t-192 -75t-191 75t-74 186zM181 246q0 -63 34.5 -107t93.5 -44q60 0 95.5 44t35.5 107q0 62 -35.5 104.5t-95.5 42.5q-59 0 -93.5 -42.5t-34.5 -104.5zM320 698h135l-108 -146h-117z" />
    <glyph glyph-name="ocircumflex" unicode="&#xf4;" horiz-adv-x="620" 
d="M44 246q0 110 74 184t191 74q118 0 192.5 -74t74.5 -184q0 -111 -75 -186t-192 -75t-191 75t-74 186zM181 246q0 -63 34.5 -107t93.5 -44q60 0 95.5 44t35.5 107q0 62 -35.5 104.5t-95.5 42.5q-59 0 -93.5 -42.5t-34.5 -104.5zM138 553l106 141h132l105 -141h-105l-66 76
l-67 -76h-105z" />
    <glyph glyph-name="otilde" unicode="&#xf5;" horiz-adv-x="620" 
d="M44 246q0 110 74 184t191 74q118 0 192.5 -74t74.5 -184q0 -111 -75 -186t-192 -75t-191 75t-74 186zM181 246q0 -63 34.5 -107t93.5 -44q60 0 95.5 44t35.5 107q0 62 -35.5 104.5t-95.5 42.5q-59 0 -93.5 -42.5t-34.5 -104.5zM197 547l-80 43q30 54 60 76.5t67 22.5
q36 0 72 -25q37 -25 52 -25q26 0 57 46l74 -40q-55 -100 -127 -100q-34 0 -69 23q-3 2 -9.5 6.5t-9.5 6.5t-8 5.5t-8.5 5t-8.5 2.5t-9 1q-7 0 -13 -2.5t-12 -9t-9 -10t-10 -14t-9 -12.5z" />
    <glyph glyph-name="odieresis" unicode="&#xf6;" horiz-adv-x="620" 
d="M44 246q0 110 74 184t191 74q118 0 192.5 -74t74.5 -184q0 -111 -75 -186t-192 -75t-191 75t-74 186zM181 246q0 -63 34.5 -107t93.5 -44q60 0 95.5 44t35.5 107q0 62 -35.5 104.5t-95.5 42.5q-59 0 -93.5 -42.5t-34.5 -104.5zM124 625q0 27 21 47t51 20q31 0 52.5 -20
t21.5 -47q0 -28 -21.5 -47t-52.5 -19t-51.5 19t-20.5 47zM348 625q0 27 21 47t52 20t52.5 -20t21.5 -47q0 -28 -21.5 -47t-52.5 -19t-52 19t-21 47z" />
    <glyph glyph-name="divide" unicode="&#xf7;" horiz-adv-x="753" 
d="M75 208v114h581v-114h-581zM279 69q0 32 25.5 54.5t62.5 22.5t62.5 -22.5t25.5 -54.5q0 -33 -25 -55t-63 -22t-63 22t-25 55zM279 460q0 32 25.5 54.5t62.5 22.5t62.5 -22.5t25.5 -54.5t-25.5 -54.5t-62.5 -22.5t-62.5 22.5t-25.5 54.5z" />
    <glyph glyph-name="oslash" unicode="&#xf8;" horiz-adv-x="620" 
d="M150 -61l-73 51l46 65q-79 76 -79 191q0 110 74 184t192 74q60 0 112 -22l48 68l72 -51l-45 -64q80 -75 80 -189q0 -111 -75 -186t-192 -75q-60 0 -113 22zM310 88q62 0 99 46t37 112q0 46 -21 86l-164 -235q21 -9 49 -9zM176 246q0 -49 20 -87l162 232q-21 9 -48 9
q-62 0 -98 -44t-36 -110z" />
    <glyph glyph-name="ugrave" unicode="&#xf9;" horiz-adv-x="609" 
d="M413 63q-70 -79 -164 -79q-75 0 -126.5 50t-51.5 126v328h134v-323q0 -29 22.5 -48.5t58.5 -19.5q57 0 112 63v328h133v-350q0 -73 12 -138h-124q-4 22 -6 63zM159 698h134l90 -146h-116z" />
    <glyph glyph-name="uacute" unicode="&#xfa;" horiz-adv-x="609" 
d="M413 63q-70 -79 -164 -79q-75 0 -126.5 50t-51.5 126v328h134v-323q0 -29 22.5 -48.5t58.5 -19.5q57 0 112 63v328h133v-350q0 -73 12 -138h-124q-4 22 -6 63zM314 698h135l-108 -146h-117z" />
    <glyph glyph-name="ucircumflex" unicode="&#xfb;" horiz-adv-x="609" 
d="M413 63q-70 -79 -164 -79q-75 0 -126.5 50t-51.5 126v328h134v-323q0 -29 22.5 -48.5t58.5 -19.5q57 0 112 63v328h133v-350q0 -73 12 -138h-124q-4 22 -6 63zM132 553l106 141h132l105 -141h-105l-66 76l-67 -76h-105z" />
    <glyph glyph-name="udieresis" unicode="&#xfc;" horiz-adv-x="609" 
d="M413 63q-70 -79 -164 -79q-75 0 -126.5 50t-51.5 126v328h134v-323q0 -29 22.5 -48.5t58.5 -19.5q57 0 112 63v328h133v-350q0 -73 12 -138h-124q-4 22 -6 63zM118 625q0 27 21 47t51 20q31 0 52.5 -20t21.5 -47q0 -28 -21.5 -47t-52.5 -19t-51.5 19t-20.5 47zM342 625
q0 27 21 47t52 20t52.5 -20t21.5 -47q0 -28 -21.5 -47t-52.5 -19t-52 19t-21 47z" />
    <glyph glyph-name="yacute" unicode="&#xfd;" horiz-adv-x="557" 
d="M281 197h6l129 291h137l-329 -695h-139l127 252l-198 443h149zM292 698h135l-108 -146h-117z" />
    <glyph glyph-name="thorn" unicode="&#xfe;" horiz-adv-x="632" 
d="M329 98q48 0 80.5 41t32.5 105q0 66 -33 106.5t-80 40.5q-64 0 -119 -55v-185q58 -53 119 -53zM210 700v-259q63 63 138 63q100 0 169 -72t69 -188q0 -113 -69 -185.5t-169 -72.5q-78 0 -138 63v-256h-133v907h133z" />
    <glyph glyph-name="ydieresis" unicode="&#xff;" horiz-adv-x="557" 
d="M281 197h6l129 291h137l-329 -695h-139l127 252l-198 443h149zM96 625q0 27 21 47t51 20q31 0 52.5 -20t21.5 -47q0 -28 -21.5 -47t-52.5 -19t-51.5 19t-20.5 47zM320 625q0 27 21 47t52 20t52.5 -20t21.5 -47q0 -28 -21.5 -47t-52.5 -19t-52 19t-21 47z" />
    <glyph glyph-name="Amacron" unicode="&#x100;" horiz-adv-x="753" 
d="M12 0l303 653h123l303 -653h-157l-60 138h-302l-59 -138h-151zM370 482l-99 -231h204l-99 231h-6zM241 838h269v-93h-269v93z" />
    <glyph glyph-name="amacron" unicode="&#x101;" horiz-adv-x="598" 
d="M113 353l-41 99q104 52 228 52q95 0 160 -36t65 -112v-261q0 -52 14 -95h-132q-5 16 -12 56q-33 -32 -69.5 -50t-94.5 -18q-87 0 -140 47t-53 119q0 70 57.5 116t156.5 46q89 0 140 -40v49q0 37 -28 55.5t-75 18.5q-43 0 -93.5 -14.5t-82.5 -31.5zM260 86q74 0 132 54v47
q-41 35 -113 35q-56 0 -82 -19t-26 -49q0 -31 23.5 -49.5t65.5 -18.5zM164 665h269v-93h-269v93z" />
    <glyph glyph-name="Abreve" unicode="&#x102;" horiz-adv-x="753" 
d="M12 0l303 653h123l303 -653h-157l-60 138h-302l-59 -138h-151zM370 482l-99 -231h204l-99 231h-6zM215 864h93q0 -68 68 -68q67 0 67 68h93q0 -60 -36 -104t-124 -44t-124.5 44t-36.5 104z" />
    <glyph glyph-name="abreve" unicode="&#x103;" horiz-adv-x="598" 
d="M113 353l-41 99q104 52 228 52q95 0 160 -36t65 -112v-261q0 -52 14 -95h-132q-5 16 -12 56q-33 -32 -69.5 -50t-94.5 -18q-87 0 -140 47t-53 119q0 70 57.5 116t156.5 46q89 0 140 -40v49q0 37 -28 55.5t-75 18.5q-43 0 -93.5 -14.5t-82.5 -31.5zM260 86q74 0 132 54v47
q-41 35 -113 35q-56 0 -82 -19t-26 -49q0 -31 23.5 -49.5t65.5 -18.5zM138 693h93q0 -70 68 -70q67 0 67 70h93q0 -61 -36 -105.5t-124 -44.5t-124.5 44.5t-36.5 105.5z" />
    <glyph glyph-name="Aogonek" unicode="&#x104;" horiz-adv-x="753" 
d="M12 0l303 653h123l303 -653h-42q-103 -45 -103 -96q0 -45 61 -45q15 0 59 8l11 -80q-50 -14 -94 -14q-65 0 -104 29t-39 76q0 72 92 127l-58 133h-302l-59 -138h-151zM370 482l-99 -231h204l-99 231h-6z" />
    <glyph glyph-name="aogonek" unicode="&#x105;" horiz-adv-x="598" 
d="M113 353l-41 99q104 52 228 52q95 0 160 -36t65 -112v-261q0 -52 14 -95h-7q-103 -45 -103 -96q0 -45 61 -45q15 0 59 8l11 -80q-50 -14 -94 -14q-65 0 -104 29t-39 76q0 68 84 122q-5 16 -12 56q-33 -32 -69.5 -50t-94.5 -18q-87 0 -140 47t-53 119q0 70 57.5 116
t156.5 46q89 0 140 -40v49q0 37 -28 55.5t-75 18.5q-43 0 -93.5 -14.5t-82.5 -31.5zM260 86q74 0 132 54v47q-41 35 -113 35q-56 0 -82 -19t-26 -49q0 -31 23.5 -49.5t65.5 -18.5z" />
    <glyph glyph-name="Cacute" unicode="&#x106;" horiz-adv-x="766" 
d="M649 207l91 -93q-144 -134 -332 -134q-160 0 -260 100t-100 247q0 144 100 245t255 101q88 0 172 -31t144 -83l-90 -94q-45 39 -103 61.5t-111 22.5q-97 0 -157 -64.5t-60 -158.5q0 -95 61.5 -159t160.5 -64q125 0 229 104zM319 726l100 138h143l-124 -138h-119z" />
    <glyph glyph-name="cacute" unicode="&#x107;" horiz-adv-x="558" 
d="M524 421l-83 -88q-59 58 -125 58q-55 0 -92.5 -40t-37.5 -105t39.5 -107t95.5 -42q63 0 131 66l82 -82q-26 -31 -86.5 -63.5t-141.5 -32.5q-109 0 -185.5 73t-76.5 188t75.5 186.5t186.5 71.5q125 0 218 -83zM317 698h135l-108 -146h-117z" />
    <glyph glyph-name="Ccircumflex" unicode="&#x108;" horiz-adv-x="766" 
d="M649 207l91 -93q-144 -134 -332 -134q-160 0 -260 100t-100 247q0 144 100 245t255 101q88 0 172 -31t144 -83l-90 -94q-45 39 -103 61.5t-111 22.5q-97 0 -157 -64.5t-60 -158.5q0 -95 61.5 -159t160.5 -64q125 0 229 104zM234 726l106 139h132l105 -139h-105l-66 74
l-67 -74h-105z" />
    <glyph glyph-name="ccircumflex" unicode="&#x109;" horiz-adv-x="558" 
d="M524 421l-83 -88q-59 58 -125 58q-55 0 -92.5 -40t-37.5 -105t39.5 -107t95.5 -42q63 0 131 66l82 -82q-26 -31 -86.5 -63.5t-141.5 -32.5q-109 0 -185.5 73t-76.5 188t75.5 186.5t186.5 71.5q125 0 218 -83zM135 553l106 141h132l105 -141h-105l-66 76l-67 -76h-105z
" />
    <glyph glyph-name="Cdotaccent" unicode="&#x10a;" horiz-adv-x="766" 
d="M649 207l91 -93q-144 -134 -332 -134q-160 0 -260 100t-100 247q0 144 100 245t255 101q88 0 172 -31t144 -83l-90 -94q-45 39 -103 61.5t-111 22.5q-97 0 -157 -64.5t-60 -158.5q0 -95 61.5 -159t160.5 -64q125 0 229 104zM333 798q0 27 21 47t51 20q31 0 52.5 -20
t21.5 -47q0 -28 -21.5 -47t-52.5 -19t-51.5 19t-20.5 47z" />
    <glyph glyph-name="cdotaccent" unicode="&#x10b;" horiz-adv-x="558" 
d="M524 421l-83 -88q-59 58 -125 58q-55 0 -92.5 -40t-37.5 -105t39.5 -107t95.5 -42q63 0 131 66l82 -82q-26 -31 -86.5 -63.5t-141.5 -32.5q-109 0 -185.5 73t-76.5 188t75.5 186.5t186.5 71.5q125 0 218 -83zM234 625q0 27 21 47t51 20q31 0 52.5 -20t21.5 -47
q0 -28 -21.5 -47t-52.5 -19t-51.5 19t-20.5 47z" />
    <glyph glyph-name="Ccaron" unicode="&#x10c;" horiz-adv-x="766" 
d="M649 207l91 -93q-144 -134 -332 -134q-160 0 -260 100t-100 247q0 144 100 245t255 101q88 0 172 -31t144 -83l-90 -94q-45 39 -103 61.5t-111 22.5q-97 0 -157 -64.5t-60 -158.5q0 -95 61.5 -159t160.5 -64q125 0 229 104zM339 865l67 -75l66 75h105l-105 -139h-132
l-106 139h105z" />
    <glyph glyph-name="ccaron" unicode="&#x10d;" horiz-adv-x="558" 
d="M524 421l-83 -88q-59 58 -125 58q-55 0 -92.5 -40t-37.5 -105t39.5 -107t95.5 -42q63 0 131 66l82 -82q-26 -31 -86.5 -63.5t-141.5 -32.5q-109 0 -185.5 73t-76.5 188t75.5 186.5t186.5 71.5q125 0 218 -83zM135 694h105l67 -77l66 77h105l-105 -141h-132z" />
    <glyph glyph-name="Dcaron" unicode="&#x10e;" horiz-adv-x="806" 
d="M410 0h-307v653h307q165 0 256 -93q88 -91 88 -233q0 -149 -94 -241q-91 -86 -250 -86zM246 123h159q53 0 82.5 11t57.5 36q60 60 60 156q0 94 -55 151q-27 27 -59 39.5t-86 12.5h-159v-406zM326 865l67 -75l66 75h105l-105 -139h-132l-106 139h105z" />
    <glyph glyph-name="dcaron" unicode="&#x10f;" horiz-adv-x="632" 
d="M565 0h-126q-4 22 -6 58q-64 -72 -151 -72q-100 0 -168.5 72.5t-68.5 187.5q0 114 69 186t168 72q73 0 138 -60v256h134v-561q0 -82 11 -139zM302 391q-49 0 -81 -39.5t-32 -105.5t32.5 -107t80.5 -41q67 0 118 54v184q-57 55 -118 55zM687 464h-68v236h118
q0 -140 -50 -236z" />
    <glyph glyph-name="Dcroat" unicode="&#x110;" horiz-adv-x="836" 
d="M37 281v104h96v268h307q165 0 256 -93q88 -91 88 -233q0 -149 -94 -241q-91 -86 -250 -86h-307v281h-96zM276 123h159q53 0 82.5 11t57.5 36q60 60 60 156q0 94 -55 151q-27 27 -59 39.5t-86 12.5h-159v-144h175v-104h-175v-158z" />
    <glyph glyph-name="dcroat" unicode="&#x111;" horiz-adv-x="632" 
d="M292 552v88h128v60h134v-60h73v-88h-73v-413q0 -82 11 -139h-126q-4 22 -6 58q-64 -72 -151 -72q-100 0 -168.5 72.5t-68.5 187.5q0 114 69 186t168 72q73 0 138 -60v108h-128zM302 391q-49 0 -81 -39.5t-32 -105.5t32.5 -107t80.5 -41q67 0 118 54v184q-57 55 -118 55z
" />
    <glyph glyph-name="Emacron" unicode="&#x112;" horiz-adv-x="711" 
d="M487 402v-123h-241v-156h424v-123h-567v653h544v-124h-401v-127h241zM240 838h269v-93h-269v93z" />
    <glyph glyph-name="emacron" unicode="&#x113;" horiz-adv-x="590" 
d="M466 142l63 -85q-42 -32 -104 -52t-126 -20q-119 0 -187 73.5t-68 181.5q0 112 73.5 188t185.5 76q100 0 172.5 -63.5t72.5 -188.5q0 -18 -2 -41h-371q9 -54 45 -86.5t96 -32.5q83 0 150 50zM302 402q-96 0 -124 -102h235q-1 48 -34.5 75t-76.5 27zM169 665h269v-93h-269
v93z" />
    <glyph glyph-name="Ebreve" unicode="&#x114;" horiz-adv-x="711" 
d="M487 402v-123h-241v-156h424v-123h-567v653h544v-124h-401v-127h241zM214 864h93q0 -68 68 -68q67 0 67 68h93q0 -60 -36 -104t-124 -44t-124.5 44t-36.5 104z" />
    <glyph glyph-name="ebreve" unicode="&#x115;" horiz-adv-x="590" 
d="M466 142l63 -85q-42 -32 -104 -52t-126 -20q-119 0 -187 73.5t-68 181.5q0 112 73.5 188t185.5 76q100 0 172.5 -63.5t72.5 -188.5q0 -18 -2 -41h-371q9 -54 45 -86.5t96 -32.5q83 0 150 50zM302 402q-96 0 -124 -102h235q-1 48 -34.5 75t-76.5 27zM143 693h93
q0 -70 68 -70q67 0 67 70h93q0 -61 -36 -105.5t-124 -44.5t-124.5 44.5t-36.5 105.5z" />
    <glyph glyph-name="Edotaccent" unicode="&#x116;" horiz-adv-x="711" 
d="M487 402v-123h-241v-156h424v-123h-567v653h544v-124h-401v-127h241zM302 798q0 27 21 47t51 20q31 0 52.5 -20t21.5 -47q0 -28 -21.5 -47t-52.5 -19t-51.5 19t-20.5 47z" />
    <glyph glyph-name="edotaccent" unicode="&#x117;" horiz-adv-x="590" 
d="M466 142l63 -85q-42 -32 -104 -52t-126 -20q-119 0 -187 73.5t-68 181.5q0 112 73.5 188t185.5 76q100 0 172.5 -63.5t72.5 -188.5q0 -18 -2 -41h-371q9 -54 45 -86.5t96 -32.5q83 0 150 50zM302 402q-96 0 -124 -102h235q-1 48 -34.5 75t-76.5 27zM231 625q0 27 21 47
t51 20q31 0 52.5 -20t21.5 -47q0 -28 -21.5 -47t-52.5 -19t-51.5 19t-20.5 47z" />
    <glyph glyph-name="Eogonek" unicode="&#x118;" horiz-adv-x="711" 
d="M487 402v-123h-241v-156h424v-123h-43q-103 -45 -103 -96q0 -45 61 -45q15 0 59 8l11 -80q-50 -14 -94 -14q-65 0 -104 29t-39 76q0 68 84 122h-399v653h544v-124h-401v-127h241z" />
    <glyph glyph-name="eogonek" unicode="&#x119;" horiz-adv-x="590" 
d="M466 142l63 -85q-48 -37 -120 -57q-103 -45 -103 -96q0 -45 61 -45q15 0 59 8l11 -80q-50 -14 -94 -14q-65 0 -104 29t-39 76q0 61 65 109q-104 11 -162.5 82t-58.5 171q0 112 73.5 188t185.5 76q100 0 172.5 -63.5t72.5 -188.5q0 -18 -2 -41h-371q9 -54 45 -86.5
t96 -32.5q83 0 150 50zM302 402q-96 0 -124 -102h235q-1 48 -34.5 75t-76.5 27z" />
    <glyph glyph-name="Ecaron" unicode="&#x11a;" horiz-adv-x="711" 
d="M487 402v-123h-241v-156h424v-123h-567v653h544v-124h-401v-127h241zM308 865l67 -75l66 75h105l-105 -139h-132l-106 139h105z" />
    <glyph glyph-name="ecaron" unicode="&#x11b;" horiz-adv-x="590" 
d="M466 142l63 -85q-42 -32 -104 -52t-126 -20q-119 0 -187 73.5t-68 181.5q0 112 73.5 188t185.5 76q100 0 172.5 -63.5t72.5 -188.5q0 -18 -2 -41h-371q9 -54 45 -86.5t96 -32.5q83 0 150 50zM302 402q-96 0 -124 -102h235q-1 48 -34.5 75t-76.5 27zM132 694h105l67 -77
l66 77h105l-105 -141h-132z" />
    <glyph glyph-name="Gcircumflex" unicode="&#x11c;" horiz-adv-x="801" 
d="M717 556l-95 -89q-41 38 -101 60t-113 22q-92 0 -152 -65t-60 -158q0 -91 59 -156.5t163 -65.5q102 0 166 44v110h-197v118h331v-293q-63 -47 -146 -74.5t-160 -27.5q-156 0 -260.5 100.5t-104.5 245.5q0 144 104.5 245t255.5 101q165 0 310 -117zM235 726l106 139h132
l105 -139h-105l-66 74l-67 -74h-105z" />
    <glyph glyph-name="gcircumflex" unicode="&#x11d;" horiz-adv-x="632" 
d="M420 -28v83q-62 -64 -138 -64q-100 0 -168.5 70.5t-68.5 181.5q0 117 68 189t169 72q44 0 84.5 -23.5t66.5 -53.5q0 31 7 63h124q-11 -58 -11 -140v-373q0 -88 -66 -146t-186 -58q-144 0 -232 79l70 77q69 -51 162 -51q56 0 87.5 26.5t31.5 67.5zM301 103q60 0 119 54
v179q-55 55 -119 55q-48 0 -80.5 -40.5t-32.5 -107.5q0 -62 32.5 -101t80.5 -39zM143 553l106 141h132l105 -141h-105l-66 76l-67 -76h-105z" />
    <glyph glyph-name="Gbreve" unicode="&#x11e;" horiz-adv-x="801" 
d="M717 556l-95 -89q-41 38 -101 60t-113 22q-92 0 -152 -65t-60 -158q0 -91 59 -156.5t163 -65.5q102 0 166 44v110h-197v118h331v-293q-63 -47 -146 -74.5t-160 -27.5q-156 0 -260.5 100.5t-104.5 245.5q0 144 104.5 245t255.5 101q165 0 310 -117zM246 864h93
q0 -68 68 -68q67 0 67 68h93q0 -60 -36 -104t-124 -44t-124.5 44t-36.5 104z" />
    <glyph glyph-name="gbreve" unicode="&#x11f;" horiz-adv-x="632" 
d="M420 -28v83q-62 -64 -138 -64q-100 0 -168.5 70.5t-68.5 181.5q0 117 68 189t169 72q44 0 84.5 -23.5t66.5 -53.5q0 31 7 63h124q-11 -58 -11 -140v-373q0 -88 -66 -146t-186 -58q-144 0 -232 79l70 77q69 -51 162 -51q56 0 87.5 26.5t31.5 67.5zM301 103q60 0 119 54
v179q-55 55 -119 55q-48 0 -80.5 -40.5t-32.5 -107.5q0 -62 32.5 -101t80.5 -39zM154 693h93q0 -70 68 -70q67 0 67 70h93q0 -61 -36 -105.5t-124 -44.5t-124.5 44.5t-36.5 105.5z" />
    <glyph glyph-name="Gdotaccent" unicode="&#x120;" horiz-adv-x="801" 
d="M717 556l-95 -89q-41 38 -101 60t-113 22q-92 0 -152 -65t-60 -158q0 -91 59 -156.5t163 -65.5q102 0 166 44v110h-197v118h331v-293q-63 -47 -146 -74.5t-160 -27.5q-156 0 -260.5 100.5t-104.5 245.5q0 144 104.5 245t255.5 101q165 0 310 -117zM334 798q0 27 21 47
t51 20q31 0 52.5 -20t21.5 -47q0 -28 -21.5 -47t-52.5 -19t-51.5 19t-20.5 47z" />
    <glyph glyph-name="gdotaccent" unicode="&#x121;" horiz-adv-x="632" 
d="M420 -28v83q-62 -64 -138 -64q-100 0 -168.5 70.5t-68.5 181.5q0 117 68 189t169 72q44 0 84.5 -23.5t66.5 -53.5q0 31 7 63h124q-11 -58 -11 -140v-373q0 -88 -66 -146t-186 -58q-144 0 -232 79l70 77q69 -51 162 -51q56 0 87.5 26.5t31.5 67.5zM301 103q60 0 119 54
v179q-55 55 -119 55q-48 0 -80.5 -40.5t-32.5 -107.5q0 -62 32.5 -101t80.5 -39zM242 625q0 27 21 47t51 20q31 0 52.5 -20t21.5 -47q0 -28 -21.5 -47t-52.5 -19t-51.5 19t-20.5 47z" />
    <glyph glyph-name="uni0122" unicode="&#x122;" horiz-adv-x="801" 
d="M717 556l-95 -89q-41 38 -101 60t-113 22q-92 0 -152 -65t-60 -158q0 -91 59 -156.5t163 -65.5q102 0 166 44v110h-197v118h331v-293q-63 -47 -146 -74.5t-160 -27.5q-156 0 -260.5 100.5t-104.5 245.5q0 144 104.5 245t255.5 101q165 0 310 -117zM375 -67l104 26
q38 -41 38 -92q0 -54 -45.5 -87.5t-122.5 -33.5q-41 0 -92 14l11 75q49 -7 57 -7q72 0 72 49q0 29 -22 56z" />
    <glyph glyph-name="uni0123" unicode="&#x123;" horiz-adv-x="632" 
d="M364 569l-106 -20l-5 5l-6 6t-6 6.5t-6.5 7.5t-5.5 8t-5.5 10t-4.5 10t-4 11.5t-2 13t-1 14.5q0 54 43 87t119 33q30 0 54 -7v-76q-13 3 -41 3q-55 0 -55 -48q0 -30 32 -64zM420 -28v83q-62 -64 -138 -64q-100 0 -168.5 70.5t-68.5 181.5q0 117 68 189t169 72
q44 0 84.5 -23.5t66.5 -53.5q0 31 7 63h124q-11 -58 -11 -140v-373q0 -88 -66 -146t-186 -58q-144 0 -232 79l70 77q69 -51 162 -51q56 0 87.5 26.5t31.5 67.5zM301 103q60 0 119 54v179q-55 55 -119 55q-48 0 -80.5 -40.5t-32.5 -107.5q0 -62 32.5 -101t80.5 -39z" />
    <glyph glyph-name="Hcircumflex" unicode="&#x124;" horiz-adv-x="802" 
d="M247 0h-144v653h144v-242h308v242h144v-653h-144v290h-308v-290zM228 726l106 139h132l105 -139h-105l-66 74l-67 -74h-105z" />
    <glyph glyph-name="hcircumflex" unicode="&#x125;" horiz-adv-x="608" 
d="M210 0h-133v700h133v-263q67 67 141 67q83 0 134.5 -49.5t51.5 -126.5v-328h-134v323q0 28 -23.5 48t-58.5 20q-63 0 -111 -63v-328zM-26 765l106 139h132l105 -139h-105l-66 74l-67 -74h-105z" />
    <glyph glyph-name="Hbar" unicode="&#x126;" horiz-adv-x="824" 
d="M21 460v104h95v89h144v-89h304v89h143v-89h96v-104h-96v-460h-143v249h-304v-249h-144v460h-95zM260 367h304v93h-304v-93z" />
    <glyph glyph-name="hbar" unicode="&#x127;" horiz-adv-x="608" 
d="M338 640v-88h-128v-115q67 67 141 67q83 0 134.5 -49.5t51.5 -126.5v-328h-134v323q0 28 -23.5 48t-58.5 20q-63 0 -111 -63v-328h-133v552h-74v88h74v60h133v-60h128z" />
    <glyph glyph-name="Itilde" unicode="&#x128;" horiz-adv-x="349" 
d="M246 0h-143v653h143v-653zM62 721l-80 43q30 53 60 75.5t67 22.5q36 0 72 -25q40 -25 52 -25t23.5 8.5t17 15.5t16.5 22l74 -40q-55 -100 -127 -100q-35 0 -69 23q-3 2 -9.5 6.5t-9.5 6.5t-8 5.5t-8.5 5t-8.5 2.5t-9 1q-6 0 -11.5 -2.5t-9.5 -5t-9 -8.5t-7.5 -9.5t-8 -11
t-7.5 -10.5z" />
    <glyph glyph-name="itilde" unicode="&#x129;" horiz-adv-x="287" 
d="M210 0h-133v488h133v-488zM31 547l-80 43q30 54 60 76.5t67 22.5q36 0 72 -25q37 -25 52 -25q26 0 57 46l74 -40q-55 -100 -127 -100q-34 0 -69 23q-3 2 -9.5 6.5t-9.5 6.5t-8 5.5t-8.5 5t-8.5 2.5t-9 1q-7 0 -13 -2.5t-12 -9t-9 -10t-10 -14t-9 -12.5z" />
    <glyph glyph-name="Imacron" unicode="&#x12a;" horiz-adv-x="349" 
d="M246 0h-143v653h143v-653zM40 838h269v-93h-269v93z" />
    <glyph glyph-name="imacron" unicode="&#x12b;" horiz-adv-x="287" 
d="M210 0h-133v488h133v-488zM9 665h269v-93h-269v93z" />
    <glyph glyph-name="Ibreve" unicode="&#x12c;" horiz-adv-x="349" 
d="M246 0h-143v653h143v-653zM14 864h93q0 -68 68 -68q67 0 67 68h93q0 -60 -36 -104t-124 -44t-124.5 44t-36.5 104z" />
    <glyph glyph-name="ibreve" unicode="&#x12d;" horiz-adv-x="287" 
d="M210 0h-133v488h133v-488zM-17 693h93q0 -70 68 -70q67 0 67 70h93q0 -61 -36 -105.5t-124 -44.5t-124.5 44.5t-36.5 105.5z" />
    <glyph glyph-name="Iogonek" unicode="&#x12e;" horiz-adv-x="349" 
d="M246 0q-103 -45 -103 -96q0 -45 61 -45q15 0 59 8l11 -80q-50 -14 -94 -14q-65 0 -104 29t-39 76q0 68 84 122h-18v653h143v-653z" />
    <glyph glyph-name="iogonek" unicode="&#x12f;" horiz-adv-x="287" 
d="M77 0v488h133v-488q-103 -47 -103 -96q0 -21 16.5 -33t44.5 -12q17 0 59 8l11 -80q-50 -14 -93 -14q-66 0 -105 29t-39 76q0 68 84 122h-8zM143 565q-33 0 -56 20.5t-23 50.5t23 51.5t56 21.5t56.5 -21.5t23.5 -51.5q0 -29 -23 -50t-57 -21z" />
    <glyph glyph-name="Idotaccent" unicode="&#x130;" horiz-adv-x="349" 
d="M246 0h-143v653h143v-653zM102 798q0 27 21 47t51 20q31 0 52.5 -20t21.5 -47q0 -28 -21.5 -47t-52.5 -19t-51.5 19t-20.5 47z" />
    <glyph glyph-name="dotlessi" unicode="&#x131;" horiz-adv-x="287" 
d="M210 0h-133v488h133v-488z" />
    <glyph glyph-name="IJ" unicode="&#x132;" horiz-adv-x="999" 
d="M246 0h-143v653h143v-653zM764 653h144v-417q0 -120 -77.5 -187.5t-202.5 -67.5q-188 0 -273 179l121 63q52 -119 151 -119q62 0 99.5 34.5t37.5 97.5v417z" />
    <glyph glyph-name="ij" unicode="&#x133;" horiz-adv-x="575" 
d="M210 0h-133v488h133v-488zM64 636q0 30 23 51.5t56 21.5t56.5 -21.5t23.5 -51.5q0 -29 -23 -50t-57 -21q-33 0 -56 20.5t-23 50.5zM308 -228l-36 99q21 5 33.5 9t28 13.5t23 25t7.5 37.5v532h133v-532q0 -93 -58 -138.5t-131 -45.5zM350 636q0 30 23 51.5t57 21.5
q33 0 56.5 -21.5t23.5 -51.5q0 -29 -23 -50t-57 -21t-57 20.5t-23 50.5z" />
    <glyph glyph-name="Jcircumflex" unicode="&#x134;" horiz-adv-x="650" 
d="M415 653h144v-417q0 -120 -77.5 -187.5t-202.5 -67.5q-188 0 -273 179l121 63q52 -119 151 -119q62 0 99.5 34.5t37.5 97.5v417zM317 726l106 139h132l105 -139h-105l-66 74l-67 -74h-105z" />
    <glyph glyph-name="jcircumflex" unicode="&#x135;" horiz-adv-x="287" 
d="M21 -228l-36 99q21 5 33.5 9t28 13.5t23 25t7.5 37.5v532h133v-532q0 -93 -58 -138.5t-131 -45.5zM-28 553l106 141h132l105 -141h-105l-66 76l-67 -76h-105z" />
    <glyph glyph-name="uni0136" unicode="&#x136;" horiz-adv-x="772" 
d="M247 653v-284l299 284h180l-272 -255l321 -398h-181l-242 304l-105 -99v-205h-144v653h144zM362 -67l104 26q38 -41 38 -92q0 -54 -45.5 -87.5t-122.5 -33.5q-41 0 -92 14l11 75q49 -7 57 -7q72 0 72 49q0 29 -22 56z" />
    <glyph glyph-name="uni0137" unicode="&#x137;" horiz-adv-x="584" 
d="M388 488h175l-191 -178l211 -310h-165l-141 221l-66 -61v-160h-134v700h134v-389zM248 -61l105 20q14 -14 20.5 -21.5t16 -28t9.5 -42.5q0 -54 -43 -87.5t-119 -33.5q-29 0 -54 8v76q14 -3 41 -3q56 0 56 48q0 28 -32 64z" />
    <glyph glyph-name="kgreenlandic" unicode="&#x138;" horiz-adv-x="584" 
d="M388 488h175l-191 -178l211 -310h-165l-141 221l-66 -61v-160h-134v488h134v-177z" />
    <glyph glyph-name="Lacute" unicode="&#x139;" horiz-adv-x="649" 
d="M103 653h143v-530h384v-123h-527v653zM88 726l100 138h143l-124 -138h-119z" />
    <glyph glyph-name="lacute" unicode="&#x13a;" horiz-adv-x="292" 
d="M213 0h-134v700h134v-700zM59 765l100 138h143l-124 -138h-119z" />
    <glyph glyph-name="uni013B" unicode="&#x13b;" horiz-adv-x="649" 
d="M103 653h143v-530h384v-123h-527v653zM301 -67l104 26q38 -41 38 -92q0 -54 -45.5 -87.5t-122.5 -33.5q-41 0 -92 14l11 75q49 -7 57 -7q72 0 72 49q0 29 -22 56z" />
    <glyph glyph-name="uni013C" unicode="&#x13c;" horiz-adv-x="292" 
d="M213 0h-134v700h134v-700zM102 -61l105 20q14 -14 20.5 -21.5t16 -28t9.5 -42.5q0 -54 -43 -87.5t-119 -33.5q-29 0 -54 8v76q14 -3 41 -3q56 0 56 48q0 28 -32 64z" />
    <glyph glyph-name="Lcaron" unicode="&#x13d;" horiz-adv-x="649" 
d="M103 653h143v-530h384v-123h-527v653zM454 464h-68v236h118q0 -140 -50 -236z" />
    <glyph glyph-name="lcaron" unicode="&#x13e;" horiz-adv-x="292" 
d="M213 0h-134v700h134v-700zM346 464h-68v236h118q0 -137 -50 -236z" />
    <glyph glyph-name="Ldot" unicode="&#x13f;" horiz-adv-x="666" 
d="M103 653h143v-530h384v-123h-527v653zM418 401q0 27 21 47t51 20q31 0 52.5 -20t21.5 -47q0 -28 -21.5 -47t-52.5 -19t-51.5 19t-20.5 47z" />
    <glyph glyph-name="ldot" unicode="&#x140;" horiz-adv-x="372" 
d="M213 0h-134v700h134v-700zM248 360q0 27 21 47t51 20q31 0 52.5 -20t21.5 -47q0 -28 -21.5 -47t-52.5 -19t-51.5 19t-20.5 47z" />
    <glyph glyph-name="Lslash" unicode="&#x141;" horiz-adv-x="677" 
d="M34 173v116l97 56v308h143v-226l195 113v-115l-195 -113v-189h384v-123h-527v229z" />
    <glyph glyph-name="lslash" unicode="&#x142;" horiz-adv-x="327" 
d="M36 241l-18 101l79 43v315h133v-241l74 41l17 -101l-91 -51v-348h-133v275z" />
    <glyph glyph-name="Nacute" unicode="&#x143;" horiz-adv-x="807" 
d="M560 653h144v-653h-124l-332 404h-1v-404h-144v653h123l333 -405h1v405zM316 726l100 138h143l-124 -138h-119z" />
    <glyph glyph-name="nacute" unicode="&#x144;" horiz-adv-x="610" 
d="M196 424q67 80 164 80q75 0 126.5 -50t51.5 -126v-328h-134v323q0 28 -23 48t-58 20q-55 0 -112 -63v-328h-133v349q0 70 -14 139h122q8 -36 10 -64zM314 698h135l-108 -146h-117z" />
    <glyph glyph-name="uni0145" unicode="&#x145;" horiz-adv-x="807" 
d="M560 653h144v-653h-124l-332 404h-1v-404h-144v653h123l333 -405h1v405zM369 -67l104 26q38 -41 38 -92q0 -54 -45.5 -87.5t-122.5 -33.5q-41 0 -92 14l11 75q49 -7 57 -7q72 0 72 49q0 29 -22 56z" />
    <glyph glyph-name="uni0146" unicode="&#x146;" horiz-adv-x="610" 
d="M196 424q67 80 164 80q75 0 126.5 -50t51.5 -126v-328h-134v323q0 28 -23 48t-58 20q-55 0 -112 -63v-328h-133v349q0 70 -14 139h122q8 -36 10 -64zM252 -61l105 20q14 -14 20.5 -21.5t16 -28t9.5 -42.5q0 -54 -43 -87.5t-119 -33.5q-29 0 -54 8v76q14 -3 41 -3
q56 0 56 48q0 28 -32 64z" />
    <glyph glyph-name="Ncaron" unicode="&#x147;" horiz-adv-x="807" 
d="M560 653h144v-653h-124l-332 404h-1v-404h-144v653h123l333 -405h1v405zM336 865l67 -75l66 75h105l-105 -139h-132l-106 139h105z" />
    <glyph glyph-name="ncaron" unicode="&#x148;" horiz-adv-x="610" 
d="M196 424q67 80 164 80q75 0 126.5 -50t51.5 -126v-328h-134v323q0 28 -23 48t-58 20q-55 0 -112 -63v-328h-133v349q0 70 -14 139h122q8 -36 10 -64zM132 694h105l67 -77l66 77h105l-105 -141h-132z" />
    <glyph glyph-name="napostrophe" unicode="&#x149;" horiz-adv-x="610" 
d="M-15 519l-35 57q29 8 58 30.5t29 48.5v6q-12 -4 -23 -4q-22 0 -37 17t-15 41q0 27 21 45t52 18q36 0 62 -26.5t26 -66.5q0 -116 -138 -166zM196 424q67 80 164 80q75 0 126.5 -50t51.5 -126v-328h-134v323q0 28 -23 48t-58 20q-55 0 -112 -63v-328h-133v349q0 70 -14 139
h122q8 -36 10 -64z" />
    <glyph glyph-name="Eng" unicode="&#x14a;" horiz-adv-x="807" 
d="M560 653h144v-625q0 -120 -77.5 -187.5t-202.5 -67.5v123q60 0 97.5 33.5t38.5 94.5l-312 380h-1v-404h-144v653h123l333 -405h1v405z" />
    <glyph glyph-name="eng" unicode="&#x14b;" horiz-adv-x="610" 
d="M538 328v-372q0 -64 -31 -107.5t-72 -60t-86 -16.5l-37 99q21 5 33.5 9.5t28 13.5t23 24.5t7.5 37.5v367q0 28 -23 48t-58 20q-55 0 -112 -63v-328h-133v349q0 70 -14 139h122q8 -36 10 -64q67 80 164 80q75 0 126.5 -50t51.5 -126z" />
    <glyph glyph-name="Omacron" unicode="&#x14c;" horiz-adv-x="835" 
d="M47 328q0 143 107 244t262 101t264 -101t109 -244q0 -145 -109 -246.5t-264 -101.5t-262 101t-107 247zM197 328q0 -93 63.5 -159t155.5 -66q93 0 158 66t65 159q0 91 -65 156t-158 65q-92 0 -155.5 -65t-63.5 -156zM282 838h269v-93h-269v93z" />
    <glyph glyph-name="omacron" unicode="&#x14d;" horiz-adv-x="620" 
d="M44 246q0 110 74 184t191 74q118 0 192.5 -74t74.5 -184q0 -111 -75 -186t-192 -75t-191 75t-74 186zM181 246q0 -63 34.5 -107t93.5 -44q60 0 95.5 44t35.5 107q0 62 -35.5 104.5t-95.5 42.5q-59 0 -93.5 -42.5t-34.5 -104.5zM175 665h269v-93h-269v93z" />
    <glyph glyph-name="Obreve" unicode="&#x14e;" horiz-adv-x="835" 
d="M47 328q0 143 107 244t262 101t264 -101t109 -244q0 -145 -109 -246.5t-264 -101.5t-262 101t-107 247zM197 328q0 -93 63.5 -159t155.5 -66q93 0 158 66t65 159q0 91 -65 156t-158 65q-92 0 -155.5 -65t-63.5 -156zM256 864h93q0 -68 68 -68q67 0 67 68h93
q0 -60 -36 -104t-124 -44t-124.5 44t-36.5 104z" />
    <glyph glyph-name="obreve" unicode="&#x14f;" horiz-adv-x="620" 
d="M44 246q0 110 74 184t191 74q118 0 192.5 -74t74.5 -184q0 -111 -75 -186t-192 -75t-191 75t-74 186zM181 246q0 -63 34.5 -107t93.5 -44q60 0 95.5 44t35.5 107q0 62 -35.5 104.5t-95.5 42.5q-59 0 -93.5 -42.5t-34.5 -104.5zM149 693h93q0 -70 68 -70q67 0 67 70h93
q0 -61 -36 -105.5t-124 -44.5t-124.5 44.5t-36.5 105.5z" />
    <glyph glyph-name="Ohungarumlaut" unicode="&#x150;" horiz-adv-x="835" 
d="M47 328q0 143 107 244t262 101t264 -101t109 -244q0 -145 -109 -246.5t-264 -101.5t-262 101t-107 247zM197 328q0 -93 63.5 -159t155.5 -66q93 0 158 66t65 159q0 91 -65 156t-158 65q-92 0 -155.5 -65t-63.5 -156zM496 867h112l-71 -143h-83zM313 867h112l-71 -143h-83
z" />
    <glyph glyph-name="ohungarumlaut" unicode="&#x151;" horiz-adv-x="620" 
d="M44 246q0 110 74 184t191 74q118 0 192.5 -74t74.5 -184q0 -111 -75 -186t-192 -75t-191 75t-74 186zM181 246q0 -63 34.5 -107t93.5 -44q60 0 95.5 44t35.5 107q0 62 -35.5 104.5t-95.5 42.5q-59 0 -93.5 -42.5t-34.5 -104.5zM389 694h112l-71 -143h-83zM206 694h112
l-71 -143h-83z" />
    <glyph glyph-name="OE" unicode="&#x152;" horiz-adv-x="1248" 
d="M1024 402v-123h-241v-156h424v-123h-567v75q-88 -95 -229 -95q-153 0 -258.5 101t-105.5 247q0 143 106 244t258 101q143 0 229 -96v76h544v-124h-401v-127h241zM197 328q0 -93 62.5 -159t151.5 -66q98 0 165.5 66t67.5 159q0 91 -67.5 156t-165.5 65q-90 0 -152 -65
t-62 -156z" />
    <glyph glyph-name="oe" unicode="&#x153;" horiz-adv-x="986" 
d="M863 142l63 -85q-95 -72 -228 -72q-63 0 -113.5 24.5t-80.5 67.5q-33 -43 -85 -67.5t-110 -24.5q-113 0 -189.5 76t-76.5 185t76 183.5t190 74.5q60 0 113 -25.5t85 -69.5q32 44 82.5 69.5t107.5 25.5q65 0 119 -24t91 -82.5t37 -144.5q0 -19 -2 -42h-371q9 -52 46 -85.5
t92 -33.5q84 0 154 50zM699 402q-97 0 -124 -102h234q0 48 -33.5 75t-76.5 27zM180 246q0 -63 35 -107t94 -44t95 44t36 107q0 62 -35.5 104.5t-95.5 42.5q-59 0 -94 -42.5t-35 -104.5z" />
    <glyph glyph-name="Racute" unicode="&#x154;" horiz-adv-x="780" 
d="M246 0h-143v653h362q128 0 196 -71q54 -57 54 -135q0 -62 -35.5 -109.5t-96.5 -74.5l153 -263h-164l-132 240h-194v-240zM470 532h-224v-171h234q38 0 64.5 24.5t26.5 61.5q0 34 -23 57q-26 28 -78 28zM303 726l100 138h143l-124 -138h-119z" />
    <glyph glyph-name="racute" unicode="&#x155;" horiz-adv-x="409" 
d="M296 376q-24 0 -41.5 -15t-42.5 -47v-314h-134v350q0 62 -14 138h122q7 -38 10 -73q26 43 55 66t73 23q49 0 75 -20l-37 -122q-35 14 -66 14zM215 698h135l-108 -146h-117z" />
    <glyph glyph-name="uni0156" unicode="&#x156;" horiz-adv-x="780" 
d="M246 0h-143v653h362q128 0 196 -71q54 -57 54 -135q0 -62 -35.5 -109.5t-96.5 -74.5l153 -263h-164l-132 240h-194v-240zM470 532h-224v-171h234q38 0 64.5 24.5t26.5 61.5q0 34 -23 57q-26 28 -78 28zM367 -67l104 26q38 -41 38 -92q0 -54 -45.5 -87.5t-122.5 -33.5
q-41 0 -92 14l11 75q49 -7 57 -7q72 0 72 49q0 29 -22 56z" />
    <glyph glyph-name="uni0157" unicode="&#x157;" horiz-adv-x="409" 
d="M296 376q-24 0 -41.5 -15t-42.5 -47v-314h-134v350q0 62 -14 138h122q7 -38 10 -73q26 43 55 66t73 23q49 0 75 -20l-37 -122q-35 14 -66 14zM117 -61l105 20q14 -14 20.5 -21.5t16 -28t9.5 -42.5q0 -54 -43 -87.5t-119 -33.5q-29 0 -54 8v76q14 -3 41 -3q56 0 56 48
q0 28 -32 64z" />
    <glyph glyph-name="Rcaron" unicode="&#x158;" horiz-adv-x="780" 
d="M246 0h-143v653h362q128 0 196 -71q54 -57 54 -135q0 -62 -35.5 -109.5t-96.5 -74.5l153 -263h-164l-132 240h-194v-240zM470 532h-224v-171h234q38 0 64.5 24.5t26.5 61.5q0 34 -23 57q-26 28 -78 28zM323 865l67 -75l66 75h105l-105 -139h-132l-106 139h105z" />
    <glyph glyph-name="rcaron" unicode="&#x159;" horiz-adv-x="409" 
d="M296 376q-24 0 -41.5 -15t-42.5 -47v-314h-134v350q0 62 -14 138h122q7 -38 10 -73q26 43 55 66t73 23q49 0 75 -20l-37 -122q-35 14 -66 14zM33 694h105l67 -77l66 77h105l-105 -141h-132z" />
    <glyph glyph-name="Sacute" unicode="&#x15a;" horiz-adv-x="730" 
d="M647 585l-82 -100q-94 70 -229 70q-53 0 -88 -20t-35 -60q0 -13 5.5 -23.5t18.5 -17.5t24 -11.5t34.5 -7.5t36 -4.5t40.5 -3.5q8 -1 12 -1q34 -2 55 -4t57 -8t59 -14t51 -23.5t44 -35t27.5 -50t11.5 -67.5q0 -114 -82 -169t-212 -55q-201 0 -359 129l81 98
q138 -110 280 -110q65 0 107 24.5t42 68.5t-40.5 61t-124.5 24q-38 2 -63 4.5t-60.5 8.5t-59.5 14t-50.5 22t-41.5 33t-25.5 46.5t-10.5 62.5q0 57 24.5 99t65 64.5t85.5 33t95 10.5q93 0 174.5 -27t132.5 -61zM278 726l100 138h143l-124 -138h-119z" />
    <glyph glyph-name="sacute" unicode="&#x15b;" horiz-adv-x="557" 
d="M491 454l-47 -95q-95 44 -176 44t-81 -47q0 -12 6.5 -20.5t14.5 -13t23.5 -7.5t25 -3.5t26.5 -1.5q36 -2 59.5 -4t60 -11.5t59 -25t39.5 -45t17 -69.5q0 -84 -64.5 -128t-167.5 -44q-130 0 -248 74l47 95q107 -66 203 -66q46 0 71.5 15.5t25.5 41.5q0 16 -9 27t-27 16.5
t-31.5 7t-35.5 3.5q-36 2 -54.5 4t-50.5 7t-49.5 14.5t-36.5 24.5t-27.5 39t-8.5 56q0 85 61 124.5t147 39.5q60 0 125 -17t103 -35zM288 698h135l-108 -146h-117z" />
    <glyph glyph-name="Scircumflex" unicode="&#x15c;" horiz-adv-x="730" 
d="M647 585l-82 -100q-94 70 -229 70q-53 0 -88 -20t-35 -60q0 -13 5.5 -23.5t18.5 -17.5t24 -11.5t34.5 -7.5t36 -4.5t40.5 -3.5q8 -1 12 -1q34 -2 55 -4t57 -8t59 -14t51 -23.5t44 -35t27.5 -50t11.5 -67.5q0 -114 -82 -169t-212 -55q-201 0 -359 129l81 98
q138 -110 280 -110q65 0 107 24.5t42 68.5t-40.5 61t-124.5 24q-38 2 -63 4.5t-60.5 8.5t-59.5 14t-50.5 22t-41.5 33t-25.5 46.5t-10.5 62.5q0 57 24.5 99t65 64.5t85.5 33t95 10.5q93 0 174.5 -27t132.5 -61zM193 726l106 139h132l105 -139h-105l-66 74l-67 -74h-105z" />
    <glyph glyph-name="scircumflex" unicode="&#x15d;" horiz-adv-x="557" 
d="M491 454l-47 -95q-95 44 -176 44t-81 -47q0 -12 6.5 -20.5t14.5 -13t23.5 -7.5t25 -3.5t26.5 -1.5q36 -2 59.5 -4t60 -11.5t59 -25t39.5 -45t17 -69.5q0 -84 -64.5 -128t-167.5 -44q-130 0 -248 74l47 95q107 -66 203 -66q46 0 71.5 15.5t25.5 41.5q0 16 -9 27t-27 16.5
t-31.5 7t-35.5 3.5q-36 2 -54.5 4t-50.5 7t-49.5 14.5t-36.5 24.5t-27.5 39t-8.5 56q0 85 61 124.5t147 39.5q60 0 125 -17t103 -35zM106 553l106 141h132l105 -141h-105l-66 76l-67 -76h-105z" />
    <glyph glyph-name="Scedilla" unicode="&#x15e;" horiz-adv-x="730" 
d="M648 585l-82 -100q-94 70 -229 70q-53 0 -88 -20t-35 -60q0 -13 5.5 -23.5t18.5 -17.5t24 -11.5t34.5 -7.5t36 -4.5t40.5 -3.5q8 -1 12 -1q34 -2 55 -4t57 -8t59 -14t51 -23.5t44 -35t27.5 -50t11.5 -67.5q0 -109 -75.5 -164t-197.5 -59l-6 -13q43 -7 75.5 -28.5
t32.5 -61.5q0 -46 -48 -75.5t-124 -29.5q-50 0 -138 21l19 71q89 -14 108 -14q66 0 66 33q0 18 -19.5 25.5t-39.5 7.5q-14 0 -23 -3l-13 29l20 41q-159 18 -290 125l81 98q137 -110 280 -110q65 0 107 24.5t42 68.5t-40.5 61t-124.5 24q-38 2 -63 4.5t-60.5 8.5t-59.5 14
t-50.5 22t-41.5 33t-25.5 46.5t-10.5 62.5q0 57 24.5 99t65 64.5t85.5 33t95 10.5q93 0 174.5 -27t132.5 -61z" />
    <glyph glyph-name="scedilla" unicode="&#x15f;" horiz-adv-x="557" 
d="M491 454l-47 -95q-95 44 -176 44t-81 -47q0 -12 6.5 -20.5t14.5 -13t23.5 -7.5t25 -3.5t26.5 -1.5q36 -2 59.5 -4t60 -11.5t59 -25t39.5 -45t17 -69.5q0 -74 -50.5 -117t-134.5 -52l-8 -18q43 -7 75.5 -28.5t32.5 -61.5q0 -46 -48 -75.5t-124 -29.5q-50 0 -138 21l19 71
q89 -14 108 -14q66 0 66 33q0 18 -19.5 25.5t-39.5 7.5q-14 0 -23 -3l-13 29l21 42q-108 11 -204 72l47 95q107 -66 203 -66q46 0 71.5 15.5t25.5 41.5q0 16 -9 27t-27 16.5t-31.5 7t-35.5 3.5q-36 2 -54.5 4t-50.5 7t-49.5 14.5t-36.5 24.5t-27.5 39t-8.5 56q0 85 61 124.5
t147 39.5q60 0 125 -17t103 -35z" />
    <glyph glyph-name="Scaron" unicode="&#x160;" horiz-adv-x="730" 
d="M647 585l-82 -100q-94 70 -229 70q-53 0 -88 -20t-35 -60q0 -13 5.5 -23.5t18.5 -17.5t24 -11.5t34.5 -7.5t36 -4.5t40.5 -3.5q8 -1 12 -1q34 -2 55 -4t57 -8t59 -14t51 -23.5t44 -35t27.5 -50t11.5 -67.5q0 -114 -82 -169t-212 -55q-201 0 -359 129l81 98
q138 -110 280 -110q65 0 107 24.5t42 68.5t-40.5 61t-124.5 24q-38 2 -63 4.5t-60.5 8.5t-59.5 14t-50.5 22t-41.5 33t-25.5 46.5t-10.5 62.5q0 57 24.5 99t65 64.5t85.5 33t95 10.5q93 0 174.5 -27t132.5 -61zM298 865l67 -75l66 75h105l-105 -139h-132l-106 139h105z" />
    <glyph glyph-name="scaron" unicode="&#x161;" horiz-adv-x="557" 
d="M491 454l-47 -95q-95 44 -176 44t-81 -47q0 -12 6.5 -20.5t14.5 -13t23.5 -7.5t25 -3.5t26.5 -1.5q36 -2 59.5 -4t60 -11.5t59 -25t39.5 -45t17 -69.5q0 -84 -64.5 -128t-167.5 -44q-130 0 -248 74l47 95q107 -66 203 -66q46 0 71.5 15.5t25.5 41.5q0 16 -9 27t-27 16.5
t-31.5 7t-35.5 3.5q-36 2 -54.5 4t-50.5 7t-49.5 14.5t-36.5 24.5t-27.5 39t-8.5 56q0 85 61 124.5t147 39.5q60 0 125 -17t103 -35zM106 694h105l67 -77l66 77h105l-105 -141h-132z" />
    <glyph glyph-name="uni0162" unicode="&#x162;" horiz-adv-x="668" 
d="M26 529v124h616v-124h-236v-529l-16 -32q43 -7 75.5 -28.5t32.5 -61.5q0 -46 -48 -75.5t-124 -29.5q-50 0 -138 21l19 71q89 -14 108 -14q66 0 66 33q0 18 -19.5 25.5t-39.5 7.5q-14 0 -23 -3l-13 29l29 57h-52v529h-237z" />
    <glyph glyph-name="uni0163" unicode="&#x163;" horiz-adv-x="403" 
d="M22 389v99h85v138h133v-138h120v-99h-120v-253q0 -43 53 -43q22 0 62 7l10 -100q-24 -19 -106 -19h-9l-6 -13q43 -7 75.5 -28.5t32.5 -61.5q0 -46 -48 -75.5t-124 -29.5q-50 0 -138 21l19 71q89 -14 108 -14q66 0 66 33q0 18 -19.5 25.5t-39.5 7.5q-14 0 -23 -3l-13 29
l30 60q-63 37 -63 123v263h-85z" />
    <glyph glyph-name="Tcaron" unicode="&#x164;" horiz-adv-x="668" 
d="M26 529v124h616v-124h-236v-529h-143v529h-237zM267 865l67 -75l66 75h105l-105 -139h-132l-106 139h105z" />
    <glyph glyph-name="tcaron" unicode="&#x165;" horiz-adv-x="403" 
d="M22 389v99h85v138h133v-138h120v-99h-120v-253q0 -43 53 -43q22 0 62 7l10 -100q-24 -19 -106 -19q-62 0 -107 35t-45 110v263h-85zM366 546h-68v236h118q0 -137 -50 -236z" />
    <glyph glyph-name="Tbar" unicode="&#x166;" horiz-adv-x="668" 
d="M26 529v124h616v-124h-236v-144h144v-104h-144v-281h-143v281h-144v104h144v144h-237z" />
    <glyph glyph-name="tbar" unicode="&#x167;" horiz-adv-x="403" 
d="M22 389v99h85v138h133v-138h120v-99h-120v-98h120v-88h-120v-67q0 -43 53 -43q22 0 62 7l10 -100q-24 -19 -106 -19q-62 0 -107 35t-45 110v77h-85v88h85v98h-85z" />
    <glyph glyph-name="Utilde" unicode="&#x168;" horiz-adv-x="778" 
d="M543 653h144v-418q0 -120 -83 -187.5t-216 -67.5q-130 0 -213.5 68t-83.5 187v418h144v-418q0 -62 43.5 -97t109.5 -35q69 0 112 34.5t43 97.5v418zM275 721l-80 43q30 53 60 75.5t67 22.5q36 0 72 -25q40 -25 52 -25t23.5 8.5t17 15.5t16.5 22l74 -40
q-55 -100 -127 -100q-34 0 -69 23q-3 2 -9.5 6.5t-9.5 6.5t-8 5.5t-8.5 5t-8.5 2.5t-9 1q-6 0 -11.5 -2.5t-9.5 -5t-9 -8.5t-7.5 -9.5t-8 -11t-7.5 -10.5z" />
    <glyph glyph-name="utilde" unicode="&#x169;" horiz-adv-x="609" 
d="M413 63q-70 -79 -164 -79q-75 0 -126.5 50t-51.5 126v328h134v-323q0 -29 22.5 -48.5t58.5 -19.5q57 0 112 63v328h133v-350q0 -73 12 -138h-124q-4 22 -6 63zM191 547l-80 43q30 54 60 76.5t67 22.5q36 0 72 -25q37 -25 52 -25q26 0 57 46l74 -40q-55 -100 -127 -100
q-34 0 -69 23q-3 2 -9.5 6.5t-9.5 6.5t-8 5.5t-8.5 5t-8.5 2.5t-9 1q-7 0 -13 -2.5t-12 -9t-9 -10t-10 -14t-9 -12.5z" />
    <glyph glyph-name="Umacron" unicode="&#x16a;" horiz-adv-x="778" 
d="M543 653h144v-418q0 -120 -83 -187.5t-216 -67.5q-130 0 -213.5 68t-83.5 187v418h144v-418q0 -62 43.5 -97t109.5 -35q69 0 112 34.5t43 97.5v418zM253 838h269v-93h-269v93z" />
    <glyph glyph-name="umacron" unicode="&#x16b;" horiz-adv-x="609" 
d="M413 63q-70 -79 -164 -79q-75 0 -126.5 50t-51.5 126v328h134v-323q0 -29 22.5 -48.5t58.5 -19.5q57 0 112 63v328h133v-350q0 -73 12 -138h-124q-4 22 -6 63zM169 665h269v-93h-269v93z" />
    <glyph glyph-name="Ubreve" unicode="&#x16c;" horiz-adv-x="778" 
d="M543 653h144v-418q0 -120 -83 -187.5t-216 -67.5q-130 0 -213.5 68t-83.5 187v418h144v-418q0 -62 43.5 -97t109.5 -35q69 0 112 34.5t43 97.5v418zM227 864h93q0 -68 68 -68q67 0 67 68h93q0 -60 -36 -104t-124 -44t-124.5 44t-36.5 104z" />
    <glyph glyph-name="ubreve" unicode="&#x16d;" horiz-adv-x="609" 
d="M413 63q-70 -79 -164 -79q-75 0 -126.5 50t-51.5 126v328h134v-323q0 -29 22.5 -48.5t58.5 -19.5q57 0 112 63v328h133v-350q0 -73 12 -138h-124q-4 22 -6 63zM143 693h93q0 -70 68 -70q67 0 67 70h93q0 -61 -36 -105.5t-124 -44.5t-124.5 44.5t-36.5 105.5z" />
    <glyph glyph-name="Uring" unicode="&#x16e;" horiz-adv-x="778" 
d="M543 653h144v-418q0 -120 -83 -187.5t-216 -67.5q-130 0 -213.5 68t-83.5 187v418h144v-418q0 -62 43.5 -97t109.5 -35q69 0 112 34.5t43 97.5v418zM327 801q0 -22 16.5 -35.5t41.5 -13.5t41.5 13.5t16.5 35.5q0 23 -16.5 39t-41.5 16t-41.5 -16t-16.5 -39zM385 693
q-65 0 -100.5 31t-35.5 77q0 47 36 79.5t100 32.5q63 0 99.5 -33t36.5 -79t-36.5 -77t-99.5 -31z" />
    <glyph glyph-name="uring" unicode="&#x16f;" horiz-adv-x="609" 
d="M413 63q-70 -79 -164 -79q-75 0 -126.5 50t-51.5 126v328h134v-323q0 -29 22.5 -48.5t58.5 -19.5q57 0 112 63v328h133v-350q0 -73 12 -138h-124q-4 22 -6 63zM243 650q0 -22 16.5 -35.5t41.5 -13.5t41.5 13.5t16.5 35.5q0 24 -16.5 40t-41.5 16t-41.5 -16t-16.5 -40z
M165 650q0 47 36 79.5t100 32.5q63 0 99.5 -32.5t36.5 -79.5q0 -45 -36.5 -76t-99.5 -31q-65 0 -100.5 31t-35.5 76z" />
    <glyph glyph-name="Uhungarumlaut" unicode="&#x170;" horiz-adv-x="778" 
d="M543 653h144v-418q0 -120 -83 -187.5t-216 -67.5q-130 0 -213.5 68t-83.5 187v418h144v-418q0 -62 43.5 -97t109.5 -35q69 0 112 34.5t43 97.5v418zM467 867h112l-71 -143h-83zM284 867h112l-71 -143h-83z" />
    <glyph glyph-name="uhungarumlaut" unicode="&#x171;" horiz-adv-x="609" 
d="M413 63q-70 -79 -164 -79q-75 0 -126.5 50t-51.5 126v328h134v-323q0 -29 22.5 -48.5t58.5 -19.5q57 0 112 63v328h133v-350q0 -73 12 -138h-124q-4 22 -6 63zM383 694h112l-71 -143h-83zM200 694h112l-71 -143h-83z" />
    <glyph glyph-name="Uogonek" unicode="&#x172;" horiz-adv-x="778" 
d="M543 653h144v-418q0 -105 -65 -170.5t-173 -80.5q-69 -36 -69 -80q0 -45 61 -45q15 0 59 8l11 -80q-50 -14 -94 -14q-65 0 -104 29t-39 76q0 58 60 105q-109 13 -176 79.5t-67 172.5v418h144v-418q0 -62 43.5 -97t109.5 -35q69 0 112 34.5t43 97.5v418z" />
    <glyph glyph-name="uogonek" unicode="&#x173;" horiz-adv-x="609" 
d="M413 63q-70 -79 -164 -79q-75 0 -126.5 50t-51.5 126v328h134v-323q0 -29 22.5 -48.5t58.5 -19.5q57 0 112 63v328h133v-350q0 -73 12 -138q-103 -45 -103 -96q0 -45 61 -45q15 0 59 8l11 -80q-50 -14 -94 -14q-65 0 -104 29t-39 76q0 67 85 122q-4 22 -6 63z" />
    <glyph glyph-name="Wcircumflex" unicode="&#x174;" horiz-adv-x="999" 
d="M29 653h156l125 -429h6l134 429h105l133 -429h6l126 429h150l-209 -653h-136l-123 388h-6l-122 -388h-136zM327 726l106 139h132l105 -139h-105l-66 74l-67 -74h-105z" />
    <glyph glyph-name="wcircumflex" unicode="&#x175;" horiz-adv-x="792" 
d="M338 488h121l88 -312h6l76 312h137l-155 -488h-127l-85 299h-6l-86 -299h-126l-155 488h140l78 -312h6zM224 553l106 141h132l105 -141h-105l-66 76l-67 -76h-105z" />
    <glyph glyph-name="Ycircumflex" unicode="&#x176;" horiz-adv-x="670" 
d="M498 653h168l-259 -355v-298h-144v298l-260 355h178l159 -227zM163 726l106 139h132l105 -139h-105l-66 74l-67 -74h-105z" />
    <glyph glyph-name="ycircumflex" unicode="&#x177;" horiz-adv-x="557" 
d="M281 197h6l129 291h137l-329 -695h-139l127 252l-198 443h149zM110 553l106 141h132l105 -141h-105l-66 76l-67 -76h-105z" />
    <glyph glyph-name="Ydieresis" unicode="&#x178;" horiz-adv-x="670" 
d="M498 653h168l-259 -355v-298h-144v298l-260 355h178l159 -227zM149 798q0 27 21 47t51 20q31 0 52.5 -20t21.5 -47q0 -28 -21.5 -47t-52.5 -19t-51.5 19t-20.5 47zM373 798q0 27 21 47t52 20t52.5 -20t21.5 -47q0 -28 -21.5 -47t-52.5 -19t-52 19t-21 47z" />
    <glyph glyph-name="Zacute" unicode="&#x179;" horiz-adv-x="682" 
d="M625 123v-123h-578v84l370 445h-351v124h559v-85l-370 -445h370zM253 726l100 138h143l-124 -138h-119z" />
    <glyph glyph-name="zacute" unicode="&#x17a;" horiz-adv-x="533" 
d="M482 103v-103h-440v74l255 310h-236v104h421v-75l-255 -310h255zM277 698h135l-108 -146h-117z" />
    <glyph glyph-name="Zdotaccent" unicode="&#x17b;" horiz-adv-x="682" 
d="M625 123v-123h-578v84l370 445h-351v124h559v-85l-370 -445h370zM267 798q0 27 21 47t51 20q31 0 52.5 -20t21.5 -47q0 -28 -21.5 -47t-52.5 -19t-51.5 19t-20.5 47z" />
    <glyph glyph-name="zdotaccent" unicode="&#x17c;" horiz-adv-x="533" 
d="M482 103v-103h-440v74l255 310h-236v104h421v-75l-255 -310h255zM194 625q0 27 21 47t51 20q31 0 52.5 -20t21.5 -47q0 -28 -21.5 -47t-52.5 -19t-51.5 19t-20.5 47z" />
    <glyph glyph-name="Zcaron" unicode="&#x17d;" horiz-adv-x="682" 
d="M625 123v-123h-578v84l370 445h-351v124h559v-85l-370 -445h370zM273 865l67 -75l66 75h105l-105 -139h-132l-106 139h105z" />
    <glyph glyph-name="zcaron" unicode="&#x17e;" horiz-adv-x="533" 
d="M482 103v-103h-440v74l255 310h-236v104h421v-75l-255 -310h255zM95 694h105l67 -77l66 77h105l-105 -141h-132z" />
    <glyph glyph-name="Schwa" unicode="&#x18f;" horiz-adv-x="780" 
d="M375 -20q-63 0 -119.5 18.5t-103.5 56t-75.5 102t-28.5 147.5q0 25 2 46h531q-8 86 -63 142.5t-143 56.5q-58 0 -118.5 -24t-100.5 -59l-93 92q56 50 139.5 82.5t174.5 32.5q161 0 257.5 -100.5t96.5 -245.5q0 -148 -101.5 -247.5t-254.5 -99.5zM378 101q69 0 118.5 37.5
t69.5 101.5h-366q5 -68 57 -103.5t121 -35.5z" />
    <glyph glyph-name="florin" unicode="&#x192;" horiz-adv-x="497" 
d="M51 344h114l27 119q14 64 67.5 94t115.5 30q74 0 100 -14l-30 -97q-31 7 -69 7q-47 0 -54 -30l-25 -109h123v-82h-141l-58 -261q-13 -59 -51.5 -98t-83 -54.5t-92.5 -15.5l-10 96q21 5 34 9.5t30 13t27.5 22.5t14.5 33l57 255h-96v82z" />
    <glyph glyph-name="Aringacute" unicode="&#x1fa;" horiz-adv-x="753" 
d="M12 0l303 653h123l303 -653h-157l-60 138h-302l-59 -138h-151zM370 482l-99 -231h204l-99 231h-6zM315 801q0 -22 16.5 -35.5t41.5 -13.5t41.5 13.5t16.5 35.5q0 23 -16.5 39t-41.5 16t-41.5 -16t-16.5 -39zM373 693q-65 0 -100.5 31t-35.5 77q0 47 36 79.5t100 32.5
q63 0 99.5 -33t36.5 -79t-36.5 -77t-99.5 -31zM289 959l100 138h143l-124 -138h-119z" />
    <glyph glyph-name="aringacute" unicode="&#x1fb;" horiz-adv-x="598" 
d="M113 353l-41 99q104 52 228 52q95 0 160 -36t65 -112v-261q0 -52 14 -95h-132q-5 16 -12 56q-33 -32 -69.5 -50t-94.5 -18q-87 0 -140 47t-53 119q0 70 57.5 116t156.5 46q89 0 140 -40v49q0 37 -28 55.5t-75 18.5q-43 0 -93.5 -14.5t-82.5 -31.5zM260 86q74 0 132 54v47
q-41 35 -113 35q-56 0 -82 -19t-26 -49q0 -31 23.5 -49.5t65.5 -18.5zM238 650q0 -22 16.5 -35.5t41.5 -13.5t41.5 13.5t16.5 35.5q0 24 -16.5 40t-41.5 16t-41.5 -16t-16.5 -40zM160 650q0 47 36 79.5t100 32.5q63 0 99.5 -32.5t36.5 -79.5q0 -45 -36.5 -76t-99.5 -31
q-65 0 -100.5 31t-35.5 76zM212 796l100 138h143l-124 -138h-119z" />
    <glyph glyph-name="AEacute" unicode="&#x1fc;" horiz-adv-x="1071" 
d="M463 0v138h-237l-94 -138h-155l448 653h581v-124h-400v-127h240v-123h-240v-156h423v-123h-566zM458 482l-157 -231h162v231h-5zM530 726l100 138h143l-124 -138h-119z" />
    <glyph glyph-name="aeacute" unicode="&#x1fd;" horiz-adv-x="937" 
d="M814 142l63 -85q-95 -72 -228 -72q-128 0 -201 89q-91 -88 -217 -88q-87 0 -140 47.5t-53 120.5q0 70 57.5 116t156.5 46q92 0 142 -40v49q0 37 -29 55.5t-76 18.5q-43 0 -93.5 -14.5t-82.5 -31.5l-41 99q104 52 228 52q132 0 175 -69l4 -5q30 34 75.5 54t93.5 20
q65 0 119 -24t91 -82.5t37 -144.5q0 -18 -2 -42h-371q9 -52 46 -85.5t92 -33.5q84 0 154 50zM260 86q86 0 144 67q-6 18 -9 33q-48 36 -116 36q-56 0 -82 -19t-26 -49q0 -31 23.5 -49.5t65.5 -18.5zM650 402q-99 0 -126 -102h236q0 48 -33.5 75t-76.5 27zM478 698h135
l-108 -146h-117z" />
    <glyph glyph-name="Oslashacute" unicode="&#x1fe;" horiz-adv-x="835" 
d="M47 328q0 143 107 244t262 101q80 0 157 -32l56 80l86 -58l-53 -76q60 -48 93.5 -115.5t33.5 -143.5q0 -145 -109 -246.5t-264 -101.5q-79 0 -156 31l-55 -79l-86 58l52 75q-124 103 -124 263zM639 328q0 84 -56 146l-248 -356q37 -15 81 -15q93 0 158 66t65 159z
M197 328q0 -85 54 -149l247 354q-42 16 -82 16q-92 0 -155.5 -65t-63.5 -156zM330 726l100 138h143l-124 -138h-119z" />
    <glyph glyph-name="oslashacute" unicode="&#x1ff;" horiz-adv-x="620" 
d="M320 698h135l-108 -146h-117zM150 -61l-73 51l46 65q-79 76 -79 191q0 110 74 184t192 74q60 0 112 -22l48 68l72 -51l-45 -64q80 -75 80 -189q0 -111 -75 -186t-192 -75q-60 0 -113 22zM310 88q62 0 99 46t37 112q0 46 -21 86l-164 -235q21 -9 49 -9zM176 246
q0 -49 20 -87l162 232q-21 9 -48 9q-62 0 -98 -44t-36 -110z" />
    <glyph glyph-name="uni0218" unicode="&#x218;" horiz-adv-x="730" 
d="M647 585l-82 -100q-94 70 -229 70q-53 0 -88 -20t-35 -60q0 -13 5.5 -23.5t18.5 -17.5t24 -11.5t34.5 -7.5t36 -4.5t40.5 -3.5q8 -1 12 -1q34 -2 55 -4t57 -8t59 -14t51 -23.5t44 -35t27.5 -50t11.5 -67.5q0 -114 -82 -169t-212 -55q-201 0 -359 129l81 98
q138 -110 280 -110q65 0 107 24.5t42 68.5t-40.5 61t-124.5 24q-38 2 -63 4.5t-60.5 8.5t-59.5 14t-50.5 22t-41.5 33t-25.5 46.5t-10.5 62.5q0 57 24.5 99t65 64.5t85.5 33t95 10.5q93 0 174.5 -27t132.5 -61zM342 -67l104 26q38 -41 38 -92q0 -54 -45.5 -87.5
t-122.5 -33.5q-41 0 -92 14l11 75q49 -7 57 -7q72 0 72 49q0 29 -22 56z" />
    <glyph glyph-name="uni0219" unicode="&#x219;" horiz-adv-x="557" 
d="M491 454l-47 -95q-95 44 -176 44t-81 -47q0 -12 6.5 -20.5t14.5 -13t23.5 -7.5t25 -3.5t26.5 -1.5q36 -2 59.5 -4t60 -11.5t59 -25t39.5 -45t17 -69.5q0 -84 -64.5 -128t-167.5 -44q-130 0 -248 74l47 95q107 -66 203 -66q46 0 71.5 15.5t25.5 41.5q0 16 -9 27t-27 16.5
t-31.5 7t-35.5 3.5q-36 2 -54.5 4t-50.5 7t-49.5 14.5t-36.5 24.5t-27.5 39t-8.5 56q0 85 61 124.5t147 39.5q60 0 125 -17t103 -35zM211 -61l105 20q14 -14 20.5 -21.5t16 -28t9.5 -42.5q0 -54 -43 -87.5t-119 -33.5q-29 0 -54 8v76q14 -3 41 -3q56 0 56 48q0 28 -32 64z
" />
    <glyph glyph-name="uni021A" unicode="&#x21a;" horiz-adv-x="668" 
d="M26 529v124h616v-124h-236v-529h-143v529h-237zM311 -67l104 26q38 -41 38 -92q0 -54 -45.5 -87.5t-122.5 -33.5q-41 0 -92 14l11 75q49 -7 57 -7q72 0 72 49q0 29 -22 56z" />
    <glyph glyph-name="uni021B" unicode="&#x21b;" horiz-adv-x="403" 
d="M22 389v99h85v138h133v-138h120v-99h-120v-253q0 -43 53 -43q22 0 62 7l10 -100q-24 -19 -106 -19q-62 0 -107 35t-45 110v263h-85zM171 -61l105 20q14 -14 20.5 -21.5t16 -28t9.5 -42.5q0 -54 -43 -87.5t-119 -33.5q-29 0 -54 8v76q14 -3 41 -3q56 0 56 48q0 28 -32 64z
" />
    <glyph glyph-name="dotlessj" unicode="&#x237;" horiz-adv-x="287" 
d="M21 -228l-36 99q21 5 33.5 9t28 13.5t23 25t7.5 37.5v532h133v-532q0 -93 -58 -138.5t-131 -45.5z" />
    <glyph glyph-name="schwa" unicode="&#x259;" horiz-adv-x="590" 
d="M124 346l-63 85q94 73 228 73q118 0 187.5 -73.5t69.5 -180.5q0 -112 -73.5 -188.5t-183.5 -76.5q-103 0 -175 63t-72 190q0 17 2 39h371q-8 53 -45 86t-93 33q-87 0 -153 -50zM288 86q96 0 123 103h-234q1 -48 34.5 -75.5t76.5 -27.5z" />
    <glyph glyph-name="circumflex" unicode="&#x2c6;" 
d="M76 553l106 141h132l105 -141h-105l-66 76l-67 -76h-105z" />
    <glyph glyph-name="caron" unicode="&#x2c7;" 
d="M76 694h105l67 -77l66 77h105l-105 -141h-132z" />
    <glyph glyph-name="breve" unicode="&#x2d8;" 
d="M87 693h93q0 -70 68 -70q67 0 67 70h93q0 -61 -36 -105.5t-124 -44.5t-124.5 44.5t-36.5 105.5z" />
    <glyph glyph-name="dotaccent" unicode="&#x2d9;" 
d="M175 625q0 27 21 47t51 20q31 0 52.5 -20t21.5 -47q0 -28 -21.5 -47t-52.5 -19t-51.5 19t-20.5 47z" />
    <glyph glyph-name="ring" unicode="&#x2da;" 
d="M187 650q0 -22 16.5 -35.5t41.5 -13.5t41.5 13.5t16.5 35.5q0 24 -16.5 40t-41.5 16t-41.5 -16t-16.5 -40zM109 650q0 47 36 79.5t100 32.5q63 0 99.5 -32.5t36.5 -79.5q0 -45 -36.5 -76t-99.5 -31q-65 0 -100.5 31t-35.5 76z" />
    <glyph glyph-name="ogonek" unicode="&#x2db;" 
d="M254 34l61 -34q-103 -45 -103 -96q0 -45 61 -45q15 0 59 8l11 -80q-50 -14 -94 -14q-65 0 -104 29t-39 76q0 92 148 156z" />
    <glyph glyph-name="tilde" unicode="&#x2dc;" 
d="M135 547l-80 43q30 54 60 76.5t67 22.5q36 0 72 -25q37 -25 52 -25q26 0 57 46l74 -40q-55 -100 -127 -100q-34 0 -69 23q-3 2 -9.5 6.5t-9.5 6.5t-8 5.5t-8.5 5t-8.5 2.5t-9 1q-7 0 -13 -2.5t-12 -9t-9 -10t-10 -14t-9 -12.5z" />
    <glyph glyph-name="hungarumlaut" unicode="&#x2dd;" 
d="M327 694h112l-71 -143h-83zM144 694h112l-71 -143h-83z" />
    <glyph glyph-name="Delta" unicode="&#x394;" horiz-adv-x="727" 
d="M46 102l256 551h124l254 -551v-102h-634v102zM357 482l-158 -368h323l-159 368h-6z" />
    <glyph glyph-name="Delta" unicode="&#x2206;" horiz-adv-x="727" 
d="M46 102l256 551h124l254 -551v-102h-634v102zM357 482l-158 -368h323l-159 368h-6z" />
    <glyph glyph-name="Omega" unicode="&#x3a9;" horiz-adv-x="872" 
d="M69 0v114h155q-79 36 -124.5 100.5t-45.5 142.5q0 131 110.5 223.5t270.5 92.5t272 -92.5t112 -223.5q0 -76 -47.5 -141.5t-126.5 -101.5h155v-114h-308v105q79 21 128 86.5t49 150.5q0 86 -68 146.5t-166 60.5q-97 0 -163.5 -60t-66.5 -147q0 -84 47.5 -149t125.5 -88
v-105h-309z" />
    <glyph glyph-name="Omega" unicode="&#x2126;" horiz-adv-x="872" 
d="M69 0v114h155q-79 36 -124.5 100.5t-45.5 142.5q0 131 110.5 223.5t270.5 92.5t272 -92.5t112 -223.5q0 -76 -47.5 -141.5t-126.5 -101.5h155v-114h-308v105q79 21 128 86.5t49 150.5q0 86 -68 146.5t-166 60.5q-97 0 -163.5 -60t-66.5 -147q0 -84 47.5 -149t125.5 -88
v-105h-309z" />
    <glyph glyph-name="pi" unicode="&#x3c0;" horiz-adv-x="683" 
d="M33 379v104h619v-104h-99l-31 -298q-4 -37 -1 -81h-133q-3 43 1 81l31 298h-144l-41 -379h-132l41 379h-111z" />
    <glyph glyph-name="Wgrave" unicode="&#x1e80;" horiz-adv-x="999" 
d="M29 653h156l125 -429h6l134 429h105l133 -429h6l126 429h150l-209 -653h-136l-123 388h-6l-122 -388h-136zM486 864l100 -138h-120l-123 138h143z" />
    <glyph glyph-name="wgrave" unicode="&#x1e81;" horiz-adv-x="792" 
d="M338 488h121l88 -312h6l76 312h137l-155 -488h-127l-85 299h-6l-86 -299h-126l-155 488h140l78 -312h6zM251 698h134l90 -146h-116z" />
    <glyph glyph-name="Wacute" unicode="&#x1e82;" horiz-adv-x="999" 
d="M29 653h156l125 -429h6l134 429h105l133 -429h6l126 429h150l-209 -653h-136l-123 388h-6l-122 -388h-136zM412 726l100 138h143l-124 -138h-119z" />
    <glyph glyph-name="wacute" unicode="&#x1e83;" horiz-adv-x="792" 
d="M338 488h121l88 -312h6l76 312h137l-155 -488h-127l-85 299h-6l-86 -299h-126l-155 488h140l78 -312h6zM406 698h135l-108 -146h-117z" />
    <glyph glyph-name="Wdieresis" unicode="&#x1e84;" horiz-adv-x="999" 
d="M29 653h156l125 -429h6l134 429h105l133 -429h6l126 429h150l-209 -653h-136l-123 388h-6l-122 -388h-136zM313 798q0 27 21 47t51 20q31 0 52.5 -20t21.5 -47q0 -28 -21.5 -47t-52.5 -19t-51.5 19t-20.5 47zM537 798q0 27 21 47t52 20t52.5 -20t21.5 -47
q0 -28 -21.5 -47t-52.5 -19t-52 19t-21 47z" />
    <glyph glyph-name="wdieresis" unicode="&#x1e85;" horiz-adv-x="792" 
d="M338 488h121l88 -312h6l76 312h137l-155 -488h-127l-85 299h-6l-86 -299h-126l-155 488h140l78 -312h6zM210 625q0 27 21 47t51 20q31 0 52.5 -20t21.5 -47q0 -28 -21.5 -47t-52.5 -19t-51.5 19t-20.5 47zM434 625q0 27 21 47t52 20t52.5 -20t21.5 -47q0 -28 -21.5 -47
t-52.5 -19t-52 19t-21 47z" />
    <glyph glyph-name="Ygrave" unicode="&#x1ef2;" horiz-adv-x="670" 
d="M498 653h168l-259 -355v-298h-144v298l-260 355h178l159 -227zM322 864l100 -138h-120l-123 138h143z" />
    <glyph glyph-name="ygrave" unicode="&#x1ef3;" horiz-adv-x="557" 
d="M281 197h6l129 291h137l-329 -695h-139l127 252l-198 443h149zM137 698h134l90 -146h-116z" />
    <glyph glyph-name="endash" unicode="&#x2013;" horiz-adv-x="629" 
d="M63 208v114h503v-114h-503z" />
    <glyph glyph-name="emdash" unicode="&#x2014;" horiz-adv-x="1083" 
d="M63 208v114h957v-114h-957z" />
    <glyph glyph-name="quoteleft" unicode="&#x2018;" horiz-adv-x="304" 
d="M230 683l30 -70q-41 -10 -80.5 -38t-39.5 -60v-8q20 5 29 5q32 0 54 -20.5t22 -50.5q0 -33 -26 -55.5t-64 -22.5q-45 0 -77 32.5t-32 82.5q0 43 17 79t46.5 60t58.5 39.5t62 26.5z" />
    <glyph glyph-name="quoteright" unicode="&#x2019;" horiz-adv-x="302" 
d="M79 353l-31 69q41 10 80.5 38t39.5 60v8q-20 -5 -28 -5q-32 0 -54 20.5t-22 51.5q0 33 26 55.5t64 22.5q44 0 76 -33t32 -83q0 -43 -17 -78.5t-46 -59.5t-58 -39.5t-62 -26.5z" />
    <glyph glyph-name="quotesinglbase" unicode="&#x201a;" horiz-adv-x="309" 
d="M71 -171l-30 69q41 10 80.5 38t39.5 60v8q-20 -5 -29 -5q-32 0 -54 20.5t-22 51.5q0 33 26 55.5t64 22.5q45 0 77 -32.5t32 -83.5q0 -43 -17 -78.5t-46 -59.5t-58.5 -39.5t-62.5 -26.5z" />
    <glyph glyph-name="quotedblleft" unicode="&#x201c;" horiz-adv-x="580" 
d="M230 683l30 -70q-41 -10 -80.5 -38t-39.5 -60v-8q20 5 29 5q32 0 54 -20.5t22 -50.5q0 -33 -26 -55.5t-64 -22.5q-45 0 -77 32.5t-32 82.5q0 43 17 79t46.5 60t58.5 39.5t62 26.5zM506 683l30 -70q-41 -10 -80.5 -38t-39.5 -60v-8q20 5 29 5q32 0 54 -20.5t22 -50.5
q0 -33 -26 -55.5t-64 -22.5q-45 0 -77 32.5t-32 82.5q0 43 17 79t46.5 60t58.5 39.5t62 26.5z" />
    <glyph glyph-name="quotedblright" unicode="&#x201d;" horiz-adv-x="578" 
d="M355 353l-31 69q41 10 80.5 38t39.5 60v8q-20 -5 -28 -5q-32 0 -54 20.5t-22 51.5q0 33 26 55.5t64 22.5q44 0 76 -33t32 -83q0 -43 -17 -78.5t-46 -59.5t-58 -39.5t-62 -26.5zM79 353l-31 69q41 10 80.5 38t39.5 60v8q-20 -5 -28 -5q-32 0 -54 20.5t-22 51.5
q0 33 26 55.5t64 22.5q44 0 76 -33t32 -83q0 -43 -17 -78.5t-46 -59.5t-58 -39.5t-62 -26.5z" />
    <glyph glyph-name="quotedblbase" unicode="&#x201e;" horiz-adv-x="585" 
d="M347 -171l-30 69q41 10 80.5 38t39.5 60v8q-20 -5 -29 -5q-32 0 -54 20.5t-22 51.5q0 33 26 55.5t64 22.5q45 0 77 -32.5t32 -83.5q0 -43 -17 -78.5t-46 -59.5t-58.5 -39.5t-62.5 -26.5zM71 -171l-30 69q41 10 80.5 38t39.5 60v8q-20 -5 -29 -5q-32 0 -54 20.5t-22 51.5
q0 33 26 55.5t64 22.5q45 0 77 -32.5t32 -83.5q0 -43 -17 -78.5t-46 -59.5t-58.5 -39.5t-62.5 -26.5z" />
    <glyph glyph-name="dagger" unicode="&#x2020;" horiz-adv-x="507" 
d="M196 700h113v-161h151v-94h-151v-366h-113v366h-149v94h149v161z" />
    <glyph glyph-name="daggerdbl" unicode="&#x2021;" horiz-adv-x="521" 
d="M316 245v-166h-113v166h-149v95h149v105h-149v94h149v161h113v-161h151v-94h-151v-105h151v-95h-151z" />
    <glyph glyph-name="bullet" unicode="&#x2022;" horiz-adv-x="453" 
d="M226 130q-71 0 -121.5 47.5t-50.5 114.5q0 68 50.5 115.5t121.5 47.5t121.5 -47.5t50.5 -115.5q0 -67 -50.5 -114.5t-121.5 -47.5z" />
    <glyph glyph-name="ellipsis" unicode="&#x2026;" horiz-adv-x="1000" 
d="M82 69q0 35 27 60t66 25t66 -25t27 -60t-27 -59.5t-66 -24.5q-40 0 -66.5 24.5t-26.5 59.5zM406 69q0 35 27 60t66 25t66 -25t27 -60t-27 -59.5t-66 -24.5q-40 0 -66.5 24.5t-26.5 59.5zM730 69q0 35 27 60t66 25t66 -25t27 -60t-27 -59.5t-66 -24.5q-40 0 -66.5 24.5
t-26.5 59.5z" />
    <glyph glyph-name="perthousand" unicode="&#x2030;" horiz-adv-x="1490" 
d="M49 444q0 73 58.5 124.5t142.5 51.5q83 0 143.5 -52t60.5 -124q0 -73 -60.5 -125.5t-143.5 -52.5q-84 0 -142.5 52t-58.5 126zM761 605l-360 -605h-113l360 605h113zM168 444q0 -33 24 -56.5t58 -23.5q35 0 60 23.5t25 56.5q0 32 -25 55t-60 23q-34 0 -58 -23t-24 -55z
M595 162q0 72 59 124.5t142 52.5t143.5 -52.5t60.5 -124.5q0 -73 -60 -125t-144 -52t-142.5 51.5t-58.5 125.5zM713 162q0 -32 24.5 -55.5t58.5 -23.5q35 0 60 23.5t25 55.5t-25 55.5t-60 23.5q-34 0 -58.5 -23.5t-24.5 -55.5zM1039 162q0 72 59 124.5t142 52.5
q84 0 144.5 -52.5t60.5 -124.5q0 -73 -60.5 -125t-144.5 -52t-142.5 51.5t-58.5 125.5zM1158 162q0 -32 24 -55.5t58 -23.5q35 0 61 23.5t26 55.5t-26 55.5t-61 23.5q-34 0 -58 -23.5t-24 -55.5z" />
    <glyph glyph-name="guilsinglleft" unicode="&#x2039;" horiz-adv-x="359" 
d="M147 406h150l-126 -151v-8l126 -149h-150l-101 125v57z" />
    <glyph glyph-name="guilsinglright" unicode="&#x203a;" horiz-adv-x="359" 
d="M62 406h149l102 -126v-57l-102 -125h-149l125 149v8z" />
    <glyph glyph-name="fraction" unicode="&#x2044;" horiz-adv-x="216" 
d="M238 653h114l-371 -653h-115z" />
    <glyph glyph-name="zero.superior" unicode="&#x2070;" horiz-adv-x="578" 
d="M34 437q0 96 74.5 163.5t179.5 67.5q106 0 181.5 -67.5t75.5 -163.5t-75.5 -164t-181.5 -68q-105 0 -179.5 68t-74.5 164zM151 437q0 -54 40 -94t97 -40t98 40t41 94t-41 93t-98 39t-97 -39t-40 -93z" />
    <glyph glyph-name="four.superior" unicode="&#x2074;" horiz-adv-x="570" 
d="M539 394v-87h-82v-87h-118v87h-318v67l331 279h105v-259h82zM186 396v-2h153v122h-8q-9 -7 -63 -51.5t-82 -68.5z" />
    <glyph glyph-name="five.superior" unicode="&#x2075;" horiz-adv-x="529" 
d="M448 653v-94h-271v-90q60 44 133 44q77 0 134 -37t57 -106q0 -56 -36.5 -95t-88.5 -54.5t-114 -15.5q-125 0 -239 57l51 84q91 -47 188 -47q49 0 82.5 18t33.5 53q0 26 -25 39.5t-61 13.5q-73 0 -152 -45l-69 47v228h377z" />
    <glyph glyph-name="six.superior" unicode="&#x2076;" horiz-adv-x="536" 
d="M487 627l-55 -78q-58 25 -126 25q-64 0 -110 -34.5t-50 -95.5q79 61 172 61q89 0 138.5 -41.5t49.5 -98.5q0 -68 -61 -114t-154 -46q-105 0 -181 59.5t-76 164.5q0 108 79.5 173.5t190.5 65.5q90 0 183 -41zM301 419q-70 0 -144 -42q16 -37 52.5 -57.5t81.5 -20.5
q42 0 70 20t28 47q0 20 -22 36.5t-66 16.5z" />
    <glyph glyph-name="seven.superior" unicode="&#x2077;" horiz-adv-x="485" 
d="M28 554v99h430v-89l-244 -344h-149l250 334h-287z" />
    <glyph glyph-name="eight.superior" unicode="&#x2078;" horiz-adv-x="540" 
d="M270 203q-97 0 -167 39.5t-70 105.5q0 41 26.5 69.5t68.5 42.5q-70 24 -70 85q0 39 34.5 68.5t81.5 42.5t97 13q79 0 145 -33.5t66 -93.5q0 -62 -70 -82q42 -14 68 -42.5t26 -69.5q0 -66 -70 -105.5t-166 -39.5zM270 298q45 0 78 15.5t33 41.5q0 27 -34.5 42t-76.5 15
t-77 -15.5t-35 -41.5t33.5 -41.5t78.5 -15.5zM270 494q87 0 87 42q0 22 -27.5 34.5t-59.5 12.5q-33 0 -60 -12.5t-27 -34.5q0 -42 87 -42z" />
    <glyph glyph-name="nine.superior" unicode="&#x2079;" horiz-adv-x="536" 
d="M49 245l55 79q59 -26 126 -26q64 0 109.5 34.5t49.5 94.5q-81 -60 -171 -60q-88 0 -138 42t-50 98q0 68 60.5 114.5t153.5 46.5q106 0 182 -59.5t76 -164.5q0 -109 -79.5 -174t-190.5 -65q-83 0 -183 40zM235 454q66 0 144 41q-16 37 -52.5 58t-81.5 21q-42 0 -70 -20
t-28 -47q0 -21 21.5 -37t66.5 -16z" />
    <glyph glyph-name="parenleft.superior" unicode="&#x207d;" horiz-adv-x="304" 
d="M289 168l-55 -66q-97 49 -151 128t-54 176t54 176.5t151 128.5l55 -66q-65 -38 -103.5 -101t-38.5 -138t38.5 -137.5t103.5 -100.5z" />
    <glyph glyph-name="parenright.superior" unicode="&#x207e;" horiz-adv-x="304" 
d="M14 645l55 66q97 -49 151 -128.5t54 -176.5t-54 -176t-151 -128l-55 66q65 38 103.5 100.5t38.5 137.5t-38.5 138t-103.5 101z" />
    <glyph glyph-name="n.superior" unicode="&#x207f;" horiz-adv-x="475" 
d="M173 220h-109v251q0 54 -10 104h99q3 -13 7 -45q50 57 121 57q57 0 97 -37t40 -92v-238h-108v235q0 18 -16.5 31t-41.5 13q-41 0 -79 -44v-235z" />
    <glyph glyph-name="zero.inferior" unicode="&#x2080;" horiz-adv-x="573" 
d="M31 49q0 96 74.5 163.5t179.5 67.5q106 0 181.5 -67.5t75.5 -163.5t-75.5 -164t-181.5 -68q-105 0 -179.5 68t-74.5 164zM148 49q0 -54 40 -94t97 -40t98 40t41 94t-41 93t-98 39t-97 -39t-40 -93z" />
    <glyph glyph-name="one.inferior" unicode="&#x2081;" horiz-adv-x="328" 
d="M29 115l-25 92l140 58h106v-433h-119v324z" />
    <glyph glyph-name="two.inferior" unicode="&#x2082;" horiz-adv-x="482" 
d="M101 119l-65 75q39 29 63 43.5t66 28.5t88 14q79 0 135 -33t56 -98q0 -28 -12.5 -51.5t-28 -37.5t-44.5 -28t-46.5 -20t-50.5 -16q-54 -17 -78.5 -32.5t-24.5 -38.5v-2h276v-91h-394v73q0 75 55.5 119t151.5 68q78 22 78 57q0 37 -69 37q-75 0 -156 -67z" />
    <glyph glyph-name="three.inferior" unicode="&#x2083;" horiz-adv-x="534" 
d="M220 15v86h81q23 0 36 11t13 27q0 24 -23 35.5t-52 11.5q-75 0 -155 -67l-66 71q110 90 223 90q44 0 85 -11.5t73.5 -41.5t32.5 -73q0 -49 -47 -78q80 -29 80 -105q0 -72 -68.5 -113t-172.5 -41q-142 0 -243 92l65 74q82 -72 178 -72q53 0 88 17.5t35 47.5q0 39 -66 39
h-97z" />
    <glyph glyph-name="four.inferior" unicode="&#x2084;" horiz-adv-x="566" 
d="M539 6v-87h-82v-87h-118v87h-318v67l331 279h105v-259h82zM186 8v-2h153v122h-8q-9 -7 -63 -51.5t-82 -68.5z" />
    <glyph glyph-name="five.inferior" unicode="&#x2085;" horiz-adv-x="526" 
d="M446 265v-94h-270v-90q60 44 133 44q77 0 133.5 -37t56.5 -106q0 -56 -36.5 -95t-88.5 -54.5t-113 -15.5q-125 0 -239 57l51 84q89 -47 188 -47q49 0 82.5 18t33.5 53q0 26 -25 39.5t-62 13.5q-72 0 -151 -45l-69 47v228h376z" />
    <glyph glyph-name="six.inferior" unicode="&#x2086;" horiz-adv-x="533" 
d="M485 239l-56 -78q-58 25 -125 25q-65 0 -111 -34.5t-50 -95.5q82 61 172 61q89 0 139 -41.5t50 -98.5q0 -68 -61 -114t-154 -46q-105 0 -181 59.5t-76 164.5q0 108 79.5 173.5t189.5 65.5q88 0 184 -41zM299 31q-69 0 -145 -41q16 -37 52.5 -58t81.5 -21q43 0 71 20
t28 47q0 20 -22 36.5t-66 16.5z" />
    <glyph glyph-name="seven.inferior" unicode="&#x2087;" horiz-adv-x="479" 
d="M28 166v99h430v-89l-243 -344h-149l250 334h-288z" />
    <glyph glyph-name="eight.inferior" unicode="&#x2088;" horiz-adv-x="539" 
d="M270 -185q-97 0 -167 39.5t-70 105.5q0 41 26.5 69.5t68.5 42.5q-71 25 -71 85q0 58 67 91t147 33q79 0 144.5 -33.5t65.5 -93.5q0 -62 -69 -82q42 -14 68 -42.5t26 -69.5q0 -66 -70.5 -105.5t-165.5 -39.5zM270 -90q45 0 78 15.5t33 41.5t-35 41.5t-76 15.5
q-42 0 -77 -15.5t-35 -41.5t33.5 -41.5t78.5 -15.5zM270 106q86 0 86 42q0 22 -27 34.5t-59 12.5q-33 0 -60 -12.5t-27 -34.5q0 -42 87 -42z" />
    <glyph glyph-name="nine.inferior" unicode="&#x2089;" horiz-adv-x="533" 
d="M48 -143l56 79q57 -26 125 -26q64 0 110 35t50 95q-79 -61 -172 -61q-88 0 -138 42t-50 98q0 68 61 114.5t154 46.5q105 0 181 -59.5t76 -164.5q0 -109 -79.5 -174t-189.5 -65q-84 0 -184 40zM234 66q67 0 145 41q-17 37 -53 58t-81 21q-42 0 -70.5 -20.5t-28.5 -46.5
q0 -21 21.5 -37t66.5 -16z" />
    <glyph glyph-name="colonmonetary" unicode="&#x20a1;" horiz-adv-x="743" 
d="M517 669h69l-26 -115q72 -27 128 -72l-85 -82q-32 25 -68 41l-75 -339q81 21 153 88l85 -82q-120 -107 -264 -123l-25 -114h-69l25 112q-49 3 -81 12l-27 -124h-69l32 146q-82 37 -128 108.5t-46 158.5q0 119 83.5 204.5t216.5 95.5l19 85h69l-19 -84q41 -3 80 -12z
M310 109q34 -13 79 -15l82 370q-43 10 -80 10zM188 283q0 -85 61 -137l70 317q-60 -20 -95.5 -69t-35.5 -111z" />
    <glyph glyph-name="franc" unicode="&#x20a3;" horiz-adv-x="708" 
d="M50 95v78h101v395h509v-110h-369v-92h228v-109h-228v-84h166v-78h-166v-95h-140v95h-101z" />
    <glyph glyph-name="lira" unicode="&#x20a4;" horiz-adv-x="713" 
d="M58 316v73h130v27q0 83 68.5 127t162.5 44q48 0 114 -18t123 -47l-59 -96q-99 48 -173 48q-38 0 -67 -19.5t-29 -55.5v-10h215v-73h-215v-61h215v-72h-217q-5 -33 -25 -50.5t-60 -24.5h415v-108h-598v108h39q46 0 66 15t24 60h-129v72h130v61h-130z" />
    <glyph glyph-name="peseta" unicode="&#x20a7;" horiz-adv-x="1563" 
d="M222 0h-140v568h338q124 0 186 -65l13 -15h97v138h134v-138h120v-99h-120v-253q0 -43 52 -43q21 0 63 7l10 -100q-25 -19 -106 -19q-63 0 -108 35t-45 110v263h-62v-4q0 -69 -50 -119q-63 -63 -186 -63h-196v-203zM1487 454l-46 -95q-97 44 -177 44t-80 -47
q0 -12 6.5 -20.5t14.5 -13t23.5 -7.5t25 -3.5t26.5 -1.5q35 -2 58.5 -4t60 -11.5t59 -25t39.5 -45t17 -69.5q0 -84 -64.5 -128t-166.5 -44q-130 0 -248 74l46 95q109 -66 204 -66q46 0 71 15.5t25 41.5q0 16 -9 27t-27 16.5t-31.5 7t-35.5 3.5q-35 2 -54 4t-50.5 7t-49 14.5
t-36.5 24.5t-27.5 39t-8.5 56q0 85 61 124.5t146 39.5q60 0 125 -17t103 -35zM425 453h-203v-135h201q49 0 72 23q20 20 20 44t-17 43q-24 25 -73 25z" />
    <glyph glyph-name="Euro" unicode="&#x20ac;" horiz-adv-x="781" 
d="M52 316v73h101q35 88 118.5 142.5t192.5 54.5q70 0 138 -21.5t116 -57.5l-75 -90q-73 54 -169 54q-105 0 -164 -82h227v-73h-257q-3 -16 -3 -33q0 -19 2 -28h258v-72h-230q26 -40 70.5 -63.5t99.5 -23.5q48 0 96 18.5t83 48.5l75 -89q-116 -93 -265 -93q-111 0 -196 56
t-118 146h-100v72h83q-1 9 -1 29q0 10 2 32h-84z" />
    <glyph glyph-name="peso" unicode="&#x20b1;" horiz-adv-x="807" 
d="M37 319v72h85v177h315q128 0 195 -70q44 -47 54 -107h90v-72h-88q-10 -67 -63 -119q-67 -65 -188 -65h-175v-135h-140v319h-85zM519 272q22 22 28 47h-285v-73h179q51 0 78 26zM442 458h-180v-67h284q-6 18 -22 37q-27 30 -82 30z" />
    <glyph glyph-name="Rupee" unicode="&#x20b9;" horiz-adv-x="797" 
d="M107 319v72h399q-8 20 -22 37q-27 30 -82 30h-295v110h629v-73h-156q52 -40 66 -104h90v-72h-88q-10 -67 -63 -119q-62 -49 -170 -52l-71 4l266 -152h-223l-280 173v73h294q51 0 78 26q22 22 28 47h-400z" />
    <glyph glyph-name="litre" unicode="&#x2113;" horiz-adv-x="570" 
d="M324 -15q-167 0 -177 134v14l-73 -39l-29 92l101 54v192q0 205 184 205q83 0 132 -45.5t49 -118.5t-61.5 -142.5t-171.5 -127.5v-64q0 -47 64 -47q46 0 118 36l21 -99q-87 -44 -157 -44zM278 320q52 31 79 70t27 75q0 32 -14 51t-39 19t-39 -21t-14 -82v-112z" />
    <glyph glyph-name="soundrecordingcopyright" unicode="&#x2117;" horiz-adv-x="1030" 
d="M514 -169q-194 0 -331.5 128t-137.5 310t137.5 310t331.5 128q193 0 330 -128t137 -310t-137 -310t-330 -128zM513 -79q153 0 260.5 102t107.5 247q0 142 -108 244.5t-260 102.5q-151 0 -259.5 -102.5t-108.5 -244.5q0 -144 108.5 -246.5t259.5 -102.5zM589 183h-130
v-113h-128v416h233q34 0 65.5 -6t64 -21t52 -46.5t19.5 -75.5q0 -75 -52.5 -114.5t-123.5 -39.5zM459 387v-105h119q24 0 41.5 12.5t17.5 41.5q0 26 -18 38.5t-41 12.5h-119z" />
    <glyph glyph-name="servicemark" unicode="&#x2120;" horiz-adv-x="875" 
d="M805 326h-87v173h-3l-85 -146h-9l-86 146h-3v-173h-82v327h85l93 -163h1l94 163h82v-327zM354 629l-41 -60q-39 27 -112 27q-48 0 -48 -28q0 -16 15.5 -21.5t60.5 -9.5q25 -3 41 -5.5t37.5 -10t33.5 -18t21 -30t9 -46.5q0 -59 -41.5 -86t-107.5 -27q-99 0 -169 57l37 57
q56 -45 132 -45q64 0 64 35q0 18 -14 26.5t-48 11.5q-35 3 -56 7t-47 14t-39 30t-13 51q0 58 39.5 83t94.5 25q91 0 151 -37z" />
    <glyph glyph-name="trademark" unicode="&#x2122;" horiz-adv-x="852" 
d="M776 326h-87v173h-3l-85 -146h-9l-86 146h-3v-173h-82v327h85l93 -163h1l94 163h82v-327zM49 583v70h301v-70h-107v-257h-87v257h-107z" />
    <glyph glyph-name="estimated" unicode="&#x212e;" horiz-adv-x="814" 
d="M226 438v-82q0 -6 6 -6h353q8 0 8 6v82q0 9 -6 21q-58 88 -176 88q-49 0 -102 -25.5t-76 -62.5q-7 -11 -7 -21zM741 156q-62 -88 -148 -131t-182 -43q-139 0 -248.5 90.5t-108.5 224.5q0 137 108.5 225t248.5 88q147 0 251 -90t104 -237h-534q-6 0 -6 -8v-110
q0 -19 7 -28q77 -92 178 -92q119 0 203 111h127z" />
    <glyph glyph-name="onethird" unicode="&#x2153;" horiz-adv-x="1078" 
d="M29 503l-25 92l140 58h106v-433h-119v324zM566 653h114l-371 -653h-115zM764 183v86h81q23 0 36 11t13 27q0 24 -23 35.5t-52 11.5q-75 0 -155 -67l-66 71q110 90 223 90q44 0 85 -11.5t73.5 -41.5t32.5 -73q0 -49 -47 -78q80 -29 80 -105q0 -72 -68.5 -113t-172.5 -41
q-142 0 -243 92l65 74q82 -72 178 -72q53 0 88 17.5t35 47.5q0 39 -66 39h-97z" />
    <glyph glyph-name="twothirds" unicode="&#x2154;" horiz-adv-x="1232" 
d="M101 507l-65 75q39 29 63 43.5t66 28.5t88 14q79 0 135 -33t56 -98q0 -28 -12.5 -51.5t-28 -37.5t-44.5 -28t-46.5 -20t-50.5 -16q-54 -17 -78.5 -32.5t-24.5 -38.5v-2h276v-91h-394v73q0 75 55.5 119t151.5 68q78 22 78 57q0 37 -69 37q-75 0 -156 -67zM720 653h114
l-371 -653h-115zM918 183v86h81q23 0 36 11t13 27q0 24 -23 35.5t-52 11.5q-75 0 -155 -67l-66 71q110 90 223 90q44 0 85 -11.5t73.5 -41.5t32.5 -73q0 -49 -47 -78q80 -29 80 -105q0 -72 -68.5 -113t-172.5 -41q-142 0 -243 92l65 74q82 -72 178 -72q53 0 88 17.5t35 47.5
q0 39 -66 39h-97z" />
    <glyph glyph-name="oneeighth" unicode="&#x215b;" horiz-adv-x="1083" 
d="M29 503l-25 92l140 58h106v-433h-119v324zM566 653h114l-371 -653h-115zM814 -17q-97 0 -167 39.5t-70 105.5q0 41 26.5 69.5t68.5 42.5q-71 25 -71 85q0 58 67 91t147 33q79 0 144.5 -33.5t65.5 -93.5q0 -62 -69 -82q42 -14 68 -42.5t26 -69.5q0 -66 -70.5 -105.5
t-165.5 -39.5zM814 78q45 0 78 15.5t33 41.5t-35 41.5t-76 15.5q-42 0 -77 -15.5t-35 -41.5t33.5 -41.5t78.5 -15.5zM814 274q86 0 86 42q0 22 -27 34.5t-59 12.5q-33 0 -60 -12.5t-27 -34.5q0 -42 87 -42z" />
    <glyph glyph-name="threeeighths" unicode="&#x215c;" horiz-adv-x="1289" 
d="M220 403v86h81q23 0 36 11t13 27q0 24 -23 35.5t-52 11.5q-75 0 -155 -67l-66 71q110 90 223 90q44 0 85 -11.5t73.5 -41.5t32.5 -73q0 -49 -47 -78q80 -29 80 -105q0 -72 -68.5 -113t-172.5 -41q-142 0 -243 92l65 74q82 -72 178 -72q53 0 88 17.5t35 47.5q0 39 -66 39
h-97zM772 653h114l-371 -653h-115zM1020 -17q-97 0 -167 39.5t-70 105.5q0 41 26.5 69.5t68.5 42.5q-71 25 -71 85q0 58 67 91t147 33q79 0 144.5 -33.5t65.5 -93.5q0 -62 -69 -82q42 -14 68 -42.5t26 -69.5q0 -66 -70.5 -105.5t-165.5 -39.5zM1020 78q45 0 78 15.5t33 41.5
t-35 41.5t-76 15.5q-42 0 -77 -15.5t-35 -41.5t33.5 -41.5t78.5 -15.5zM1020 274q86 0 86 42q0 22 -27 34.5t-59 12.5q-33 0 -60 -12.5t-27 -34.5q0 -42 87 -42z" />
    <glyph glyph-name="fiveeighths" unicode="&#x215d;" horiz-adv-x="1281" 
d="M446 653v-94h-270v-90q60 44 133 44q77 0 133.5 -37t56.5 -106q0 -56 -36.5 -95t-88.5 -54.5t-113 -15.5q-125 0 -239 57l51 84q89 -47 188 -47q49 0 82.5 18t33.5 53q0 26 -25 39.5t-62 13.5q-72 0 -151 -45l-69 47v228h376zM764 653h114l-371 -653h-115zM1012 -17
q-97 0 -167 39.5t-70 105.5q0 41 26.5 69.5t68.5 42.5q-71 25 -71 85q0 58 67 91t147 33q79 0 144.5 -33.5t65.5 -93.5q0 -62 -69 -82q42 -14 68 -42.5t26 -69.5q0 -66 -70.5 -105.5t-165.5 -39.5zM1012 78q45 0 78 15.5t33 41.5t-35 41.5t-76 15.5q-42 0 -77 -15.5
t-35 -41.5t33.5 -41.5t78.5 -15.5zM1012 274q86 0 86 42q0 22 -27 34.5t-59 12.5q-33 0 -60 -12.5t-27 -34.5q0 -42 87 -42z" />
    <glyph glyph-name="seveneighths" unicode="&#x215e;" horiz-adv-x="1189" 
d="M28 554v99h430v-89l-244 -344h-149l250 334h-287zM672 653h114l-371 -653h-115zM920 -17q-97 0 -167 39.5t-70 105.5q0 41 26.5 69.5t68.5 42.5q-71 25 -71 85q0 58 67 91t147 33q79 0 144.5 -33.5t65.5 -93.5q0 -62 -69 -82q42 -14 68 -42.5t26 -69.5
q0 -66 -70.5 -105.5t-165.5 -39.5zM920 78q45 0 78 15.5t33 41.5t-35 41.5t-76 15.5q-42 0 -77 -15.5t-35 -41.5t33.5 -41.5t78.5 -15.5zM920 274q86 0 86 42q0 22 -27 34.5t-59 12.5q-33 0 -60 -12.5t-27 -34.5q0 -42 87 -42z" />
    <glyph glyph-name="arrowleft" unicode="&#x2190;" horiz-adv-x="822" 
d="M570 317l161 2v-126l-161 3l-305 3l-46 1l-1 -5l56 -39l171 -171l-82 -86l-340 339v36l340 339l82 -85l-171 -171l-56 -39l2 -5l45 1z" />
    <glyph glyph-name="arrowup" unicode="&#x2191;" horiz-adv-x="823" 
d="M470 57l4 -159h-127l3 159l3 306l2 46l-6 2l-39 -57l-173 -173l-86 82l341 342h36l342 -342l-86 -82l-174 173l-39 57l-4 -2l1 -46z" />
    <glyph glyph-name="arrowright" unicode="&#x2192;" horiz-adv-x="822" 
d="M91 319l160 -2l305 -3l46 -2l1 6l-56 39l-171 171l82 85l340 -339v-36l-340 -339l-82 86l171 171l56 39l-1 5l-46 -1l-305 -3l-160 -3v126z" />
    <glyph glyph-name="arrowdown" unicode="&#x2193;" horiz-adv-x="823" 
d="M474 613l-3 -159l-1 -282l-4 -70l5 -2l40 57l173 173l86 -82l-342 -342h-36l-341 342l86 82l174 -173l38 -57l5 2l-3 70l-1 282l-3 159h127z" />
    <glyph glyph-name="arrowupleft" unicode="&#x2196;" horiz-adv-x="822" 
d="M621 116l114 -110l-90 -90l-118 123l-249 253l-32 35l-6 -3l15 -69v-255h-118v490l25 25h489v-119h-254l-70 15l-3 -6l35 -31z" />
    <glyph glyph-name="arrowupright" unicode="&#x2197;" horiz-adv-x="822" 
d="M87 6l115 110l261 258l35 31l-3 6l-70 -15h-254v119h489l26 -25v-490h-119v255l15 69l-5 3l-33 -35l-249 -253l-118 -123z" />
    <glyph glyph-name="arrowdownright" unicode="&#x2198;" horiz-adv-x="822" 
d="M201 399l-114 110l90 90l118 -123l249 -253l33 -35l5 3l-15 69v255h119v-490l-26 -25h-489v119h254l70 -15l3 6l-35 31z" />
    <glyph glyph-name="arrowdownleft" unicode="&#x2199;" horiz-adv-x="822" 
d="M735 509l-115 -110l-243 -242l-53 -47l3 -6l70 15h254v-119h-489l-25 25v490h118v-255l-15 -69l6 -3l48 54l233 234l118 123z" />
    <glyph glyph-name="partialdiff" unicode="&#x2202;" horiz-adv-x="648" 
d="M288 454q52 0 97 -21t74 -52v14q0 20 -12 43t-38 47.5t-79 41t-123 16.5v111q383 0 383 -339q0 -166 -80 -250t-197 -84q-106 0 -186 62.5t-80 175.5q0 74 38 129.5t91.5 80.5t111.5 25zM308 83q59 0 103.5 45.5t50.5 133.5q-26 38 -68 64t-88 26q-50 0 -88.5 -35.5
t-38.5 -97.5q0 -64 38 -100t91 -36z" />
    <glyph glyph-name="product" unicode="&#x220f;" horiz-adv-x="807" 
d="M48 531v122h712v-122h-96v-638h-142v638h-239v-638h-141v638h-94z" />
    <glyph glyph-name="summation" unicode="&#x2211;" horiz-adv-x="720" 
d="M666 653v-122h-382l262 -221v-72l-262 -224h382v-121h-620v85l347 293v6l-347 291v85h620z" />
    <glyph glyph-name="minus" unicode="&#x2212;" horiz-adv-x="753" 
d="M75 208v114h581v-114h-581z" />
    <glyph glyph-name="radical" unicode="&#x221a;" horiz-adv-x="674" 
d="M23 488h203l106 -280l199 546h134l-288 -754h-92l-154 384h-108v104z" />
    <glyph glyph-name="infinity" unicode="&#x221e;" horiz-adv-x="1021" 
d="M271 464h11q90 0 177 -73l51 -44l52 44q89 73 175 73h12q91 0 153.5 -57.5t62.5 -132.5v-18q0 -75 -62.5 -131.5t-153.5 -56.5h-12q-85 0 -175 72l-52 42l-52 -43q-89 -71 -176 -71h-11q-91 0 -153 56.5t-62 131.5v18q0 76 62 133t153 57zM651 313l-58 -47l58 -48
q48 -40 86 -40h12q37 0 63 23.5t26 54.5v18q0 32 -25.5 55.5t-63.5 23.5h-12q-39 0 -86 -40zM182 274v-18q0 -31 25.5 -54.5t63.5 -23.5h11q40 0 87 40l55 48l-55 47q-50 40 -87 40h-11q-38 0 -63.5 -23.5t-25.5 -55.5z" />
    <glyph glyph-name="integral" unicode="&#x222b;" horiz-adv-x="442" 
d="M397 723v-113h-67q-19 0 -30 -14t-11 -33v-616q0 -57 -45 -95.5t-130 -38.5h-65v113h68q19 0 29.5 13.5t10.5 33.5v615q0 56 35 95.5t99 39.5h106z" />
    <glyph glyph-name="approxequal" unicode="&#x2248;" horiz-adv-x="753" 
d="M75 64v118q80 56 156 56q63 0 129 -37q68 -39 125 -39q83 0 166 59v-120q-80 -57 -166 -57q-65 0 -128 37q-70 39 -127 39q-78 0 -155 -56zM75 307v118q79 55 156 55q63 0 129 -37q68 -39 125 -39q84 0 166 60v-120q-79 -58 -166 -58q-60 0 -128 37q-70 39 -127 39
q-77 0 -155 -55z" />
    <glyph glyph-name="notequal" unicode="&#x2260;" horiz-adv-x="753" 
d="M75 328v115h323l61 96h135l-61 -96h123v-115h-195l-73 -116h268v-115h-340l-60 -96h-136l60 96h-105v115h178l73 116h-251z" />
    <glyph glyph-name="lessequal" unicode="&#x2264;" horiz-adv-x="753" 
d="M75 0v114h581v-114h-581zM656 612v-128l-385 -101v-12l385 -100v-128l-581 176v116z" />
    <glyph glyph-name="greaterequal" unicode="&#x2265;" horiz-adv-x="753" 
d="M656 114v-114h-581v114h581zM75 484v128l581 -177v-116l-581 -176v128l385 100v12z" />
    <glyph glyph-name="squarecrossed" unicode="&#x22a0;" horiz-adv-x="842" 
d="M95 653h652v-653h-652v653zM237 552l28 -27l144 -145l11 -12l10 12l146 145l27 27l-2 2l-59 -4h-243l-60 4zM193 512l-2 -2l4 -56v-252l-4 -59l2 -2l25 28l147 147l12 10l-12 11l-147 148zM650 510l-2 2l-24 -27l-147 -148l-12 -11l12 -10l147 -147l24 -28l2 2l-4 59v252
zM265 127l-28 -27l2 -2l60 4h243l60 -4l2 2l-28 27l-146 146l-10 12l-11 -12z" />
    <glyph glyph-name="blacksquare" unicode="&#x25a0;" horiz-adv-x="711" 
d="M72 567h567v-567h-567v567z" />
    <glyph glyph-name="whitesquare" unicode="&#x25a1;" horiz-adv-x="842" 
d="M95 653h652v-653h-652v653zM203 550v-448h436v448h-436z" />
    <glyph glyph-name="blacksmallsquare" unicode="&#x25aa;" horiz-adv-x="471" 
d="M79 449h314v-314h-314v314z" />
    <glyph glyph-name="blackuppointingtriangle" unicode="&#x25b2;" horiz-adv-x="657" 
d="M322 589h9l281 -580v-9h-572v9z" />
    <glyph glyph-name="blackrightpointingtriangle" unicode="&#x25b6;" horiz-adv-x="750" 
d="M91 544h9l580 -283v-9l-580 -282h-9v574z" />
    <glyph glyph-name="blackdownpointingtriangle" unicode="&#x25bc;" horiz-adv-x="657" 
d="M40 489h572v-10l-281 -579h-9l-282 579v10z" />
    <glyph glyph-name="blackleftpointingtriangle" unicode="&#x25c0;" horiz-adv-x="750" 
d="M70 261l579 283h9v-574h-9l-579 282v9z" />
    <glyph glyph-name="lozenge" unicode="&#x25ca;" horiz-adv-x="666" 
d="M294 653h78l250 -291v-70l-250 -292h-78l-250 292v70zM333 505l-152 -177v-2l152 -178h1l151 177v3l-151 177h-1z" />
    <glyph glyph-name="whitecircle" unicode="&#x25cb;" horiz-adv-x="832" 
d="M45 323q0 153 109 261.5t261 108.5q154 0 262.5 -108.5t108.5 -261.5t-108.5 -262t-262.5 -109q-152 0 -261 109t-109 262zM158 323q0 -111 75 -189t182 -78q109 0 184 78t75 189t-75 188.5t-184 77.5q-107 0 -182 -77.5t-75 -188.5z" />
    <glyph glyph-name="blackcircle" unicode="&#x25cf;" horiz-adv-x="699" 
d="M49 284q0 124 88 212.5t212 88.5q125 0 213 -88.5t88 -212.5t-88.5 -212t-212.5 -88t-212 88t-88 212z" />
    <glyph glyph-name="blackmediumsquare" unicode="&#x25fc;" horiz-adv-x="544" 
d="M72 489h400v-401h-400v401z" />
    <glyph glyph-name="blackmediumcircle" unicode="&#x26ab;" horiz-adv-x="545" 
d="M273 509q92 0 156.5 -63t64.5 -153q0 -89 -64.5 -151.5t-156.5 -62.5q-93 0 -157.5 62.5t-64.5 151.5q0 90 64.5 153t157.5 63z" />
    <glyph glyph-name="circlecrossed" unicode="&#x2a02;" horiz-adv-x="832" 
d="M415 52q97 0 168 62l-158 158l-10 11l-10 -11l-156 -158q72 -62 166 -62zM415 593q-88 0 -161 -57l151 -152l10 -13l10 13l152 152q-72 57 -162 57zM45 323q0 153 109 261.5t261 108.5q154 0 262.5 -108.5t108.5 -261.5t-108.5 -262t-262.5 -109q-152 0 -261 109
t-109 262zM470 318l156 -156q52 71 52 161q0 89 -56 165l-152 -150l-11 -10zM360 338l-152 150q-54 -75 -54 -165t51 -160l155 155l12 10z" />
    <glyph glyph-name="blacklargesquare" unicode="&#x2b1b;" horiz-adv-x="842" 
d="M95 653h652v-653h-652v653z" />
    <glyph glyph-name="blacklargecircle" unicode="&#x2b24;" horiz-adv-x="832" 
d="M45 323q0 153 109 261.5t261 108.5q154 0 262.5 -108.5t108.5 -261.5t-108.5 -262t-262.5 -109q-152 0 -261 109t-109 262z" />
    <glyph glyph-name="commaaccent" unicode="&#xf6c3;" 
d="M199 -61l105 20q14 -14 20.5 -21.5t16 -28t9.5 -42.5q0 -54 -43 -87.5t-119 -33.5q-29 0 -54 8v76q14 -3 41 -3q56 0 56 48q0 28 -32 64z" />
    <glyph glyph-name="rupiah" unicode="&#xf6dd;" horiz-adv-x="1320" 
d="M86 0v568h336q122 0 186 -64q50 -52 50 -118q0 -54 -33 -96t-88 -64l141 -226h-160l-121 203h-171v-203h-140zM226 318h209q38 0 62 21q21 19 21 46q0 23 -17 43q-24 25 -74 25h-201v-135zM770 -207v557q0 81 -11 138h126q3 -18 5 -61q64 77 152 77q100 0 168.5 -72
t68.5 -188q0 -113 -69 -185.5t-168 -72.5q-79 0 -139 63v-256h-133zM904 151q58 -53 118 -53q48 0 80.5 41t32.5 105q0 66 -32.5 106.5t-80.5 40.5q-66 0 -118 -55v-185z" />
    <glyph glyph-name="sweetfonts.com" unicode="&#xf8ff;" horiz-adv-x="1000" 
d="M343 424q0 65 46 111t111 46t111 -46t46 -111t-46 -111t-111 -46t-111 46t-46 111zM706 428l237 137q8 6 8 -4v-274q0 -10 -8 -4l-237 137q-6 4 0 8zM49 287v274q0 10 8 4l237 -137q8 -4 0 -8l-237 -137q-8 -6 -8 4zM878 0v116h-57v20h138v-20h-57v-116h-24zM659 0v136
h117v-20h-93v-32h62v-20h-62v-44h99v-20h-123zM472 0v136h117v-20h-93v-32h62v-20h-62v-44h99v-20h-123zM268 0l-47 136h25l30 -99h2l34 99h15l33 -99h2l32 99h23l-49 -136h-16l-33 97h-2l-33 -97h-16zM37 22l12 15q31 -21 61 -21q49 0 49 24q0 6 -3.5 10.5t-10 6t-14 2.5
t-16.5 1h-3q-69 2 -69 37q0 17 15.5 29t44.5 12q37 0 69 -18l-12 -16q-24 15 -57 15q-38 0 -38 -21q0 -14 47 -16q33 -1 51 -9.5t18 -31.5q0 -21 -20 -32.5t-51 -11.5q-41 0 -73 25z" />
    <glyph glyph-name="one.alt" horiz-adv-x="325" 
d="M94 0v568h137v-568h-137z" />
    <glyph glyph-name="dollar.superior" horiz-adv-x="526" 
d="M187 124l11 89q-95 18 -170 72l54 75q71 -45 135 -59l12 97q-30 3 -52.5 7t-47.5 13.5t-41 22.5t-26.5 35t-10.5 51q0 74 57 107.5t139 33.5h13l8 60h80l-9 -70q87 -17 141 -49l-54 -77q-43 25 -106 38l-10 -79q38 -3 67 -10t57 -21.5t43 -41t15 -63.5q0 -76 -57.5 -113
t-150.5 -37h-8l-10 -81h-79zM382 343q0 23 -20.5 33.5t-65.5 15.5l-13 -98h5q94 0 94 49zM162 535q0 -33 80 -39l10 82h-8q-82 0 -82 -43z" />
    <glyph glyph-name="cent.superior" horiz-adv-x="451" 
d="M150 124l20 95q-62 19 -101 66t-39 112q0 83 58.5 134t146.5 51h14l11 51h80l-14 -65q51 -16 91 -46l-68 -71q-24 17 -48 27l-38 -177q44 6 90 44l68 -66q-21 -23 -66.5 -45.5t-106.5 -24.5l-18 -85h-80zM149 397q0 -56 47 -83l39 175q-38 -3 -62 -27.5t-24 -64.5z" />
    <glyph glyph-name="Euro.superior" horiz-adv-x="573" 
d="M35 459v59h76q26 66 88.5 107.5t143.5 41.5q110 0 188 -58l-61 -75q-51 37 -117 37q-69 0 -109 -53h152v-59h-177q-2 -16 -2 -23q0 -14 1 -20h178v-59h-155q40 -56 114 -56q71 0 126 48l62 -74q-88 -70 -197 -70q-84 0 -147 42t-89 110h-75v59h62q-1 7 -1 21q0 15 1 22
h-62z" />
    <glyph glyph-name="sterling.superior" horiz-adv-x="517" 
d="M37 417v68h93v52q0 63 52 97t122 34q81 0 179 -48l-50 -82q-72 36 -124 36q-24 0 -42.5 -13.5t-18.5 -38.5v-37h150v-68h-150v-30q0 -35 -15 -52.5t-51 -24.5h300v-90h-445v90h29q36 0 50 15.5t14 61.5v30h-93z" />
    <glyph glyph-name="yen.superior" horiz-adv-x="570" 
d="M36 459v59h111l-102 135h145l98 -138l98 138h137l-102 -135h113v-59h-158l-32 -43h190v-59h-191v-137h-118v137h-189v59h188l-33 43h-155z" />
    <glyph glyph-name="numbersign.superior" horiz-adv-x="649" 
d="M427 690h74l-22 -120h140v-85h-155l-20 -113h132v-85h-147l-25 -141h-75l25 141h-113l-25 -141h-74l25 141h-137v85h153l20 113h-130v85h145l22 120h74l-22 -120h113zM277 485l-20 -113h113l20 113h-113z" />
    <glyph glyph-name="percent.superior" horiz-adv-x="773" 
d="M30 558q0 56 44 95.5t107 39.5q62 0 107.5 -40t45.5 -95q0 -56 -45.5 -96t-107.5 -40q-63 0 -107 40t-44 96zM568 681l-268 -461h-96l269 461h95zM129 558q0 -22 15.5 -38t36.5 -16q22 0 38 16t16 38t-15.5 37.5t-38.5 15.5q-21 0 -36.5 -15.5t-15.5 -37.5zM438 344
q0 55 44 94.5t107 39.5t108.5 -39.5t45.5 -94.5q0 -56 -45.5 -96t-108.5 -40t-107 40t-44 96zM537 344q0 -22 15.5 -38t36.5 -16q23 0 38.5 16t15.5 38t-16 37.5t-38 15.5q-21 0 -36.5 -15.5t-15.5 -37.5z" />
    <glyph glyph-name="period.superior" horiz-adv-x="235" 
d="M42 274q0 27 21.5 46.5t53.5 19.5q31 0 53.5 -19.5t22.5 -46.5q0 -28 -22 -47t-54 -19t-53.5 19t-21.5 47z" />
    <glyph glyph-name="comma.superior" horiz-adv-x="246" 
d="M59 81l-29 61q31 8 60.5 30.5t30.5 48.5q-10 -2 -17 -2q-26 0 -44 16.5t-18 41.5q0 26 22 44.5t53 18.5q36 0 62.5 -27.5t26.5 -69.5q0 -64 -43.5 -103.5t-103.5 -58.5z" />
    <glyph glyph-name="hyphen.superior" horiz-adv-x="301" 
d="M47 351v101h207v-101h-207z" />
    <glyph glyph-name="zero.tos" horiz-adv-x="679" 
d="M40 284q0 126 88 214.5t211 88.5t211.5 -88.5t88.5 -214.5q0 -125 -88.5 -214t-211.5 -89t-211 88.5t-88 214.5zM176 284q0 -75 48 -130.5t115 -55.5t115.5 55.5t48.5 130.5q0 76 -48.5 130.5t-115.5 54.5t-115 -54t-48 -131z" />
    <glyph glyph-name="one.tos" horiz-adv-x="679" 
d="M114 0v111h204v328l-181 -65l-32 112l227 82h123v-457h148v-111h-489z" />
    <glyph glyph-name="two.tos" horiz-adv-x="679" 
d="M66 0v91q0 97 76.5 154t205.5 90q130 31 130 82q0 30 -34.5 43.5t-83.5 13.5q-64 0 -113 -22t-105 -65l-76 90q50 36 82.5 55.5t89 37t118.5 17.5q107 0 183 -42.5t76 -126.5q0 -23 -5.5 -43t-19 -36.5t-24.5 -29t-35 -25t-36 -19.5t-42.5 -17t-39.5 -13t-41 -12
q-7 -2 -10 -3q-79 -22 -118 -46t-39 -60v-6h398v-108h-537z" />
    <glyph glyph-name="three.tos" horiz-adv-x="679" 
d="M285 245v104h92q33 0 54 16t21 41q0 34 -31 51t-71 17q-97 0 -197 -89l-78 84q138 118 277 118q55 0 106.5 -15t91.5 -54t40 -95q0 -33 -20 -61t-47 -44q109 -38 109 -137q0 -93 -85.5 -147t-215.5 -54q-177 0 -304 120l76 90q104 -97 228 -97q71 0 117.5 25.5t46.5 69.5
q0 57 -95 57h-115z" />
    <glyph glyph-name="four.tos" horiz-adv-x="679" 
d="M640 221v-103h-99v-118h-137v118h-382v82l396 368h123v-347h99zM213 225v-4h191v183h-8q-130 -128 -183 -179z" />
    <glyph glyph-name="five.tos" horiz-adv-x="679" 
d="M570 568v-113h-354v-133q43 28 82 42.5t93 14.5q100 0 173 -48.5t73 -138.5q0 -55 -26.5 -97t-70.5 -66.5t-96 -36.5t-110 -12q-152 0 -302 86l62 95q112 -68 240 -68q67 0 114 25.5t47 72.5q0 40 -36 60t-88 20q-94 0 -198 -55l-80 57v295h477z" />
    <glyph glyph-name="six.tos" horiz-adv-x="679" 
d="M605 536l-61 -95q-73 34 -160 34q-83 0 -143 -49.5t-64 -134.5q103 82 222 82q111 0 173 -54.5t62 -127.5q0 -89 -75 -149.5t-192 -60.5q-130 0 -224.5 78t-94.5 215q0 142 98.5 227.5t235.5 85.5q107 0 223 -51zM380 269q-88 0 -192 -59q20 -55 69 -86t110 -31
q57 0 94 29.5t37 68.5q0 31 -29 54.5t-89 23.5z" />
    <glyph glyph-name="seven.tos" horiz-adv-x="679" 
d="M52 450v118h580v-108l-341 -460h-175l352 450h-416z" />
    <glyph glyph-name="eight.tos" horiz-adv-x="679" 
d="M340 -21q-118 0 -204.5 51.5t-86.5 136.5q0 55 34 93t88 54q-91 31 -91 114q0 74 81.5 117t179.5 43q60 0 117 -16.5t99 -55t42 -91.5q0 -85 -91 -111q54 -16 88 -54t34 -93q0 -85 -86.5 -136.5t-203.5 -51.5zM340 91q58 0 101.5 23t43.5 62q0 38 -45 59.5t-100 21.5
t-100.5 -21.5t-45.5 -59.5t44 -61.5t102 -23.5zM340 356q113 0 113 60q0 33 -35 51t-78 18t-78.5 -18t-35.5 -51q0 -60 114 -60z" />
    <glyph glyph-name="nine.tos" horiz-adv-x="679" 
d="M72 32l60 94q74 -33 160 -33q84 0 144 49t65 134q-105 -82 -223 -82q-111 0 -174 55t-63 128q0 89 76 149.5t192 60.5q84 0 156 -32.5t118.5 -100.5t46.5 -160q0 -142 -99 -227.5t-236 -85.5q-110 0 -223 51zM297 298q91 0 193 59q-20 55 -69.5 86t-110.5 31
q-57 0 -95 -29.5t-38 -67.5q0 -31 29.5 -55t90.5 -24z" />
    <glyph glyph-name="dollar.tos" horiz-adv-x="679" 
d="M244 -129l13 120q-120 23 -221 102l76 90q79 -63 165 -85l17 142q-38 4 -67 9t-61 17t-52.5 29t-34 45t-13.5 65q0 50 21.5 87t58.5 56.5t78.5 29t88.5 9.5h17l10 82h94l-12 -93q109 -21 184 -68l-77 -92q-51 34 -125 52l-14 -116q38 -3 66.5 -8.5t62 -18t55 -30.5
t36 -48.5t14.5 -70.5q0 -99 -73.5 -147t-190.5 -48h-10l-12 -110h-94zM489 162q0 34 -28 49t-85 22l-17 -145h3q58 0 92.5 19.5t34.5 54.5zM203 414q0 -46 105 -56l14 121h-11q-51 0 -79.5 -17t-28.5 -48z" />
    <glyph glyph-name="cent.tos" horiz-adv-x="679" 
d="M230 -129l30 126q-91 23 -148 85t-57 147q0 107 84.5 174t209.5 67q16 0 25 -1l17 72h95l-21 -85q79 -20 142 -64l-82 -85q-38 26 -90 41l-62 -253q83 3 158 60l82 -79q-30 -30 -97.5 -60.5t-159.5 -30.5h-5l-27 -114h-94zM197 229q0 -41 25.5 -73t67.5 -48l61 251
q-67 -2 -110.5 -37t-43.5 -93z" />
    <glyph glyph-name="Euro.tos" horiz-adv-x="679" 
d="M40 316v73h89q31 88 105 142.5t172 54.5q60 0 120 -21.5t102 -57.5l-72 -90q-62 54 -137 54q-88 0 -137 -82h185v-73h-210q-2 -22 -2 -33q0 -19 1 -28h211v-72h-188q49 -87 143 -87q39 0 79 18.5t68 48.5l72 -89q-100 -93 -232 -93q-101 0 -176.5 56t-105.5 146h-87v72
h73q-1 9 -1 29q0 21 1 32h-73z" />
    <glyph glyph-name="sterling.tos" horiz-adv-x="679" 
d="M50 262v82h123v72q0 83 66 127t157 44q46 0 110 -18t119 -47l-58 -96q-96 48 -165 48q-36 0 -62.5 -19.5t-26.5 -55.5v-55h203v-82h-203v-50q0 -49 -19 -72.5t-64 -31.5h395v-108h-575v108h37q50 0 68 20.5t18 83.5v50h-123z" />
    <glyph glyph-name="yen.tos" horiz-adv-x="679" 
d="M46 316v73h132l-122 179h171l116 -191l114 191h163l-123 -179h136v-73h-186l-39 -58v-3h225v-72h-225v-183h-140v183h-222v72h222v3l-40 58h-182z" />
    <glyph glyph-name="florin.tos" horiz-adv-x="679" 
d="M156 344h114l27 119q14 64 67.5 94t115.5 30q74 0 100 -14l-30 -97q-32 7 -69 7q-47 0 -54 -30l-25 -109h123v-82h-141l-58 -261q-13 -59 -51.5 -98t-83 -54.5t-92.5 -15.5l-10 96q21 5 34 9.5t30 13t27.5 22.5t14.5 33l57 255h-96v82z" />
    <glyph glyph-name="colonmonetary.tos" horiz-adv-x="679" 
d="M475 669h66l-24 -117q65 -25 116 -70l-84 -82q-20 18 -55 38l-68 -334q69 23 131 86l85 -82q-108 -104 -240 -123l-23 -114h-66l22 112q-32 1 -70 10l-25 -122h-66l29 144q-76 37 -119 109t-43 160q0 119 77 205t200 96l17 84h67l-17 -85q35 -3 70 -12zM288 109
q32 -14 70 -15l75 369q-32 9 -71 11zM183 283q0 -78 47 -131l63 309q-51 -20 -80.5 -68.5t-29.5 -109.5z" />
    <glyph glyph-name="franc.tos" horiz-adv-x="679" 
d="M48 95v78h97v395h491v-110h-352v-92h218v-109h-218v-84h159v-78h-159v-95h-139v95h-97z" />
    <glyph glyph-name="lira.tos" horiz-adv-x="679" 
d="M51 316v73h120v27q0 83 67 127t160 44q47 0 111.5 -18t121.5 -47l-60 -96q-96 48 -168 48q-37 0 -64.5 -19.5t-27.5 -55.5v-10h205v-73h-205v-61h205v-72h-207q-5 -34 -24.5 -51t-58.5 -24h405v-108h-580v108h33q45 0 63.5 15t22.5 60h-119v72h120v61h-120z" />
    <glyph glyph-name="peso.tos" horiz-adv-x="679" 
d="M25 319v72h76v177h245q127 0 194 -70q43 -45 55 -107h71v-72h-70q-10 -68 -62 -119q-67 -65 -188 -65h-105v-135h-140v319h-76zM427 272q22 22 28 47h-214v-73h109q50 0 77 26zM351 458h-110v-67h213q-6 18 -22 37q-27 30 -81 30z" />
    <glyph glyph-name="Rupee.tos" horiz-adv-x="679" 
d="M28 319v72h399q-8 20 -22 37q-27 30 -82 30h-295v110h629v-73h-156q52 -40 66 -104h90v-72h-88q-10 -67 -63 -119q-62 -49 -170 -52l-71 4l266 -152h-223l-280 173v73h294q51 0 78 26q22 22 28 47h-400z" />
    <glyph glyph-name="section.tos" horiz-adv-x="679" 
d="M579 99q-20 -20 -43 -33q6 -11 10 -21q9 -21 9 -50q0 -79 -66.5 -118.5t-152.5 -39.5q-110 0 -206 51l55 89q81 -38 153 -38q79 0 79 45q0 13 -8 21q-6 6 -15.5 10.5t-28 7.5t-29 4.5t-39.5 4.5q-147 19 -209 80q-43 41 -43 98q0 62 50 114q17 19 45 35l-9 17
q-10 27 -10 54q0 54 35.5 91.5t83 52t102.5 14.5q113 0 210 -50l-55 -90q-85 38 -157 38q-80 0 -80 -44q0 -13 8 -20q4 -3 8.5 -6t12 -5t13.5 -3.5t17 -3.5t17.5 -2.5t21 -2.5t21.5 -3q151 -19 213 -84q39 -41 39 -96q0 -68 -52 -117zM360 281q-6 1 -30.5 3.5t-37.5 4.5
t-33.5 6t-36.5 10q-10 -8 -18 -20q-24 -27 -24 -58q0 -24 17 -43q27 -28 120 -38q94 -9 138 -25q9 8 17 17q25 28 25 61q0 25 -17 42q-29 30 -120 40z" />
    <glyph glyph-name="numbersign.tos" horiz-adv-x="679" 
d="M444 617h83l-24 -163h147v-100h-161l-23 -159h138v-102h-153l-27 -190h-83l27 190h-115l-27 -190h-83l27 190h-143v102h158l23 159h-136v100h150l24 163h84l-24 -163h114zM291 354l-23 -159h115l23 159h-115z" />
    <glyph glyph-name="percent.tos" horiz-adv-x="679" 
d="M15 444q0 73 40 124.5t97 51.5q56 0 96.5 -52t40.5 -124q0 -73 -40.5 -125.5t-96.5 -52.5q-57 0 -97 52t-40 126zM507 605l-244 -605h-93l244 605h93zM109 444q0 -34 13 -58.5t30 -24.5q18 0 30.5 24t12.5 59q0 34 -12.5 57.5t-30.5 23.5q-17 0 -30 -24t-13 -57zM387 162
q0 73 39.5 125t96.5 52q58 0 101 -52.5t43 -124.5q0 -73 -43 -125t-101 -52q-57 0 -96.5 51.5t-39.5 125.5zM481 162q0 -34 12.5 -58t29.5 -24q18 0 31 24t13 58t-13 58t-31 24q-17 0 -29.5 -24t-12.5 -58z" />
    <glyph glyph-name="zero.pl" horiz-adv-x="801" 
d="M48 307q0 136 103.5 231t247.5 95q146 0 250 -95t104 -231q0 -135 -104.5 -231t-249.5 -96q-144 0 -247.5 96t-103.5 231zM190 307q0 -84 61.5 -145t147.5 -61q87 0 149.5 61t62.5 145t-62.5 144t-149.5 60t-148 -60t-61 -144z" />
    <glyph glyph-name="one.pl" horiz-adv-x="445" 
d="M45 418l-30 113l197 82h128v-613h-142v481z" />
    <glyph glyph-name="one.pl.alt" horiz-adv-x="352" 
d="M105 0v613h142v-613h-142z" />
    <glyph glyph-name="two.pl" horiz-adv-x="672" 
d="M137 423l-78 93q53 39 85 59t89 39t120 19q68 0 125.5 -18t97 -60t39.5 -103q0 -38 -15.5 -69.5t-39.5 -52t-57.5 -37.5t-64.5 -28t-66 -22q-7 -2 -11 -3q-80 -24 -119.5 -51.5t-39.5 -70.5v-6h401v-112h-543v95q0 191 285 263q82 24 108 49q20 19 20 44q0 34 -34 49.5
t-82 15.5q-65 0 -115 -23.5t-105 -69.5z" />
    <glyph glyph-name="three.pl" horiz-adv-x="743" 
d="M315 268v107h114q32 0 54.5 17.5t22.5 46.5q0 39 -37.5 58t-84.5 19q-109 0 -223 -95l-80 86q150 126 305 126q60 0 117 -16t101 -58t44 -102q0 -37 -21.5 -68t-49.5 -46q118 -41 118 -148q0 -100 -94 -157.5t-238 -57.5q-198 0 -336 128l79 92q116 -104 257 -104
q82 0 136 28t54 77q0 37 -32.5 52t-72.5 15h-133z" />
    <glyph glyph-name="four.pl" horiz-adv-x="781" 
d="M741 236v-107h-117v-129h-141v129h-456v86l469 398h128v-377h117zM227 240v-4h256v208h-11z" />
    <glyph glyph-name="five.pl" horiz-adv-x="728" 
d="M616 613v-117h-389v-143q87 61 192 61q109 0 188.5 -52t79.5 -149q0 -60 -28.5 -106.5t-76.5 -73.5t-104.5 -40t-118.5 -13q-173 0 -330 103l69 97q123 -84 262 -84q75 0 127.5 29.5t52.5 86.5q0 45 -41 68t-100 23q-103 0 -216 -65l-84 59v316h517z" />
    <glyph glyph-name="six.pl" horiz-adv-x="744" 
d="M669 570l-69 -96q-83 43 -179 43t-164.5 -54.5t-72.5 -149.5q119 90 252 90q124 0 193 -59.5t69 -138.5q0 -95 -84 -160t-212 -65q-69 0 -131.5 20.5t-112 59t-79 100t-29.5 136.5q0 153 108.5 245t259.5 92q122 0 251 -63zM416 296q-105 0 -221 -67q22 -63 78.5 -98
t128.5 -35q66 0 110.5 33t44.5 77q0 35 -35 62.5t-106 27.5z" />
    <glyph glyph-name="seven.pl" horiz-adv-x="662" 
d="M38 491v122h589v-111l-345 -502h-179l354 491h-419z" />
    <glyph glyph-name="eight.pl" horiz-adv-x="747" 
d="M373 -22q-84 0 -157 23t-120 70t-47 109q0 60 41 101t104 59q-108 31 -108 122q0 55 46.5 95.5t110 59t131.5 18.5q67 0 130.5 -18t110 -59.5t46.5 -98.5q0 -92 -108 -119q63 -18 104 -59t41 -101q0 -61 -47.5 -108.5t-120.5 -70.5t-157 -23zM373 94q69 0 121.5 26
t52.5 69q0 44 -54 68t-120 24t-119.5 -24t-53.5 -68q0 -43 52 -69t121 -26zM373 382q66 0 101.5 18t35.5 51q0 36 -42.5 56.5t-94.5 20.5t-94 -20.5t-42 -56.5q0 -33 35.5 -51t100.5 -18z" />
    <glyph glyph-name="nine.pl" horiz-adv-x="741" 
d="M73 42l69 97q78 -43 179 -43q95 0 163.5 54.5t73.5 149.5q-117 -90 -252 -90q-123 0 -192.5 59t-69.5 138q0 96 83.5 161t211.5 65q69 0 131.5 -20.5t112 -59t79 -100t29.5 -136.5q0 -153 -108.5 -245t-259.5 -92q-120 0 -250 62zM325 317q103 0 221 66q-22 63 -78.5 98
t-127.5 35q-66 0 -110.5 -33t-44.5 -76q0 -36 35 -63t105 -27z" />
    <glyph glyph-name="dollar.pl" horiz-adv-x="695" 
d="M258 -140l14 129q-133 22 -247 112l77 93q93 -74 187 -95l16 163q-55 5 -93 13.5t-76.5 27t-58.5 52.5t-20 83q0 53 23.5 92.5t63 61t84 31.5t95.5 10q2 0 7.5 -0.5t8.5 -0.5l9 91h95l-11 -100q118 -21 205 -76l-78 -94q-55 39 -145 59l-14 -133q42 -4 73.5 -9.5t68 -19
t60.5 -32.5t40 -52t16 -77q0 -106 -79.5 -157.5t-205.5 -51.5h-9l-11 -120h-95zM521 175q0 39 -32.5 56t-100.5 24l-16 -165h4q66 0 105.5 22t39.5 63zM195 448q0 -55 122 -63l14 137h-11q-58 0 -91.5 -19t-33.5 -55z" />
    <glyph glyph-name="cent.pl" horiz-adv-x="596" 
d="M193 -140l29 138q-85 25 -138 91t-53 157q0 115 80 186.5t197 71.5q14 0 21 -1l18 80h95l-21 -95q72 -22 130 -67l-82 -88q-37 28 -76 43l-59 -279q66 4 141 66l82 -82q-16 -18 -43 -37t-83.5 -39.5t-116.5 -20.5l-26 -124h-95zM174 246q0 -90 77 -131l60 276
q-60 -2 -98.5 -42t-38.5 -103z" />
    <glyph glyph-name="Euro.pl" horiz-adv-x="785" 
d="M46 343v75h105q35 95 121 154.5t198 59.5q72 0 142 -23t120 -63l-75 -93q-77 60 -177 60q-55 0 -100.5 -25.5t-72.5 -69.5h239v-75h-268q-3 -18 -3 -37q0 -12 2 -32h269v-75h-242q27 -46 74 -73t105 -27q106 0 187 74l76 -92q-120 -101 -274 -101q-115 0 -201.5 61
t-121.5 158h-103v75h86q-1 11 -1 33q0 24 2 36h-87z" />
    <glyph glyph-name="sterling.pl" horiz-adv-x="730" 
d="M57 284v86h134v79q0 89 70.5 136.5t167.5 47.5q49 0 117 -19.5t128 -50.5l-61 -100q-103 53 -179 53q-40 0 -70.5 -21.5t-30.5 -62.5v-62h224v-86h-224v-59q0 -53 -20.5 -79t-68.5 -35h429v-111h-616v111h40q54 0 74 22.5t20 91.5v59h-134z" />
    <glyph glyph-name="yen.pl" horiz-adv-x="801" 
d="M61 343v75h163l-147 195h174l153 -211l152 211h165l-147 -195h166v-75h-222l-48 -64v-5h270v-75h-270v-199h-141v199h-268v75h268v5l-49 64h-219z" />
    <glyph glyph-name="florin.pl" horiz-adv-x="449" 
d="M40 284v86h117l28 128q15 70 69.5 102.5t119.5 32.5q76 0 102 -16l-30 -100q-41 9 -71 9q-51 0 -59 -38l-25 -118h127v-86h-146l-60 -283q-10 -48 -35 -84.5t-58 -56.5t-68 -30t-71 -10l-10 100q96 20 110 87l59 277h-99z" />
    <glyph glyph-name="colonmonetary.pl" horiz-adv-x="724" 
d="M514 723h70l-27 -125q75 -28 132 -78l-86 -84q-32 26 -71 45l-80 -377q87 22 162 96l86 -83q-123 -117 -273 -133l-26 -124h-70l26 122q-47 3 -85 13l-28 -135h-70l34 159q-84 41 -132 117.5t-48 169.5q0 128 86 220.5t223 104.5l20 92h70l-20 -91q40 -3 85 -14zM297 114
q37 -16 84 -18l87 409q-42 12 -85 12zM172 306q0 -92 64 -153l75 352q-63 -21 -101 -75.5t-38 -123.5z" />
    <glyph glyph-name="franc.pl" horiz-adv-x="693" 
d="M38 107v80h104v426h523v-114h-382v-105h236v-113h-236v-94h172v-80h-172v-107h-141v107h-104z" />
    <glyph glyph-name="lira.pl" horiz-adv-x="736" 
d="M64 343v75h134v31q0 89 70.5 136.5t167.5 47.5q49 0 117 -19.5t128 -50.5l-61 -100q-103 53 -179 53q-41 0 -71 -21.5t-30 -62.5v-14h224v-75h-224v-69h224v-75h-225q-4 -39 -25 -59.5t-63 -28.5h429v-111h-616v111h40q49 0 69.5 18t23.5 70h-133v75h134v69h-134z" />
    <glyph glyph-name="peso.pl" horiz-adv-x="837" 
d="M42 348v75h88v190h326q130 0 198 -72q46 -50 56 -118h94v-75h-92q-10 -77 -65 -130q-68 -66 -191 -66h-185v-152h-141v348h-88zM541 295q21 23 28 53h-298v-82h184q55 0 86 29zM456 499h-185v-76h297q-5 23 -24 45q-30 31 -88 31z" />
    <glyph glyph-name="peseta.pl" horiz-adv-x="1591" 
d="M997 100l10 -100q-25 -19 -105 -19q-64 0 -109 35t-45 110v263h-62q-9 -60 -53 -102q-64 -64 -188 -64h-209v-223h-141v613h350q125 0 191 -67q27 -31 39 -58h73v138h134v-138h120v-99h-120v-253q0 -43 53 -43q20 0 62 7zM1519 454l-46 -95q-97 44 -177 44t-80 -47
q0 -12 6.5 -20.5t14.5 -13t23.5 -7.5t25 -3.5t26.5 -1.5q35 -2 58.5 -4t60 -11.5t59 -25t39.5 -45t17 -69.5q0 -84 -64.5 -128t-166.5 -44q-130 0 -248 74l46 95q109 -66 204 -66q46 0 71 15.5t25 41.5q0 16 -9 27t-27 16.5t-31.5 7t-35.5 3.5q-35 2 -54 4t-50.5 7t-49 14.5
t-36.5 24.5t-27.5 39t-8.5 56q0 85 61 124.5t146 39.5q60 0 125 -17t103 -35zM445 496h-209v-156h209q54 0 79 24q24 22 24 53t-22 53q-26 26 -81 26z" />
    <glyph glyph-name="rupiah.pl" horiz-adv-x="1348" 
d="M237 0h-141v613h360q117 0 182 -67q52 -52 52 -125q0 -57 -34.5 -102t-92.5 -70l147 -249h-160l-128 229h-185v-229zM456 496h-219v-151h229q33 0 58 23t25 53q0 27 -20 49q-25 26 -73 26zM788 488h125q5 -32 5 -61q66 77 155 77q98 0 166.5 -72t68.5 -187
q0 -113 -69 -186t-166 -73q-81 0 -141 63v-256h-133v557q0 81 -11 138zM1050 98q49 0 81.5 41t32.5 105q0 67 -33 107t-82 40q-65 0 -117 -55v-185q58 -53 118 -53z" />
    <glyph glyph-name="Rupee.pl" horiz-adv-x="812" 
d="M100 348v75h413q-5 23 -24 45q-30 31 -88 31h-301v114h649v-75h-163q56 -48 69 -115h94v-75h-92q-10 -77 -65 -130q-63 -52 -172 -52l-69 4l284 -170h-221l-314 191v75h300q55 0 86 29q21 23 28 53h-414z" />
    <glyph glyph-name="section.pl" horiz-adv-x="681" 
d="M653 232q0 -73 -55 -126q-21 -21 -51 -37q7 -9 13 -22q10 -27 10 -54q0 -58 -37.5 -97.5t-88 -55t-107.5 -15.5q-121 0 -220 55l56 92q88 -42 165 -42q35 0 63.5 11.5t28.5 39.5q0 15 -9 24q-18 18 -111 28q-9 1 -13 2q-160 21 -226 86q-46 44 -46 107q0 69 53 122
q22 22 53 39q-6 7 -11 19q-12 26 -12 59q0 57 37.5 97t88 55.5t108.5 15.5q121 0 225 -56l-56 -92q-88 42 -171 42q-91 0 -91 -50q0 -15 9 -24q5 -4 12.5 -7.5t14.5 -6t20.5 -5t21.5 -3.5t26.5 -3.5t27.5 -3.5q161 -18 229 -90q43 -43 43 -104zM363 308q-111 13 -149 26
q-16 -11 -25 -23q-27 -30 -27 -66q-1 -29 20 -49q31 -31 134 -43q108 -13 149 -27q16 12 22 20q30 32 30 68q0 29 -20 49q-32 33 -134 45z" />
    <glyph glyph-name="numbersign.pl" horiz-adv-x="878" 
d="M586 666h91l-31 -178h199v-104h-218l-31 -177h190v-103h-208l-36 -209h-91l36 209h-169l-36 -209h-91l36 209h-196v103h214l31 177h-186v104h205l31 178h91l-31 -178h169zM367 384l-31 -177h169l31 177h-169z" />
    <glyph glyph-name="percent.pl" horiz-adv-x="1040" 
d="M649 653h114l-371 -653h-115zM30 479q0 78 60.5 134t146.5 56q85 0 147.5 -56.5t62.5 -133.5q0 -79 -62 -135.5t-148 -56.5q-87 0 -147 56t-60 136zM150 479q0 -37 25.5 -63.5t61.5 -26.5q37 0 63.5 26.5t26.5 63.5t-26.5 63t-63.5 26q-36 0 -61.5 -26t-25.5 -63z
M593 175q0 78 60.5 134t146.5 56q85 0 147.5 -56.5t62.5 -133.5q0 -79 -62 -135t-148 -56q-87 0 -147 56t-60 135zM713 175q0 -37 25.5 -63.5t61.5 -26.5q37 0 63.5 26.5t26.5 63.5t-26.5 63t-63.5 26q-36 0 -61.5 -26t-25.5 -63z" />
    <glyph glyph-name="perthousand.pl" horiz-adv-x="1494" 
d="M649 653h114l-371 -653h-115zM30 479q0 78 60.5 134t146.5 56q85 0 147.5 -56.5t62.5 -133.5q0 -79 -62 -135.5t-148 -56.5q-87 0 -147 56t-60 136zM150 479q0 -37 25.5 -63.5t61.5 -26.5q37 0 63.5 26.5t26.5 63.5t-26.5 63t-63.5 26q-36 0 -61.5 -26t-25.5 -63z
M593 175q0 78 60.5 134t146.5 56q85 0 147.5 -56.5t62.5 -133.5q0 -79 -62 -135t-148 -56q-87 0 -147 56t-60 135zM713 175q0 -37 25.5 -63.5t61.5 -26.5q37 0 63.5 26.5t26.5 63.5t-26.5 63t-63.5 26q-36 0 -61.5 -26t-25.5 -63zM1051 175q0 78 60.5 134t146.5 56
t148.5 -56.5t62.5 -133.5q0 -79 -62.5 -135t-148.5 -56t-146.5 56t-60.5 135zM1171 175q0 -37 25.5 -63.5t61.5 -26.5q37 0 64 26.5t27 63.5t-26.5 63t-64.5 26q-36 0 -61.5 -26t-25.5 -63z" />
    <glyph glyph-name="zero.tl" horiz-adv-x="751" 
d="M43 307q0 136 97.5 231t234.5 95t235 -95t98 -231q0 -135 -98.5 -231t-234.5 -96t-234 96t-98 231zM184 307q0 -84 56 -145t135 -61q78 0 135 61.5t57 144.5q0 84 -57 144t-135 60q-79 0 -135 -60t-56 -144z" />
    <glyph glyph-name="one.tl" horiz-adv-x="751" 
d="M125 0v112h226v369l-214 -69l-31 113l258 88h129v-501h180v-112h-548z" />
    <glyph glyph-name="two.tl" horiz-adv-x="751" 
d="M152 423l-79 93q41 28 68 44.5t68 35.5t86.5 28t97.5 9q76 0 139 -18t106 -60t43 -103q0 -38 -19.5 -70t-38.5 -50t-68 -39t-66 -26.5t-75 -21.5q-5 -2 -8.5 -3t-7.5 -2q-92 -24 -138.5 -51.5t-46.5 -70.5v-6h456v-112h-599v95q0 189 313 263q96 24 128 46q28 21 29 47
q0 34 -41.5 49.5t-101.5 15.5q-73 0 -129 -24t-116 -69z" />
    <glyph glyph-name="three.tl" horiz-adv-x="751" 
d="M318 268v107h116q32 0 54.5 17.5t22.5 46.5q0 39 -37.5 58t-85.5 19q-111 0 -225 -95l-80 86q150 126 307 126q44 0 88 -10t84.5 -29.5t65.5 -55t25 -81.5q0 -38 -21 -68.5t-50 -45.5q120 -42 120 -148q0 -100 -95 -157.5t-241 -57.5q-198 0 -338 128l79 92
q118 -104 259 -104q84 0 139 28t55 77q0 37 -33.5 52t-73.5 15h-135z" />
    <glyph glyph-name="four.tl" horiz-adv-x="751" 
d="M712 236v-107h-111v-129h-142v129h-434v86l448 398h128v-377h111zM223 240v-4h236v208h-10z" />
    <glyph glyph-name="five.tl" horiz-adv-x="751" 
d="M634 613v-117h-403v-143q92 61 200 61q112 0 194 -52t82 -149q0 -80 -51.5 -134.5t-124.5 -76.5t-160 -22q-179 0 -339 103l70 97q123 -84 269 -84q80 0 135 29.5t55 86.5q0 45 -43.5 68t-106.5 23q-105 0 -224 -65l-84 59v316h531z" />
    <glyph glyph-name="six.tl" horiz-adv-x="751" 
d="M674 570l-69 -96q-83 43 -181 43q-96 0 -165.5 -55t-73.5 -150q118 91 254 91q125 0 194.5 -59.5t69.5 -138.5q0 -95 -84 -160t-213 -65q-145 0 -249.5 84t-104.5 232q0 102 52.5 180.5t136 117.5t181.5 39q123 0 252 -63zM420 296q-104 0 -224 -68q23 -63 80 -97.5
t129 -34.5q68 0 112.5 33t44.5 77q0 35 -35.5 62.5t-106.5 27.5z" />
    <glyph glyph-name="seven.tl" horiz-adv-x="751" 
d="M48 491v122h656v-111l-393 -502h-181l404 491h-486z" />
    <glyph glyph-name="eight.tl" horiz-adv-x="751" 
d="M375 -22q-85 0 -158 23t-120.5 70t-47.5 109q0 60 41.5 101t105.5 59q-110 31 -110 122q0 55 47 95.5t111 59t132 18.5t131.5 -18t110 -59.5t46.5 -98.5q0 -92 -109 -119q64 -18 105.5 -59t41.5 -101q0 -61 -48 -108.5t-121.5 -70.5t-157.5 -23zM375 94q70 0 123 26
t53 69q0 44 -54.5 68t-121.5 24t-121 -24t-54 -68q0 -43 53 -69t122 -26zM375 382q67 0 102.5 18t35.5 51q0 36 -43 56.5t-95 20.5t-95 -20.5t-43 -56.5q0 -33 36 -51t102 -18z" />
    <glyph glyph-name="nine.tl" horiz-adv-x="751" 
d="M74 42l70 97q80 -43 181 -43q97 0 166.5 55t73.5 150q-120 -91 -255 -91q-125 0 -195 59t-70 138q0 96 84.5 161t213.5 65q146 0 251 -84t105 -232q0 -102 -53 -180.5t-136.5 -117.5t-182.5 -39q-120 0 -253 62zM329 317q104 0 224 66q-22 63 -79 98t-130 35
q-68 0 -113 -33t-45 -76q0 -36 35.5 -63t107.5 -27z" />
    <glyph glyph-name="dollar.tl" horiz-adv-x="751" 
d="M286 -140l12 128q-142 21 -268 113l78 93q103 -76 207 -96l15 165q-46 4 -78 9.5t-70 17.5t-61.5 30t-39.5 48.5t-16 70.5q0 53 25 92.5t67.5 60.5t90.5 31t102 10h9l9 90h96l-9 -99q132 -22 224 -77l-78 -94q-64 41 -163 60l-13 -134q46 -4 81.5 -10.5t74.5 -20
t64 -33.5t41.5 -52.5t16.5 -75.5q0 -104 -85 -155.5t-220 -51.5h-5l-11 -120h-96zM566 177q0 38 -36.5 54.5t-115.5 23.5l-15 -165h4q73 0 118 22t45 65zM203 450q0 -33 35.5 -46.5t102.5 -18.5l12 137h-6q-66 0 -105 -19t-39 -53z" />
    <glyph glyph-name="cent.tl" horiz-adv-x="751" 
d="M245 -140l36 138q-101 25 -164.5 91t-63.5 157q0 115 96 186.5t236 71.5q18 0 27 -1l21 80h100l-25 -92q92 -20 165 -70l-84 -88q-52 32 -114 48l-74 -284q107 1 193 66l85 -82q-18 -18 -49.5 -37t-98 -39.5t-139.5 -20.5h-15l-33 -124h-99zM197 246q0 -47 32 -83.5
t85 -53.5l74 282q-82 -1 -136.5 -40.5t-54.5 -104.5z" />
    <glyph glyph-name="Euro.tl" horiz-adv-x="751" 
d="M43 343v75h100q33 95 115.5 154.5t190.5 59.5q70 0 136.5 -23t113.5 -63l-74 -93q-73 60 -164 60q-107 0 -164 -95h224v-75h-250q-3 -18 -3 -37q0 -12 2 -32h251v-75h-226q25 -46 69.5 -73t99.5 -27q99 0 175 74l74 -92q-113 -101 -261 -101q-111 0 -194.5 60.5
t-116.5 158.5h-98v75h82q-1 11 -1 33q0 12 2 36h-83z" />
    <glyph glyph-name="sterling.tl" horiz-adv-x="751" 
d="M59 284v86h138v79q0 89 72.5 136.5t171.5 47.5q51 0 121 -19.5t130 -50.5l-61 -100q-106 53 -185 53q-43 0 -75 -21.5t-32 -62.5v-62h233v-86h-233v-59q0 -53 -20.5 -79t-69.5 -35h442v-111h-632v111h41q56 0 76.5 22.5t20.5 91.5v59h-138z" />
    <glyph glyph-name="yen.tl" horiz-adv-x="751" 
d="M55 343v75h151l-138 195h174l137 -211l136 211h165l-137 -195h153v-75h-206l-45 -64v-5h251v-75h-251v-199h-141v199h-249v75h249v5l-45 64h-204z" />
    <glyph glyph-name="florin.tl" horiz-adv-x="751" 
d="M190 284v86h117l28 128q15 70 69.5 102.5t119.5 32.5q76 0 102 -16l-30 -100q-40 9 -71 9q-51 0 -59 -38l-25 -118h127v-86h-146l-60 -283q-10 -48 -35 -84.5t-58 -56.5t-68 -30t-71 -10l-10 100q96 20 110 87l59 277h-99z" />
    <glyph glyph-name="colonmonetary.tl" horiz-adv-x="751" 
d="M532 723h71l-27 -125q76 -28 135 -78l-87 -84q-35 29 -74 46l-83 -379q91 22 169 97l86 -83q-126 -117 -281 -133l-27 -124h-70l26 122q-50 3 -88 14l-29 -136h-70l34 159q-86 40 -135.5 117t-49.5 170q0 128 89 221t230 104l20 92h71l-20 -91q43 -3 87 -14zM308 113
q40 -16 87 -17l89 409q-44 12 -87 12zM176 306q0 -96 70 -155l78 355q-67 -21 -107.5 -76t-40.5 -124z" />
    <glyph glyph-name="franc.tl" horiz-adv-x="751" 
d="M42 107v80h113v426h561v-114h-420v-105h259v-113h-259v-94h187v-80h-187v-107h-141v107h-113z" />
    <glyph glyph-name="lira.tl" horiz-adv-x="751" 
d="M66 343v75h138v31q0 89 71.5 136.5t169.5 47.5q49 0 118 -19.5t129 -50.5l-61 -100q-104 53 -181 53q-42 0 -73 -21.5t-31 -62.5v-14h229v-75h-229v-69h229v-75h-230q-4 -39 -25 -59.5t-63 -28.5h434v-111h-625v111h43q50 0 70.5 18t23.5 70h-137v75h138v69h-138z" />
    <glyph glyph-name="peso.tl" horiz-adv-x="751" 
d="M28 348v75h85v190h282q130 0 198 -72q46 -50 56 -118h84v-75h-82q-10 -77 -65 -130q-68 -66 -191 -66h-141v-152h-141v348h-85zM480 295q21 23 28 53h-254v-82h140q55 0 86 29zM395 499h-141v-76h253q-5 23 -24 45q-30 31 -88 31z" />
    <glyph glyph-name="Rupee.tl" horiz-adv-x="751" 
d="M57 348v75h413q-5 23 -24 45q-30 31 -88 31h-301v114h649v-75h-163q56 -48 69 -115h94v-75h-92q-10 -77 -65 -130q-63 -52 -172 -52l-69 4l284 -170h-221l-314 191v75h300q55 0 86 29q21 23 28 53h-414z" />
    <glyph glyph-name="section.tl" horiz-adv-x="751" 
d="M650 106q-25 -22 -58 -37q10 -14 14 -22q12 -24 12 -54q0 -58 -40 -97.5t-93.5 -55t-113.5 -15.5q-129 0 -234 55l57 92q93 -42 178 -42q25 0 47 4t40.5 16t18.5 31q0 14 -10 24q-20 17 -120 28q-11 1 -17 2q-173 21 -244 86q-49 44 -49 107q0 69 56 122q21 19 60 39
q-7 8 -13 19q-12 26 -12 59q0 57 39.5 97t93 55.5t114.5 15.5q129 0 239 -56l-57 -92q-93 42 -184 42q-17 0 -33 -2t-33 -7t-27.5 -15.5t-10.5 -25.5t10 -24q6 -5 15 -9t25.5 -7t25.5 -4.5t35 -4.5t35 -4q173 -18 246 -90q47 -44 47 -104q0 -72 -59 -126zM399 308
q-122 13 -161 26q-19 -11 -31 -23q-32 -30 -32 -66q0 -30 24 -49q35 -32 148 -43q118 -12 162 -27q20 12 29 20q33 31 33 68q1 29 -23 49q-36 34 -149 45z" />
    <glyph glyph-name="numbersign.tl" horiz-adv-x="751" 
d="M498 666h87l-27 -178h169v-104h-185l-27 -177h161v-103h-177l-31 -209h-86l31 209h-139l-31 -209h-87l32 209h-167v103h183l27 177h-159v104h175l27 178h86l-27 -178h138zM317 384l-27 -177h139l26 177h-138z" />
    <glyph glyph-name="percent.tl" horiz-adv-x="751" 
d="M4 479q0 78 45.5 134t110.5 56q64 0 110.5 -56.5t46.5 -133.5q0 -79 -46.5 -135.5t-110.5 -56.5q-65 0 -110.5 56t-45.5 136zM562 653l-280 -653h-94l280 653h94zM103 479q0 -36 17 -63t40 -27q25 0 42 26.5t17 63.5t-17 63t-42 26q-23 0 -40 -26.5t-17 -62.5zM433 175
q0 78 45.5 134t109.5 56q65 0 111.5 -56t46.5 -134q0 -79 -46.5 -135t-111.5 -56q-64 0 -109.5 56t-45.5 135zM532 175q0 -37 16.5 -63.5t39.5 -26.5q25 0 42.5 26.5t17.5 63.5t-17.5 63t-42.5 26q-23 0 -39.5 -26t-16.5 -63z" />
    <glyph glyph-name="zero.numerator" horiz-adv-x="572" 
d="M31 437q0 96 74.5 163.5t179.5 67.5q106 0 181.5 -67.5t75.5 -163.5t-75.5 -164t-181.5 -68q-105 0 -179.5 68t-74.5 164zM148 437q0 -54 40 -94t97 -40t98 40t41 94t-41 93t-98 39t-97 -39t-40 -93z" />
    <glyph glyph-name="one.numerator" horiz-adv-x="328" 
d="M29 503l-25 92l140 58h106v-433h-119v324z" />
    <glyph glyph-name="two.numerator" horiz-adv-x="482" 
d="M101 507l-65 75q39 29 63 43.5t66 28.5t88 14q79 0 135 -33t56 -98q0 -28 -12.5 -51.5t-28 -37.5t-44.5 -28t-46.5 -20t-50.5 -16q-54 -17 -78.5 -32.5t-24.5 -38.5v-2h276v-91h-394v73q0 75 55.5 119t151.5 68q78 22 78 57q0 37 -69 37q-75 0 -156 -67z" />
    <glyph glyph-name="three.numerator" horiz-adv-x="534" 
d="M220 403v86h81q23 0 36 11t13 27q0 24 -23 35.5t-52 11.5q-75 0 -155 -67l-66 71q110 90 223 90q44 0 85 -11.5t73.5 -41.5t32.5 -73q0 -49 -47 -78q80 -29 80 -105q0 -72 -68.5 -113t-172.5 -41q-142 0 -243 92l65 74q82 -72 178 -72q53 0 88 17.5t35 47.5q0 39 -66 39
h-97z" />
    <glyph glyph-name="four.numerator" horiz-adv-x="566" 
d="M539 394v-87h-82v-87h-118v87h-318v67l331 279h105v-259h82zM186 396v-2h153v122h-8q-9 -7 -63 -51.5t-82 -68.5z" />
    <glyph glyph-name="five.numerator" horiz-adv-x="526" 
d="M446 653v-94h-270v-90q60 44 133 44q77 0 133.5 -37t56.5 -106q0 -56 -36.5 -95t-88.5 -54.5t-113 -15.5q-125 0 -239 57l51 84q89 -47 188 -47q49 0 82.5 18t33.5 53q0 26 -25 39.5t-62 13.5q-72 0 -151 -45l-69 47v228h376z" />
    <glyph glyph-name="six.numerator" horiz-adv-x="532" 
d="M485 627l-56 -78q-58 25 -125 25q-65 0 -111 -34.5t-50 -95.5q82 61 172 61q89 0 139 -41.5t50 -98.5q0 -68 -61 -114t-154 -46q-105 0 -181 59.5t-76 164.5q0 108 79.5 173.5t189.5 65.5q88 0 184 -41zM299 419q-71 0 -145 -42q16 -37 52.5 -57.5t81.5 -20.5q43 0 71 20
t28 47q0 20 -22 36.5t-66 16.5z" />
    <glyph glyph-name="seven.numerator" horiz-adv-x="479" 
d="M28 554v99h430v-89l-244 -344h-149l250 334h-287z" />
    <glyph glyph-name="eight.numerator" horiz-adv-x="539" 
d="M270 203q-97 0 -167 39.5t-70 105.5q0 41 26.5 69.5t68.5 42.5q-71 25 -71 85q0 58 67 91t147 33q79 0 144.5 -33.5t65.5 -93.5q0 -62 -69 -82q42 -14 68 -42.5t26 -69.5q0 -66 -70.5 -105.5t-165.5 -39.5zM270 298q45 0 78 15.5t33 41.5t-35 41.5t-76 15.5
q-42 0 -77 -15.5t-35 -41.5t33.5 -41.5t78.5 -15.5zM270 494q86 0 86 42q0 22 -27 34.5t-59 12.5q-33 0 -60 -12.5t-27 -34.5q0 -42 87 -42z" />
    <glyph glyph-name="nine.numerator" horiz-adv-x="533" 
d="M48 245l55 79q59 -26 126 -26q64 0 109.5 34.5t49.5 94.5q-81 -60 -171 -60q-88 0 -138 42t-50 98q0 68 60.5 114.5t153.5 46.5q106 0 182 -59.5t76 -164.5q0 -109 -79.5 -174t-190.5 -65q-83 0 -183 40zM234 454q66 0 144 41q-16 37 -52.5 58t-81.5 21q-42 0 -70 -20
t-28 -47q0 -21 21.5 -37t66.5 -16z" />
    <glyph glyph-name="zero.denominator" horiz-adv-x="573" 
d="M31 217q0 96 74.5 163.5t179.5 67.5q106 0 181.5 -67.5t75.5 -163.5t-75.5 -164t-181.5 -68q-105 0 -179.5 68t-74.5 164zM148 217q0 -54 40 -94t97 -40t98 40t41 94t-41 93t-98 39t-97 -39t-40 -93z" />
    <glyph glyph-name="one.denominator" horiz-adv-x="328" 
d="M29 283l-25 92l140 58h106v-433h-119v324z" />
    <glyph glyph-name="two.denominator" horiz-adv-x="482" 
d="M101 287l-65 75q39 29 63 43.5t66 28.5t88 14q79 0 135 -33t56 -98q0 -28 -12.5 -51.5t-28 -37.5t-44.5 -28t-46.5 -20t-50.5 -16q-54 -17 -78.5 -32.5t-24.5 -38.5v-2h276v-91h-394v73q0 75 55.5 119t151.5 68q78 22 78 57q0 37 -69 37q-75 0 -156 -67z" />
    <glyph glyph-name="three.denominator" horiz-adv-x="534" 
d="M220 183v86h81q23 0 36 11t13 27q0 24 -23 35.5t-52 11.5q-75 0 -155 -67l-66 71q110 90 223 90q44 0 85 -11.5t73.5 -41.5t32.5 -73q0 -49 -47 -78q80 -29 80 -105q0 -72 -68.5 -113t-172.5 -41q-142 0 -243 92l65 74q82 -72 178 -72q53 0 88 17.5t35 47.5q0 39 -66 39
h-97z" />
    <glyph glyph-name="four.denominator" horiz-adv-x="566" 
d="M539 174v-87h-82v-87h-118v87h-318v67l331 279h105v-259h82zM186 176v-2h153v122h-8q-9 -7 -63 -51.5t-82 -68.5z" />
    <glyph glyph-name="five.denominator" horiz-adv-x="526" 
d="M446 433v-94h-270v-90q60 44 133 44q77 0 133.5 -37t56.5 -106q0 -56 -36.5 -95t-88.5 -54.5t-113 -15.5q-125 0 -239 57l51 84q89 -47 188 -47q49 0 82.5 18t33.5 53q0 26 -25 39.5t-62 13.5q-72 0 -151 -45l-69 47v228h376z" />
    <glyph glyph-name="six.denominator" horiz-adv-x="533" 
d="M485 407l-56 -78q-58 25 -125 25q-65 0 -111 -34.5t-50 -95.5q82 61 172 61q89 0 139 -41.5t50 -98.5q0 -68 -61 -114t-154 -46q-105 0 -181 59.5t-76 164.5q0 108 79.5 173.5t189.5 65.5q88 0 184 -41zM299 199q-71 0 -145 -42q16 -37 52.5 -57.5t81.5 -20.5q43 0 71 20
t28 47q0 20 -22 36.5t-66 16.5z" />
    <glyph glyph-name="seven.denominator" horiz-adv-x="479" 
d="M28 334v99h430v-89l-243 -344h-149l250 334h-288z" />
    <glyph glyph-name="eight.denominator" horiz-adv-x="539" 
d="M270 -17q-97 0 -167 39.5t-70 105.5q0 41 26.5 69.5t68.5 42.5q-71 25 -71 85q0 58 67 91t147 33q79 0 144.5 -33.5t65.5 -93.5q0 -62 -69 -82q42 -14 68 -42.5t26 -69.5q0 -66 -70.5 -105.5t-165.5 -39.5zM270 78q45 0 78 15.5t33 41.5t-35 41.5t-76 15.5
q-42 0 -77 -15.5t-35 -41.5t33.5 -41.5t78.5 -15.5zM270 274q86 0 86 42q0 22 -27 34.5t-59 12.5q-33 0 -60 -12.5t-27 -34.5q0 -42 87 -42z" />
    <glyph glyph-name="nine.denominator" horiz-adv-x="533" 
d="M48 25l56 79q57 -26 125 -26q64 0 110 34.5t50 95.5q-79 -61 -172 -61q-88 0 -138 42t-50 98q0 68 61 114.5t154 46.5q105 0 181 -59.5t76 -164.5q0 -109 -79.5 -174t-189.5 -65q-84 0 -184 40zM234 234q67 0 145 41q-17 37 -53 58t-81 21q-42 0 -70.5 -20.5t-28.5 -46.5
q0 -21 21.5 -37t66.5 -16z" />
    <glyph glyph-name="acute.cap" 
d="M161 726l100 138h143l-124 -138h-119z" />
    <glyph glyph-name="grave.cap" 
d="M235 864l100 -138h-120l-123 138h143z" />
    <glyph glyph-name="circumflex.cap" 
d="M76 726l106 139h132l105 -139h-105l-66 74l-67 -74h-105z" />
    <glyph glyph-name="dieresis.cap" 
d="M62 798q0 27 21 47t51 20q31 0 52.5 -20t21.5 -47q0 -28 -21.5 -47t-52.5 -19t-51.5 19t-20.5 47zM286 798q0 27 21 47t52 20t52.5 -20t21.5 -47q0 -28 -21.5 -47t-52.5 -19t-52 19t-21 47z" />
    <glyph glyph-name="tilde.cap" 
d="M135 721l-80 43q30 53 60 75.5t67 22.5q36 0 72 -25q40 -25 52 -25t23.5 8.5t17 15.5t16.5 22l74 -40q-55 -100 -127 -100q-34 0 -69 23q-3 2 -9.5 6.5t-9.5 6.5t-8 5.5t-8.5 5t-8.5 2.5t-9 1q-6 0 -11.5 -2.5t-9.5 -5t-9 -8.5t-7.5 -9.5t-8 -11t-7.5 -10.5z" />
    <glyph glyph-name="ring.cap" 
d="M187 801q0 -22 16.5 -35.5t41.5 -13.5t41.5 13.5t16.5 35.5q0 23 -16.5 39t-41.5 16t-41.5 -16t-16.5 -39zM245 693q-65 0 -100.5 31t-35.5 77q0 47 36 79.5t100 32.5q63 0 99.5 -33t36.5 -79t-36.5 -77t-99.5 -31z" />
    <glyph glyph-name="cedilla.cap" 
d="M232 24h90l-27 -56q43 -7 75.5 -28.5t32.5 -61.5q0 -46 -48 -75.5t-124 -29.5q-50 0 -138 21l19 71q89 -14 108 -14q66 0 66 33q0 18 -19.5 25.5t-39.5 7.5q-14 0 -23 -3l-13 29z" />
    <glyph glyph-name="breve.cap" 
d="M87 864h93q0 -68 68 -68q67 0 67 68h93q0 -60 -36 -104t-124 -44t-124.5 44t-36.5 104z" />
    <glyph glyph-name="caron.cap" 
d="M181 865l67 -75l66 75h105l-105 -139h-132l-106 139h105z" />
    <glyph glyph-name="dotaccent.cap" 
d="M175 798q0 27 21 47t51 20q31 0 52.5 -20t21.5 -47q0 -28 -21.5 -47t-52.5 -19t-51.5 19t-20.5 47z" />
    <glyph glyph-name="hungarumlaut.cap" 
d="M327 867h112l-71 -143h-83zM144 867h112l-71 -143h-83z" />
    <glyph glyph-name="macron.cap" 
d="M113 838h269v-93h-269v93z" />
    <glyph glyph-name="ogonek.cap" 
d="M254 34l61 -34q-103 -45 -103 -96q0 -45 61 -45q15 0 59 8l11 -80q-50 -14 -94 -14q-65 0 -104 29t-39 76q0 92 148 156z" />
    <glyph glyph-name="commaaccent.cap" 
d="M225 -67l104 26q38 -41 38 -92q0 -54 -45.5 -87.5t-122.5 -33.5q-41 0 -92 14l11 75q49 -7 57 -7q72 0 72 49q0 29 -22 56z" />
    <glyph glyph-name="caron.cap.alt" 
d="M266 464h-68v236h118q0 -137 -50 -236z" />
    <glyph glyph-name="ampersand.cap" horiz-adv-x="763" 
d="M563 620l-60 -109q-25 16 -63.5 29.5t-67.5 13.5q-32 0 -49 -16t-17 -39q0 -12 5.5 -26t12 -25t18.5 -25.5t18.5 -22t18.5 -19.5l13 -13l124 -137q53 59 106 149l106 -53q-64 -105 -135 -181l133 -146h-177l-54 59q-102 -75 -218 -75q-40 0 -79.5 11t-76 34t-59.5 66
t-23 100q0 142 157 203q-32 50 -32 99q0 79 61 128t147 49q83 0 191 -54zM295 281l-36 38q-79 -41 -79 -114q0 -52 36 -78t80 -26q57 0 122 43z" />
    <glyph glyph-name="zero.cap" horiz-adv-x="799" 
d="M47 327q0 144 103.5 245.5t247.5 101.5q145 0 249.5 -101.5t104.5 -245.5t-104.5 -246t-249.5 -102q-144 0 -247.5 102t-103.5 246zM189 327q0 -92 61.5 -159t147.5 -67q87 0 149.5 67t62.5 159t-62.5 158.5t-149.5 66.5t-148 -66t-61 -159z" />
    <glyph glyph-name="one.cap" horiz-adv-x="441" 
d="M42 452l-30 113l196 88h129v-653h-142v521z" />
    <glyph glyph-name="one.cap.alt" horiz-adv-x="435" 
d="M289 0h-143v653h143v-653z" />
    <glyph glyph-name="two.cap" horiz-adv-x="666" 
d="M56 0v98q0 202 285 280q24 7 39 12.5t39.5 18t37.5 31t13 41.5q0 39 -34.5 57t-82.5 18q-64 0 -113.5 -25t-105.5 -73l-78 93q52 41 84 62t89 41t120 20q51 0 96.5 -11t83 -33.5t60 -60t22.5 -86.5q0 -24 -6 -45.5t-13 -38t-23.5 -32.5t-27.5 -26.5t-35 -23t-35 -18
t-39.5 -15.5t-37 -13t-37.5 -12q-79 -25 -118.5 -57t-39.5 -83v-7h400v-112h-543z" />
    <glyph glyph-name="three.cap" horiz-adv-x="738" 
d="M312 289v108h114q32 0 54.5 20t22.5 53q0 43 -37.5 64.5t-84.5 21.5q-109 0 -223 -103l-80 87q150 134 305 134q60 0 117 -17t101 -61t44 -108q0 -42 -21.5 -75t-49.5 -49q48 -16 83 -54t35 -103q0 -107 -94 -167.5t-238 -60.5q-197 0 -336 136l79 93q115 -112 257 -112
q82 0 136 31.5t54 85.5q0 29 -19 47t-40.5 23.5t-45.5 5.5h-133z" />
    <glyph glyph-name="four.cap" horiz-adv-x="777" 
d="M739 248v-108h-116v-140h-142v140h-455v88l468 425h129v-405h116zM225 252v-4h256v234h-11q-220 -206 -245 -230z" />
    <glyph glyph-name="five.cap" horiz-adv-x="726" 
d="M359 -21q-173 0 -330 111l69 98q124 -92 262 -92q76 0 128 32.5t52 96.5q0 51 -41 77t-100 26q-106 0 -216 -69l-84 60v334h517v-118h-389v-158q87 64 192 64q109 0 188.5 -55.5t79.5 -159.5q0 -64 -28.5 -113t-76.5 -77.5t-104.5 -42.5t-118.5 -14z" />
    <glyph glyph-name="six.cap" horiz-adv-x="738" 
d="M667 605l-69 -97q-80 48 -179 48q-96 0 -163.5 -59t-73.5 -161q121 93 252 93q123 0 192.5 -63.5t69.5 -146.5q0 -102 -84 -171t-212 -69q-145 0 -248.5 89.5t-103.5 246.5q0 163 108.5 261t259.5 98q112 0 242 -65q3 -1 5 -2zM414 321q-106 0 -223 -72q20 -73 77 -113
t132 -40q66 0 110.5 37t44.5 86q0 40 -35 71t-106 31z" />
    <glyph glyph-name="seven.cap" horiz-adv-x="648" 
d="M30 530v123h588v-113l-344 -540h-180l354 530h-418z" />
    <glyph glyph-name="eight.cap" horiz-adv-x="743" 
d="M371 -23q-131 0 -227.5 58.5t-96.5 155.5q0 65 41 109t104 62q-108 32 -108 131q0 58 46.5 101t110 62.5t131.5 19.5q67 0 130.5 -19t110 -63t46.5 -103q0 -101 -108 -129q63 -18 104 -62t41 -109q0 -97 -97 -155.5t-228 -58.5zM371 94q69 0 121.5 29t52.5 77
q0 49 -54 76t-120 27t-119.5 -27t-53.5 -76q0 -48 52 -77t121 -29zM371 405q137 0 137 77q0 41 -42.5 63.5t-94.5 22.5t-94 -22.5t-42 -63.5q0 -77 136 -77z" />
    <glyph glyph-name="nine.cap" horiz-adv-x="739" 
d="M72 48l69 97q79 -49 179 -49q95 0 162.5 59.5t73.5 160.5q-119 -92 -251 -92q-123 0 -192.5 63t-69.5 147q0 101 84 170.5t212 69.5q93 0 171.5 -37t129.5 -115.5t51 -184.5q0 -162 -108.5 -260t-259.5 -98q-116 0 -251 69zM325 332q103 0 222 71q-20 72 -77 112.5
t-131 40.5q-66 0 -110.5 -37t-44.5 -86q0 -39 35 -70t106 -31z" />
    <glyph glyph-name="exclamdown.cap" horiz-adv-x="340" 
d="M247 584q0 -35 -27 -60t-66 -25t-66.5 25t-27.5 60t27.5 59.5t66.5 24.5q40 0 66.5 -24.5t26.5 -59.5zM108 435h92l30 -262v-173h-152v173z" />
    <glyph glyph-name="questiondown.cap" horiz-adv-x="575" 
d="M432 179l85 -77q-58 -59 -116.5 -90t-150.5 -31q-93 0 -153.5 39t-60.5 123q0 50 23.5 84.5t65.5 63.5q10 8 52 35t59.5 50t19.5 59h130q1 -37 -8.5 -67t-31 -53t-39.5 -38t-49 -35.5t-44 -30.5q-47 -34 -47 -64q0 -28 25 -43.5t65 -15.5q53 0 93 23t82 68zM396 584
q0 -35 -27 -60t-66 -25t-66.5 25t-27.5 60t27.5 59.5t66.5 24.5t66 -24.5t27 -59.5z" />
    <glyph glyph-name="guilsinglleft.cap" horiz-adv-x="357" 
d="M147 495h150l-126 -150v-8l126 -149h-150l-101 125v56z" />
    <glyph glyph-name="guilsinglright.cap" horiz-adv-x="357" 
d="M60 495h149l102 -126v-56l-102 -125h-149l125 149v8z" />
    <glyph glyph-name="guillemotleft.cap" horiz-adv-x="626" 
d="M147 495h150l-126 -150v-8l126 -149h-150l-101 125v56zM295 337v8l121 150h150l-126 -150v-8l126 -149h-150z" />
    <glyph glyph-name="guillemotright.cap" horiz-adv-x="626" 
d="M329 495h149l102 -126v-56l-102 -125h-149l125 149v8zM331 345v-8l-122 -149h-149l125 149v8l-125 150h149z" />
    <glyph glyph-name="hyphen.cap" horiz-adv-x="399" 
d="M60 288v123h279v-123h-279z" />
    <glyph glyph-name="endash.cap" horiz-adv-x="623" 
d="M60 297v114h503v-114h-503z" />
    <glyph glyph-name="emdash.cap" horiz-adv-x="1077" 
d="M60 297v114h957v-114h-957z" />
    <glyph glyph-name="parenleft.cap" horiz-adv-x="402" 
d="M314 750l67 -82q-92 -52 -147 -146t-55 -204t55 -203t147 -146l-67 -82q-131 68 -204 181t-73 250t73 250.5t204 181.5z" />
    <glyph glyph-name="parenright.cap" horiz-adv-x="402" 
d="M21 668l66 82q131 -68 204 -181.5t73 -250.5t-73 -250t-204 -181l-66 82q92 52 146.5 145.5t54.5 203.5t-54.5 204t-146.5 146z" />
    <glyph glyph-name="bracketleft.cap" horiz-adv-x="382" 
d="M343 3v-102h-262v842h262v-102h-130v-638h130z" />
    <glyph glyph-name="bracketright.cap" horiz-adv-x="382" 
d="M39 743h262v-842h-262v102h130v638h-130v102z" />
    <glyph glyph-name="braceleft.cap" horiz-adv-x="403" 
d="M365 -100q-142 0 -189.5 32t-47.5 135v134q0 79 -103 79v100q42 0 72.5 23t30.5 60v112q1 103 49 136t188 33v-102q-62 0 -82.5 -12t-21.5 -50v-117q0 -48 -30 -82.5t-74 -45.5v-5q103 -18 103 -129v-139q0 -37 21 -48.5t84 -11.5v-102z" />
    <glyph glyph-name="braceright.cap" horiz-adv-x="403" 
d="M38 -100v102q61 0 83 11.5t22 48.5v139q0 111 103 129v5q-44 11 -74 45.5t-30 82.5v117q-1 38 -22 50t-82 12v102q140 0 188 -33t49 -136v-112q0 -37 30.5 -60t72.5 -23v-100q-103 0 -103 -79v-134q0 -103 -47.5 -135t-189.5 -32z" />
    <glyph glyph-name="bullet.cap" horiz-adv-x="461" 
d="M231 184q-72 0 -122.5 47.5t-50.5 115.5q0 67 51 114.5t122 47.5t121.5 -47.5t50.5 -114.5q0 -68 -50.5 -115.5t-121.5 -47.5z" />
    <glyph glyph-name="at.cap" horiz-adv-x="1031" 
d="M655 527h124l-84 -256q-9 -27 -9 -40q0 -39 41 -39q55 0 103.5 59.5t48.5 146.5q0 111 -85 182.5t-222 71.5q-166 0 -285 -101.5t-119 -262.5q0 -79 31.5 -142.5t83.5 -102t113.5 -58.5t126.5 -20q66 0 140 19t124 44l32 -83q-51 -29 -135.5 -52t-165.5 -23
q-65 0 -130 16t-126 50t-108 82t-75 117.5t-28 151.5q0 135 73.5 241.5t191.5 162.5t256 56q184 0 299 -98t115 -245q0 -90 -45.5 -163.5t-111.5 -111t-133 -37.5q-47 0 -81 21t-39 66q-70 -86 -152 -86q-59 0 -101 44t-42 128q0 113 75.5 195.5t158.5 82.5q39 0 69.5 -24
t47.5 -63zM466 208q51 0 102 55l30 90q-8 32 -28.5 53.5t-45.5 21.5q-37 0 -74 -41.5t-37 -105.5q0 -73 53 -73z" />
    <glyph glyph-name="copyright.cap" horiz-adv-x="1030" 
d="M725 473l-51 -89q-68 52 -142 52q-58 0 -94.5 -36.5t-36.5 -90.5q0 -50 39 -81.5t95 -31.5q67 0 146 44l48 -86q-46 -32 -91.5 -48t-113.5 -16q-108 0 -181.5 61t-73.5 158q0 99 69.5 165.5t182.5 66.5q106 0 204 -68zM515 746q193 0 329.5 -128t136.5 -310t-136.5 -310
t-329.5 -128q-194 0 -332 128t-138 310t138 310t332 128zM515 657q-151 0 -260.5 -103.5t-109.5 -245.5q0 -144 109.5 -246t260.5 -102q153 0 259.5 101.5t106.5 246.5q0 143 -107 246t-259 103z" />
    <glyph glyph-name="soundrecordingcopyright.cap" horiz-adv-x="1030" 
d="M514 -129q-194 0 -331.5 128t-137.5 310t137.5 310t331.5 128q193 0 330 -128t137 -310t-137 -310t-330 -128zM513 -39q153 0 260.5 102t107.5 247q0 142 -108 244.5t-260 102.5q-151 0 -259.5 -102.5t-108.5 -244.5q0 -144 108.5 -246.5t259.5 -102.5zM589 223h-130
v-113h-128v416h233q34 0 65.5 -6t64 -21t52 -46.5t19.5 -75.5q0 -75 -52.5 -114.5t-123.5 -39.5zM459 427v-105h119q24 0 41.5 12.5t17.5 41.5q0 26 -18 38.5t-41 12.5h-119z" />
    <glyph glyph-name="dollar.cap" horiz-adv-x="728" 
d="M276 -150l14 139q-131 24 -247 120l78 93q88 -76 186 -101l17 184q-43 4 -73.5 9.5t-66 18.5t-57 31.5t-36.5 50.5t-15 74q0 56 23.5 97.5t63 64t84 32.5t94.5 10q2 0 7.5 -0.5t8.5 -0.5l9 99h95l-11 -109q120 -23 206 -81l-78 -94q-55 42 -144 63l-14 -149
q42 -4 75 -10.5t69 -21t59 -35t38.5 -55t15.5 -79.5q0 -111 -80 -166t-205 -55h-9l-12 -129h-95zM540 186q0 44 -32.5 63.5t-99.5 26.5l-17 -185h3q67 0 106.5 24t39.5 71zM214 479q0 -62 121 -72l15 154h-11q-125 0 -125 -82z" />
    <glyph glyph-name="cent.cap" horiz-adv-x="621" 
d="M207 -150l29 147q-85 26 -138 96.5t-53 166.5q0 122 79.5 197.5t197.5 75.5q14 0 21 -1l18 88h95l-21 -104q73 -22 130 -69l-82 -88q-35 29 -75 45l-62 -308q64 4 143 71l82 -81q-16 -19 -43 -39.5t-83 -42t-117 -21.5l-26 -133h-95zM188 260q0 -48 21 -86t56 -59l61 305
q-60 -2 -99 -45.5t-39 -114.5z" />
    <glyph glyph-name="Euro.cap" horiz-adv-x="798" 
d="M51 367v77h104q35 101 121.5 165t198.5 64q73 0 143 -25.5t119 -68.5l-75 -93q-77 67 -176 67q-57 0 -103.5 -29.5t-73.5 -79.5h242v-77h-268q-3 -21 -3 -41q0 -13 2 -35h269v-77h-245q27 -53 74.5 -84t107.5 -31q51 0 101 22t87 59l75 -92q-116 -109 -273 -109
q-115 0 -203 65.5t-122 169.5h-102v77h87q-2 24 -2 36q0 14 2 40h-87z" />
    <glyph glyph-name="sterling.cap" horiz-adv-x="723" 
d="M56 305v88h134v85q0 95 70.5 145.5t167.5 50.5q49 0 117 -21t128 -55l-61 -100q-102 58 -179 58q-41 0 -71 -24t-30 -69v-70h224v-88h-224v-71q0 -57 -20.5 -84.5t-68.5 -37.5h429v-112h-616v112h40q54 0 74 24t20 98v71h-134z" />
    <glyph glyph-name="yen.cap" horiz-adv-x="787" 
d="M54 367v77h165l-149 209h175l153 -231l151 231h166l-149 -209h167v-77h-221l-48 -68v-8h269v-77h-269v-214h-142v214h-268v77h268v8l-49 68h-219z" />
    <glyph glyph-name="florin.cap" horiz-adv-x="449" 
d="M40 393h118l27 135q10 52 42.5 86t69 47t77.5 13q75 0 102 -20l-30 -101q-33 13 -71 13q-50 0 -59 -47l-26 -126h128v-88h-145l-61 -304q-13 -67 -52.5 -112t-85 -62.5t-94.5 -17.5l-10 100q27 6 46 14t38.5 29.5t25.5 53.5l60 299h-100v88z" />
    <glyph glyph-name="colonmonetary.cap" horiz-adv-x="761" 
d="M534 771h70l-27 -135q74 -30 132 -83l-87 -83q-31 28 -68 48l-83 -415q88 25 162 105l86 -83q-119 -123 -272 -142l-26 -133h-70l26 131q-49 3 -85 14l-28 -145h-70l34 170q-84 44 -132 125t-48 181q0 136 86.5 235t222.5 111l20 99h70l-20 -99q41 -3 84 -14zM316 115
q39 -19 83 -20l90 450q-40 11 -85 13zM192 326q0 -100 63 -168l77 388q-64 -23 -102 -83t-38 -137z" />
    <glyph glyph-name="franc.cap" horiz-adv-x="724" 
d="M53 119v81h104v453h524v-116h-383v-119h237v-115h-237v-103h172v-81h-172v-119h-141v119h-104z" />
    <glyph glyph-name="lira.cap" horiz-adv-x="728" 
d="M61 367v77h134v34q0 95 70.5 145.5t167.5 50.5q49 0 117 -21t128 -55l-61 -100q-102 58 -179 58q-41 0 -71 -24t-30 -69v-19h224v-77h-224v-76h224v-77h-225q-3 -46 -23.5 -69.5t-64.5 -32.5h429v-112h-616v112h40q51 0 71.5 20.5t22.5 81.5h-134v77h134v76h-134z" />
    <glyph glyph-name="peso.cap" horiz-adv-x="828" 
d="M40 375v77h88v201h321q133 0 201 -74q47 -51 58 -127h94v-77h-93q-11 -85 -67 -139q-67 -67 -193 -67h-180v-169h-141v375h-88zM537 314q23 25 29 61h-297v-91h180q61 0 88 30zM449 537h-180v-85h296q-7 29 -26 53q-26 32 -90 32z" />
    <glyph glyph-name="peseta.cap" horiz-adv-x="1607" 
d="M231 0h-144v653h362q131 0 197 -72q39 -43 49 -93h65v138h133v-138h120v-99h-120v-253q0 -43 53 -43q22 0 62 7l10 -100q-24 -19 -106 -19q-62 0 -107 35t-45 110v263h-70q-15 -50 -53 -86q-66 -63 -188 -63h-218v-240zM1531 454l-47 -95q-95 44 -176 44t-81 -47
q0 -12 6.5 -20.5t14.5 -13t23.5 -7.5t25 -3.5t26.5 -1.5q36 -2 59.5 -4t60 -11.5t59 -25t39.5 -45t17 -69.5q0 -84 -64.5 -128t-167.5 -44q-130 0 -248 74l47 95q107 -66 203 -66q46 0 71.5 15.5t25.5 41.5q0 16 -9 27t-27 16.5t-31.5 7t-35.5 3.5q-36 2 -54.5 4t-50.5 7
t-49.5 14.5t-36.5 24.5t-27.5 39t-8.5 56q0 85 61 124.5t147 39.5q60 0 125 -17t103 -35zM454 532h-223v-171h223q50 0 76 25q26 26 26 60q0 33 -24 59q-26 27 -78 27z" />
    <glyph glyph-name="rupiah.cap" horiz-adv-x="1363" 
d="M806 488h125q5 -32 5 -61q66 77 152 77q100 0 169 -72t69 -188q0 -113 -69 -185.5t-169 -72.5q-78 0 -138 63v-256h-133v557q0 81 -11 138zM1069 98q48 0 80.5 41t32.5 105q0 66 -33 106.5t-80 40.5q-64 0 -119 -55v-185q58 -53 119 -53zM239 0h-143v653h362
q128 0 196 -71q54 -57 54 -135q0 -62 -35.5 -109.5t-96.5 -74.5l153 -263h-164l-132 240h-194v-240zM463 532h-224v-171h234q38 0 64.5 24.5t26.5 61.5q0 34 -23 57q-26 28 -78 28z" />
    <glyph glyph-name="Rupee.cap" horiz-adv-x="803" 
d="M98 375v77h412q-7 31 -26 53q-26 32 -92 32h-294v116h649v-77h-164q57 -51 69 -124h95v-77h-93q-10 -87 -68 -138q-62 -56 -180 -56l-54 4l307 -185h-223l-338 207v77h294q64 0 91 29q22 25 29 62h-414z" />
    <glyph glyph-name="section.cap" horiz-adv-x="717" 
d="M616 112q-25 -26 -50 -41q8 -11 12 -24q11 -25 11 -58q0 -60 -37.5 -101.5t-88 -57.5t-108.5 -16q-118 0 -220 59l56 93q87 -46 166 -46q36 0 63.5 13.5t27.5 45.5q0 17 -8 26q-3 4 -7 7t-10 5.5t-10.5 4.5t-13 4t-14 3t-16 2.5t-16.5 2.5t-18.5 2.5t-18.5 2.5
q-162 21 -227 91q-45 47 -45 114q0 72 52 129q24 26 53 44q-10 17 -11 20q-11 28 -11 63q0 61 37.5 102.5t88 57.5t108.5 16q121 0 224 -60l-56 -92q-90 45 -170 45q-92 0 -92 -58q0 -17 10 -27q4 -4 9.5 -7.5t13.5 -6t14.5 -4.5t18.5 -4t19.5 -3t23.5 -3l24 -3
q162 -21 229 -95q43 -48 43 -113q0 -74 -56 -133zM381 334q-108 13 -149 28q-13 -10 -24 -26q-28 -35 -28 -74q0 -34 20 -57q31 -34 134 -48q108 -12 150 -29q10 7 22 23q29 35 29 77q0 34 -19 56q-32 36 -135 50z" />
    <glyph glyph-name="numbersign.cap" horiz-adv-x="905" 
d="M600 709h91l-32 -193h200v-103h-217l-32 -195h190v-104h-207l-37 -226h-91l37 226h-169l-37 -226h-91l37 226h-197v104h214l32 195h-187v103h204l32 193h91l-32 -193h169zM382 413l-32 -195h169l32 195h-169z" />
    <glyph glyph-name="percent.cap" horiz-adv-x="1071" 
d="M664 653h114l-371 -653h-114zM45 479q0 78 61 134t147 56q85 0 147.5 -56.5t62.5 -133.5q0 -79 -62 -135.5t-148 -56.5q-87 0 -147.5 56t-60.5 136zM165 479q0 -37 26 -63.5t62 -26.5q37 0 63.5 26.5t26.5 63.5t-26.5 63t-63.5 26q-36 0 -62 -26t-26 -63zM608 175
q0 78 60.5 134t146.5 56t148.5 -56.5t62.5 -133.5q0 -79 -62.5 -135t-148.5 -56t-146.5 56t-60.5 135zM728 175q0 -37 25.5 -63.5t61.5 -26.5q37 0 64 26.5t27 63.5t-26.5 63t-64.5 26q-36 0 -61.5 -26t-25.5 -63z" />
    <glyph glyph-name="perthousand.cap" horiz-adv-x="1531" 
d="M666 653h114l-371 -653h-114zM47 479q0 78 61 134t147 56q85 0 147.5 -56.5t62.5 -133.5q0 -79 -62 -135.5t-148 -56.5q-87 0 -147.5 56t-60.5 136zM167 479q0 -37 26 -63.5t62 -26.5q37 0 63.5 26.5t26.5 63.5t-26.5 63t-63.5 26q-36 0 -62 -26t-26 -63zM610 175
q0 78 60.5 134t146.5 56t148.5 -56.5t62.5 -133.5q0 -79 -62.5 -135t-148.5 -56t-146.5 56t-60.5 135zM730 175q0 -37 25.5 -63.5t61.5 -26.5q37 0 64 26.5t27 63.5t-26.5 63t-64.5 26q-36 0 -61.5 -26t-25.5 -63zM1069 175q0 78 60.5 134t146.5 56q85 0 147.5 -56.5
t62.5 -133.5q0 -79 -62 -135t-148 -56q-87 0 -147 56t-60 135zM1189 175q0 -37 25.5 -63.5t61.5 -26.5q37 0 63.5 26.5t26.5 63.5t-26.5 63t-63.5 26q-36 0 -61.5 -26t-25.5 -63z" />
    <glyph glyph-name="ij.alt" horiz-adv-x="575" 
d="M210 0h-133v488h133v-488zM64 636q0 30 23 51.5t56 21.5t56.5 -21.5t23.5 -51.5q0 -29 -23 -50t-57 -21q-33 0 -56 20.5t-23 50.5zM350 634q0 30 23 50.5t57 20.5q33 0 56.5 -21t23.5 -50t-23 -49t-57 -20t-57 20t-23 49zM364 -82v570h133v-570q0 -75 -46.5 -110
t-111.5 -35q-67 0 -103 16l14 103q36 -12 68 -12q21 0 33.5 10.5t12.5 27.5z" />
    <glyph glyph-name="j.alt" horiz-adv-x="287" 
d="M63 634q0 30 23 50.5t57 20.5q33 0 56.5 -21t23.5 -50t-23 -49t-57 -20t-57 20t-23 49zM77 -82v570h133v-570q0 -75 -46.5 -110t-111.5 -35q-67 0 -103 16l14 103q36 -12 68 -12q21 0 33.5 10.5t12.5 27.5z" />
    <glyph glyph-name="jcircumflex.alt" horiz-adv-x="287" 
d="M77 -82v570h133v-570q0 -75 -46.5 -110t-111.5 -35q-67 0 -103 16l14 103q36 -12 68 -12q21 0 33.5 10.5t12.5 27.5zM-28 553l106 141h132l105 -141h-105l-66 76l-67 -76h-105z" />
    <glyph glyph-name="dotlessj.alt" horiz-adv-x="287" 
d="M77 -82v570h133v-570q0 -75 -46.5 -110t-111.5 -35q-67 0 -103 16l14 103q36 -12 68 -12q21 0 33.5 10.5t12.5 27.5z" />
    <glyph glyph-name="r.alt" horiz-adv-x="505" 
d="M335 504q68 0 109 -54.5t32 -142.5h-123q4 36 -11 56.5t-40 20.5q-24 0 -43.5 -17.5t-46.5 -52.5v-314h-134v350q0 62 -14 138h122q7 -38 10 -73q55 89 139 89z" />
    <glyph glyph-name="racute.alt" horiz-adv-x="505" 
d="M335 504q68 0 109 -54.5t32 -142.5h-123q4 36 -11 56.5t-40 20.5q-24 0 -43.5 -17.5t-46.5 -52.5v-314h-134v350q0 62 -14 138h122q7 -38 10 -73q55 89 139 89zM268 698h135l-108 -146h-117z" />
    <glyph glyph-name="rcaron.alt" horiz-adv-x="505" 
d="M335 504q68 0 109 -54.5t32 -142.5h-123q4 36 -11 56.5t-40 20.5q-24 0 -43.5 -17.5t-46.5 -52.5v-314h-134v350q0 62 -14 138h122q7 -38 10 -73q55 89 139 89zM86 694h105l67 -77l66 77h105l-105 -141h-132z" />
    <glyph glyph-name="uni0157.alt" horiz-adv-x="505" 
d="M335 504q68 0 109 -54.5t32 -142.5h-123q4 36 -11 56.5t-40 20.5q-24 0 -43.5 -17.5t-46.5 -52.5v-314h-134v350q0 62 -14 138h122q7 -38 10 -73q55 89 139 89zM142 -61l105 20q14 -14 20.5 -21.5t16 -28t9.5 -42.5q0 -54 -43 -87.5t-119 -33.5q-29 0 -54 8v76
q14 -3 41 -3q56 0 56 48q0 28 -32 64z" />
    <glyph glyph-name="y.alt" horiz-adv-x="557" 
d="M14 488h149l118 -291h6l129 291h137l-259 -547q-81 -168 -223 -168q-62 0 -101 18l8 102q36 -13 82 -13q36 0 63.5 20.5t56.5 79.5l32 65z" />
    <glyph glyph-name="yacute.alt" horiz-adv-x="557" 
d="M292 698h135l-108 -146h-117zM14 488h149l118 -291h6l129 291h137l-259 -547q-81 -168 -223 -168q-62 0 -101 18l8 102q36 -13 82 -13q36 0 63.5 20.5t56.5 79.5l32 65z" />
    <glyph glyph-name="ydieresis.alt" horiz-adv-x="557" 
d="M96 625q0 27 21 47t51 20q31 0 52.5 -20t21.5 -47q0 -28 -21.5 -47t-52.5 -19t-51.5 19t-20.5 47zM320 625q0 27 21 47t52 20t52.5 -20t21.5 -47q0 -28 -21.5 -47t-52.5 -19t-52 19t-21 47zM14 488h149l118 -291h6l129 291h137l-259 -547q-81 -168 -223 -168
q-62 0 -101 18l8 102q36 -13 82 -13q36 0 63.5 20.5t56.5 79.5l32 65z" />
    <glyph glyph-name="ycircumflex.alt" horiz-adv-x="557" 
d="M110 553l106 141h132l105 -141h-105l-66 76l-67 -76h-105zM14 488h149l118 -291h6l129 291h137l-259 -547q-81 -168 -223 -168q-62 0 -101 18l8 102q36 -13 82 -13q36 0 63.5 20.5t56.5 79.5l32 65z" />
    <glyph glyph-name="ygrave.alt" horiz-adv-x="557" 
d="M137 698h134l90 -146h-116zM14 488h149l118 -291h6l129 291h137l-259 -547q-81 -168 -223 -168q-62 0 -101 18l8 102q36 -13 82 -13q36 0 63.5 20.5t56.5 79.5l32 65z" />
    <glyph glyph-name="caron.alt" 
d="M266 464h-68v236h118q0 -137 -50 -236z" />
    <glyph glyph-name="fi" horiz-adv-x="666" 
d="M33 488h84v77q0 76 46.5 111t111.5 35q69 0 103 -17l-14 -102q-33 11 -68 11q-21 0 -33.5 -10t-12.5 -28v-77h120v-99h-120v-389h-133v389h-84v99zM590 0h-134v488h134v-488zM443 636q0 30 23 51.5t56 21.5t57 -21.5t24 -51.5q0 -29 -23.5 -50t-57.5 -21q-33 0 -56 20.5
t-23 50.5z" />
    <glyph glyph-name="fl" horiz-adv-x="672" 
d="M33 488h84v77q0 76 46.5 111t111.5 35q69 0 103 -17l-14 -102q-33 11 -68 11q-21 0 -33.5 -10t-12.5 -28v-77h120v-99h-120v-389h-133v389h-84v99zM592 0h-133v700h133v-700z" />
    <glyph glyph-name="f_j.alt" horiz-adv-x="666" 
d="M33 488h84v77q0 76 46.5 111t111.5 35q69 0 103 -17l-14 -102q-33 11 -68 11q-21 0 -33.5 -10t-12.5 -28v-77h120v-99h-120v-389h-133v389h-84v99zM456 -82v570h134v-570q0 -75 -47 -110t-111 -35q-66 0 -104 16l15 103q36 -12 67 -12q21 0 33.5 10.5t12.5 27.5zM443 636
q0 30 23 51.5t56 21.5t57 -21.5t24 -51.5q0 -29 -23.5 -50t-57.5 -21q-33 0 -56 20.5t-23 50.5z" />
    <glyph glyph-name="f_f_j.alt" horiz-adv-x="1002" 
d="M453 0v389h-203v-389h-133v389h-84v99h84v77q0 76 46.5 111t111.5 35q69 0 103 -17l-14 -102q-33 11 -68 11q-21 0 -33.5 -10t-12.5 -28v-77h203v77q0 76 46.5 111t111.5 35q69 0 103 -17l-14 -102q-33 11 -68 11q-21 0 -33.5 -10t-12.5 -28v-77h120v-99h-120v-389h-133z
M664 -211l15 103q36 -12 67 -12q21 0 33.5 10.5t12.5 27.5v570h134v-570q0 -75 -47 -110t-111 -35q-66 0 -104 16zM859 565q-34 0 -57 20.5t-23 50.5t23 51.5t57 21.5q33 0 56.5 -21.5t23.5 -51.5q0 -29 -23 -50t-57 -21z" />
    <glyph glyph-name="a.superior" horiz-adv-x="466" 
d="M90 473l-33 77q78 37 176 37q74 0 124 -25.5t50 -81.5v-191q0 -39 10 -69h-107q-4 12 -8 38q-18 -16 -30.5 -24.5t-36.5 -16.5t-54 -8q-67 0 -108 35t-41 88q0 51 44.5 84.5t120.5 33.5q62 0 102 -26v31q0 50 -75 50q-65 0 -134 -32zM204 288q58 0 95 37v29
q-34 22 -80 22q-79 0 -79 -44q0 -20 17 -32t47 -12z" />
    <glyph glyph-name="b.superior" horiz-adv-x="490" 
d="M156 220h-101q8 43 8 104v376h108v-158q48 45 102 45q76 0 128.5 -52t52.5 -136t-52 -137t-128 -53q-67 0 -113 52q0 -11 -5 -41zM257 499q-44 0 -86 -37v-128q40 -37 87 -37q34 0 56.5 28.5t22.5 73.5t-22.5 72.5t-57.5 27.5z" />
    <glyph glyph-name="d.superior" horiz-adv-x="490" 
d="M435 220h-102q-3 19 -5 41q-46 -52 -112 -52q-76 0 -128.5 53t-52.5 137t52.5 136t128.5 52q55 0 102 -41v154h108v-376q0 -61 9 -104zM232 499q-35 0 -57.5 -27.5t-22.5 -72.5t23 -73.5t57 -28.5q49 0 86 37v128q-42 37 -86 37z" />
    <glyph glyph-name="e.superior" horiz-adv-x="453" 
d="M355 327l52 -66q-73 -52 -175 -52q-90 0 -143.5 53.5t-53.5 131.5q0 82 56 137.5t140 55.5q79 0 134 -45.5t56 -137.5q0 -15 -1 -34h-279q8 -35 34.5 -56t65.5 -21q62 0 114 34zM233 508q-69 0 -89 -68h167q0 32 -23.5 50t-54.5 18z" />
    <glyph glyph-name="h.superior" horiz-adv-x="473" 
d="M170 220h-107v480h108v-160q49 47 102 47q64 0 103.5 -36t39.5 -93v-238h-109v235q0 18 -16 31t-41 13q-46 0 -80 -44v-235z" />
    <glyph glyph-name="i.superior" horiz-adv-x="234" 
d="M171 220h-108v355h108v-355zM53 670q0 23 18.5 38.5t45.5 15.5t46 -16t19 -38t-19 -37.5t-46 -15.5t-45.5 15.5t-18.5 37.5z" />
    <glyph glyph-name="l.superior" horiz-adv-x="234" 
d="M171 220h-108v480h108v-480z" />
    <glyph glyph-name="m.superior" horiz-adv-x="697" 
d="M173 220h-109v252q0 53 -10 104h99q3 -12 7 -46q53 57 114 57q35 0 64.5 -16.5t45.5 -45.5q49 62 123 62q57 0 94.5 -36.5t37.5 -92.5v-238h-108v235q0 19 -16 31.5t-39 12.5q-39 0 -70 -44v-235h-109v231q0 20 -15.5 34t-39.5 14q-38 0 -69 -44v-235z" />
    <glyph glyph-name="o.superior" horiz-adv-x="477" 
d="M34 399q0 80 58.5 134t145.5 54t145.5 -54t58.5 -134t-58.5 -135t-145.5 -55t-145.5 55t-58.5 135zM145 399q0 -44 25 -73.5t68 -29.5t68.5 29.5t25.5 73.5q0 43 -25 71.5t-69 28.5t-68.5 -28t-24.5 -72z" />
    <glyph glyph-name="r.superior" horiz-adv-x="325" 
d="M173 220h-109v252q0 47 -10 104h98q5 -28 8 -53q41 64 96 64q35 0 57 -12l-30 -96q-36 9 -50 9q-26 0 -60 -43v-225z" />
    <glyph glyph-name="s.superior" horiz-adv-x="432" 
d="M379 552l-37 -74q-76 30 -137 30q-55 0 -55 -28q0 -29 69 -31q35 -2 58.5 -5.5t55.5 -14t49.5 -35t17.5 -61.5q0 -61 -50 -93.5t-128 -32.5q-99 0 -191 54l37 74q85 -48 157 -48q32 0 49.5 10.5t17.5 25.5q0 34 -74 36q-40 2 -64 5.5t-53 14t-43.5 33t-14.5 57.5
q0 62 47 91t112 29q47 0 98.5 -12t78.5 -25z" />
    <glyph glyph-name="t.superior" horiz-adv-x="328" 
d="M28 499v76h64v100h108v-100h87v-76h-87v-180q0 -26 38 -26q27 0 45 3l8 -79q-20 -12 -80 -12q-49 0 -84 26t-35 81v187h-64z" />
    <glyph glyph-name="a.sc" horiz-adv-x="714" 
d="M15 0l282 568h120l282 -568h-154l-53 113h-277l-52 -113h-148zM351 404l-88 -189h182l-88 189h-6z" />
    <glyph glyph-name="b.sc" horiz-adv-x="763" 
d="M478 0h-375v568h361q118 0 173 -58q34 -36 34 -82q0 -35 -20.5 -65t-54.5 -47q51 -17 79 -54t28 -87q0 -69 -53 -121q-31 -30 -69 -42t-103 -12zM468 242h-224v-130h225q50 0 72 22q17 17 17 42q0 24 -18 42q-24 24 -72 24zM447 455h-203v-111h206q39 0 59 18
q17 15 17 41q0 18 -12 31q-20 21 -67 21z" />
    <glyph glyph-name="c.sc" horiz-adv-x="729" 
d="M610 188l88 -89q-135 -118 -311 -118q-149 0 -242 87.5t-93 215.5q0 126 93 214.5t238 88.5q81 0 159.5 -27.5t135.5 -72.5l-88 -90q-41 33 -94.5 52.5t-100.5 19.5q-88 0 -142.5 -54t-54.5 -132t55.5 -131.5t146.5 -53.5q113 0 210 90z" />
    <glyph glyph-name="d.sc" horiz-adv-x="768" 
d="M390 0h-287v568h287q88 0 143 -21t101 -63q78 -78 78 -200t-79 -201q-45 -42 -100 -62.5t-143 -20.5zM243 117h143q51 0 79 10.5t54 33.5q47 47 47 123q0 74 -44 120q-27 24 -55.5 35t-80.5 11h-143v-333z" />
    <glyph glyph-name="e.sc" horiz-adv-x="681" 
d="M465 354v-117h-222v-120h390v-117h-530v568h508v-118h-368v-96h222z" />
    <glyph glyph-name="f.sc" horiz-adv-x="637" 
d="M243 0h-140v568h505v-118h-365v-100h221v-117h-221v-233z" />
    <glyph glyph-name="g.sc" horiz-adv-x="754" 
d="M676 483l-92 -85q-38 33 -93.5 52t-103.5 19q-83 0 -137 -54.5t-54 -131.5q0 -75 53.5 -129.5t147.5 -54.5q92 0 149 34v86h-182v112h313v-260q-60 -41 -137.5 -65t-148.5 -24q-145 0 -242.5 88t-97.5 214t97.5 214.5t237.5 88.5q152 0 290 -104z" />
    <glyph glyph-name="h.sc" horiz-adv-x="763" 
d="M244 0h-141v568h141v-206h276v206h140v-568h-140v247h-276v-247z" />
    <glyph glyph-name="i.sc" horiz-adv-x="347" 
d="M243 0h-140v568h140v-568z" />
    <glyph glyph-name="j.sc" horiz-adv-x="623" 
d="M391 568h140v-363q0 -104 -72 -163.5t-189 -59.5q-176 0 -255 159l118 60q46 -102 136 -102q55 0 88.5 28t33.5 78v363z" />
    <glyph glyph-name="k.sc" horiz-adv-x="741" 
d="M514 568h176l-255 -223l300 -345h-177l-222 256l-92 -75v-181h-141v568h141v-230q50 43 270 230z" />
    <glyph glyph-name="l.sc" horiz-adv-x="625" 
d="M103 568h140v-451h354v-117h-494v568z" />
    <glyph glyph-name="m.sc" horiz-adv-x="860" 
d="M103 0v568h133l196 -304h1l195 304h128v-568h-140v318h-4l-165 -252h-39l-164 252h-5v-318h-136z" />
    <glyph glyph-name="n.sc" horiz-adv-x="768" 
d="M524 568h140v-568h-120l-299 339h-1v-339h-141v568h120l300 -340h1v340z" />
    <glyph glyph-name="o.sc" horiz-adv-x="783" 
d="M52 285q0 125 98.5 213.5t240.5 88.5q141 0 241 -88.5t100 -213.5q0 -126 -99.5 -215t-241.5 -89t-240.5 89t-98.5 215zM197 285q0 -77 56.5 -132t137.5 -55t138 55t57 132q0 76 -57 130t-138 54t-137.5 -54t-56.5 -130z" />
    <glyph glyph-name="p.sc" horiz-adv-x="711" 
d="M243 0h-140v568h338q124 0 186 -65q48 -50 48 -118q0 -69 -50 -119q-63 -63 -186 -63h-196v-203zM446 453h-203v-135h201q49 0 72 23q20 20 20 44t-17 43q-24 25 -73 25z" />
    <glyph glyph-name="q.sc" horiz-adv-x="783" 
d="M52 285q0 125 98.5 213.5t240.5 88.5q141 0 241 -88.5t100 -213.5q0 -73 -36 -136.5t-98 -105.5l76 -109l-129 -39l-67 96q-47 -10 -87 -10q-142 0 -240.5 89t-98.5 215zM337 194l128 40l59 -86q62 57 62 137q0 76 -57 130t-138 54t-137.5 -54t-56.5 -130
q0 -77 56.5 -132t137.5 -55h12z" />
    <glyph glyph-name="r.sc" horiz-adv-x="745" 
d="M243 0h-140v568h336q123 0 187 -64q49 -51 49 -118q0 -54 -32.5 -96t-87.5 -64l140 -226h-159l-121 203h-172v-203zM444 453h-201v-135h209q39 0 64 23q20 20 20 44q0 23 -18 43q-23 25 -74 25z" />
    <glyph glyph-name="s.sc" horiz-adv-x="699" 
d="M615 511l-79 -95q-88 57 -214 57q-48 0 -78.5 -15t-30.5 -46q0 -44 145 -53q2 -1 3 -1h3h3q33 -2 51 -4t52.5 -7.5t55 -12.5t47.5 -20.5t42 -31t25.5 -44t10.5 -59.5q0 -101 -76 -149.5t-197 -48.5q-185 0 -337 112l79 94q128 -93 260 -93q57 0 94 18.5t37 53.5
q0 33 -36 47t-111 19q-36 2 -59 4.5t-57 8t-56 12.5t-47 20t-39.5 29.5t-24 41t-9.5 55.5q0 50 23 87.5t61 57.5t80.5 29.5t88.5 9.5q87 0 165.5 -23.5t124.5 -52.5z" />
    <glyph glyph-name="t.sc" horiz-adv-x="642" 
d="M33 450v118h576v-118h-218v-450h-140v450h-218z" />
    <glyph glyph-name="u.sc" horiz-adv-x="741" 
d="M508 568h140v-368q0 -103 -77 -161t-202 -58q-121 0 -199 58.5t-78 160.5v368h140v-368q0 -48 39 -75t98 -27q62 0 100.5 27t38.5 75v368z" />
    <glyph glyph-name="v.sc" horiz-adv-x="714" 
d="M547 568h152l-282 -568h-120l-282 568h158l184 -402h5z" />
    <glyph glyph-name="w.sc" horiz-adv-x="949" 
d="M36 568h152l112 -363h6l121 363h101l121 -363h6l112 363h146l-194 -568h-131l-111 326h-5l-110 -326h-132z" />
    <glyph glyph-name="x.sc" horiz-adv-x="725" 
d="M520 568h169l-240 -272l250 -296h-175l-164 197l-172 -197h-169l258 291l-233 277h175l147 -179z" />
    <glyph glyph-name="y.sc" horiz-adv-x="642" 
d="M468 568h164l-241 -310v-258h-140v258l-241 310h173l143 -188z" />
    <glyph glyph-name="z.sc" horiz-adv-x="655" 
d="M592 117v-117h-538v80l336 370h-319v118h521v-80l-335 -371h335z" />
    <glyph glyph-name="ampersand.sc" horiz-adv-x="761" 
d="M551 542l-58 -103q-68 33 -123 33q-29 0 -45.5 -12t-16.5 -29q0 -8 3.5 -17.5t10.5 -19t13.5 -18t16.5 -18.5l15.5 -15.5t14.5 -12.5l8 -8l116 -115q58 57 108 134l104 -50q-64 -95 -134 -162l131 -129h-173l-54 52q-101 -67 -216 -67q-54 0 -103.5 18t-86 62t-36.5 107
q0 123 149 176q-27 40 -27 81q0 71 59 114.5t144 43.5q83 0 180 -45zM300 238l-41 39q-73 -33 -73 -96q0 -44 32.5 -64t74.5 -20q54 0 115 34z" />
    <glyph glyph-name="aacute.sc" horiz-adv-x="714" 
d="M15 0l282 568h120l282 -568h-154l-53 113h-277l-52 -113h-148zM351 404l-88 -189h182l-88 189h-6zM270 638l100 138h143l-124 -138h-119z" />
    <glyph glyph-name="agrave.sc" horiz-adv-x="714" 
d="M15 0l282 568h120l282 -568h-154l-53 113h-277l-52 -113h-148zM351 404l-88 -189h182l-88 189h-6zM344 776l100 -138h-120l-123 138h143z" />
    <glyph glyph-name="acircumflex.sc" horiz-adv-x="714" 
d="M15 0l282 568h120l282 -568h-154l-53 113h-277l-52 -113h-148zM351 404l-88 -189h182l-88 189h-6zM185 638l106 139h132l105 -139h-105l-66 74l-67 -74h-105z" />
    <glyph glyph-name="adieresis.sc" horiz-adv-x="714" 
d="M15 0l282 568h120l282 -568h-154l-53 113h-277l-52 -113h-148zM351 404l-88 -189h182l-88 189h-6zM171 710q0 27 21 47t51 20q31 0 52.5 -20t21.5 -47q0 -28 -21.5 -47t-52.5 -19t-51.5 19t-20.5 47zM395 710q0 27 21 47t52 20t52.5 -20t21.5 -47q0 -28 -21.5 -47
t-52.5 -19t-52 19t-21 47z" />
    <glyph glyph-name="atilde.sc" horiz-adv-x="714" 
d="M15 0l282 568h120l282 -568h-154l-53 113h-277l-52 -113h-148zM351 404l-88 -189h182l-88 189h-6zM244 633l-80 43q30 53 60 75.5t67 22.5q36 0 72 -25q40 -25 52 -25t23.5 8.5t17 15.5t16.5 22l74 -40q-55 -100 -127 -100q-35 0 -69 23q-3 2 -9.5 6.5t-9.5 6.5t-8 5.5
t-8.5 5t-8.5 2.5t-9 1q-6 0 -11.5 -2.5t-9.5 -5t-9 -8.5t-7.5 -9.5t-8 -11t-7.5 -10.5z" />
    <glyph glyph-name="aring.sc" horiz-adv-x="714" 
d="M15 0l282 568h120l282 -568h-154l-53 113h-277l-52 -113h-148zM351 404l-88 -189h182l-88 189h-6zM296 712q0 -22 16.5 -35.5t41.5 -13.5t41.5 13.5t16.5 35.5q0 23 -16.5 39.5t-41.5 16.5t-41.5 -16.5t-16.5 -39.5zM354 604q-64 0 -100 31.5t-36 76.5q0 47 36 79.5
t100 32.5q63 0 99.5 -32.5t36.5 -79.5q0 -45 -36.5 -76.5t-99.5 -31.5z" />
    <glyph glyph-name="abreve.sc" horiz-adv-x="714" 
d="M15 0l282 568h120l282 -568h-154l-53 113h-277l-52 -113h-148zM351 404l-88 -189h182l-88 189h-6zM196 776h93q0 -68 68 -68q67 0 67 68h93q0 -60 -36 -104t-124 -44t-124.5 44t-36.5 104z" />
    <glyph glyph-name="amacron.sc" horiz-adv-x="714" 
d="M15 0l282 568h120l282 -568h-154l-53 113h-277l-52 -113h-148zM351 404l-88 -189h182l-88 189h-6zM222 750h269v-93h-269v93z" />
    <glyph glyph-name="aogonek.sc" horiz-adv-x="714" 
d="M15 0l282 568h120l282 -568h-32q-103 -45 -103 -96q0 -45 61 -45q15 0 59 8l11 -80q-50 -14 -94 -14q-65 0 -104 29t-39 76q0 68 86 123l-52 112h-277l-52 -113h-148zM351 404l-88 -189h182l-88 189h-6z" />
    <glyph glyph-name="aringacute.sc" horiz-adv-x="714" 
d="M15 0l282 568h120l282 -568h-154l-53 113h-277l-52 -113h-148zM351 404l-88 -189h182l-88 189h-6zM296 712q0 -22 16.5 -35.5t41.5 -13.5t41.5 13.5t16.5 35.5q0 23 -16.5 39.5t-41.5 16.5t-41.5 -16.5t-16.5 -39.5zM354 604q-64 0 -100 31.5t-36 76.5q0 47 36 79.5
t100 32.5q63 0 99.5 -32.5t36.5 -79.5q0 -45 -36.5 -76.5t-99.5 -31.5zM270 857l100 138h143l-124 -138h-119z" />
    <glyph glyph-name="ccedilla.sc" horiz-adv-x="729" 
d="M610 188l88 -89q-124 -107 -279 -117l-7 -14q43 -7 75.5 -28.5t32.5 -61.5q0 -46 -48 -75.5t-124 -29.5q-50 0 -138 21l19 71q89 -14 108 -14q66 0 66 33q0 18 -19.5 25.5t-39.5 7.5q-14 0 -23 -3l-13 29l21 42q-125 17 -201 100.5t-76 198.5q0 126 93 214.5t238 88.5
q81 0 159.5 -27.5t135.5 -72.5l-88 -90q-41 33 -94.5 52.5t-100.5 19.5q-88 0 -142.5 -54t-54.5 -132t55.5 -131.5t146.5 -53.5q113 0 210 90z" />
    <glyph glyph-name="cacute.sc" horiz-adv-x="729" 
d="M610 188l88 -89q-135 -118 -311 -118q-149 0 -242 87.5t-93 215.5q0 126 93 214.5t238 88.5q81 0 159.5 -27.5t135.5 -72.5l-88 -90q-41 33 -94.5 52.5t-100.5 19.5q-88 0 -142.5 -54t-54.5 -132t55.5 -131.5t146.5 -53.5q113 0 210 90zM297 638l100 138h143l-124 -138
h-119z" />
    <glyph glyph-name="ccaron.sc" horiz-adv-x="729" 
d="M610 188l88 -89q-135 -118 -311 -118q-149 0 -242 87.5t-93 215.5q0 126 93 214.5t238 88.5q81 0 159.5 -27.5t135.5 -72.5l-88 -90q-41 33 -94.5 52.5t-100.5 19.5q-88 0 -142.5 -54t-54.5 -132t55.5 -131.5t146.5 -53.5q113 0 210 90zM317 777l67 -75l66 75h105
l-105 -139h-132l-106 139h105z" />
    <glyph glyph-name="ccircumflex.sc" horiz-adv-x="729" 
d="M610 188l88 -89q-135 -118 -311 -118q-149 0 -242 87.5t-93 215.5q0 126 93 214.5t238 88.5q81 0 159.5 -27.5t135.5 -72.5l-88 -90q-41 33 -94.5 52.5t-100.5 19.5q-88 0 -142.5 -54t-54.5 -132t55.5 -131.5t146.5 -53.5q113 0 210 90zM212 638l106 139h132l105 -139
h-105l-66 74l-67 -74h-105z" />
    <glyph glyph-name="cdotaccent.sc" horiz-adv-x="729" 
d="M610 188l88 -89q-135 -118 -311 -118q-149 0 -242 87.5t-93 215.5q0 126 93 214.5t238 88.5q81 0 159.5 -27.5t135.5 -72.5l-88 -90q-41 33 -94.5 52.5t-100.5 19.5q-88 0 -142.5 -54t-54.5 -132t55.5 -131.5t146.5 -53.5q113 0 210 90zM311 710q0 27 21 47t51 20
q31 0 52.5 -20t21.5 -47q0 -28 -21.5 -47t-52.5 -19t-51.5 19t-20.5 47z" />
    <glyph glyph-name="dcaron.sc" horiz-adv-x="768" 
d="M390 0h-287v568h287q88 0 143 -21t101 -63q78 -78 78 -200t-79 -201q-45 -42 -100 -62.5t-143 -20.5zM243 117h143q51 0 79 10.5t54 33.5q47 47 47 123q0 74 -44 120q-27 24 -55.5 35t-80.5 11h-143v-333zM303 777l67 -75l66 75h105l-105 -139h-132l-106 139h105z" />
    <glyph glyph-name="dcroat.sc" horiz-adv-x="797" 
d="M44 239v98h89v231h287q88 0 143 -21t101 -63q78 -78 78 -200t-79 -201q-45 -42 -100 -62.5t-143 -20.5h-287v239h-89zM273 117h143q51 0 79 10.5t54 33.5q47 47 47 123q0 74 -44 120q-27 24 -55.5 35t-80.5 11h-143v-113h159v-98h-159v-122z" />
    <glyph glyph-name="eacute.sc" horiz-adv-x="681" 
d="M465 354v-117h-222v-120h390v-117h-530v568h508v-118h-368v-96h222zM262 638l100 138h143l-124 -138h-119z" />
    <glyph glyph-name="egrave.sc" horiz-adv-x="681" 
d="M465 354v-117h-222v-120h390v-117h-530v568h508v-118h-368v-96h222zM336 776l100 -138h-120l-123 138h143z" />
    <glyph glyph-name="ecircumflex.sc" horiz-adv-x="681" 
d="M465 354v-117h-222v-120h390v-117h-530v568h508v-118h-368v-96h222zM177 638l106 139h132l105 -139h-105l-66 74l-67 -74h-105z" />
    <glyph glyph-name="edieresis.sc" horiz-adv-x="681" 
d="M465 354v-117h-222v-120h390v-117h-530v568h508v-118h-368v-96h222zM163 710q0 27 21 47t51 20q31 0 52.5 -20t21.5 -47q0 -28 -21.5 -47t-52.5 -19t-51.5 19t-20.5 47zM387 710q0 27 21 47t52 20t52.5 -20t21.5 -47q0 -28 -21.5 -47t-52.5 -19t-52 19t-21 47z" />
    <glyph glyph-name="ebreve.sc" horiz-adv-x="681" 
d="M465 354v-117h-222v-120h390v-117h-530v568h508v-118h-368v-96h222zM188 776h93q0 -68 68 -68q67 0 67 68h93q0 -60 -36 -104t-124 -44t-124.5 44t-36.5 104z" />
    <glyph glyph-name="ecaron.sc" horiz-adv-x="681" 
d="M465 354v-117h-222v-120h390v-117h-530v568h508v-118h-368v-96h222zM282 777l67 -75l66 75h105l-105 -139h-132l-106 139h105z" />
    <glyph glyph-name="edotaccent.sc" horiz-adv-x="681" 
d="M465 354v-117h-222v-120h390v-117h-530v568h508v-118h-368v-96h222zM276 710q0 27 21 47t51 20q31 0 52.5 -20t21.5 -47q0 -28 -21.5 -47t-52.5 -19t-51.5 19t-20.5 47z" />
    <glyph glyph-name="emacron.sc" horiz-adv-x="681" 
d="M465 354v-117h-222v-120h390v-117h-530v568h508v-118h-368v-96h222zM214 750h269v-93h-269v93z" />
    <glyph glyph-name="eogonek.sc" horiz-adv-x="681" 
d="M465 354v-117h-222v-120h390v-117h-38q-103 -45 -103 -96q0 -45 61 -45q15 0 59 8l11 -80q-50 -14 -94 -14q-65 0 -104 29t-39 76q0 68 84 122h-367v568h508v-118h-368v-96h222z" />
    </font>
</defs>
</svg>
